CaliforniaGothic-Regular.ufo
<glyph name="space" format="1">
  <advance width="580"/>
  <unicode hex="0020"/>
  <outline>
    <contour>
      <point x="0" y="0" type="move" smooth="yes"/>
    </contour>
  </outline>
</glyph>
<glyph name="exclam" format="1">
  <advance width="450"/>
  <unicode hex="0021"/>
  <outline>
    <contour>
      <point x="110" y="230" type="curve"/>
      <point x="110" y="230"/>
      <point x="340" y="230"/>
      <point x="340" y="230" type="curve"/>
      <point x="340" y="230"/>
      <point x="340" y="0"/>
      <point x="340" y="0" type="curve"/>
      <point x="340" y="0"/>
      <point x="110" y="0"/>
      <point x="110" y="0" type="curve"/>
      <point x="110" y="0"/>
      <point x="110" y="230"/>
    </contour>
    <contour>
      <point x="330" y="390" type="curve"/>
      <point x="330" y="390"/>
      <point x="120" y="390"/>
      <point x="120" y="390" type="curve"/>
      <point x="120" y="390"/>
      <point x="100" y="880"/>
      <point x="100" y="880" type="curve"/>
      <point x="100" y="880"/>
      <point x="100" y="1400"/>
      <point x="100" y="1400" type="curve"/>
      <point x="100" y="1400"/>
      <point x="350" y="1400"/>
      <point x="350" y="1400" type="curve"/>
      <point x="350" y="1400"/>
      <point x="350" y="880"/>
      <point x="350" y="880" type="curve"/>
      <point x="350" y="880"/>
      <point x="330" y="390"/>
    </contour>
  </outline>
</glyph>
<glyph name="percent" format="1">
  <advance width="1260"/>
  <unicode hex="0025"/>
  <outline>
    <contour>
      <point x="100" y="1029" type="curve" smooth="yes"/>
      <point x="100" y="1029"/>
      <point x="100" y="1080"/>
      <point x="100" y="1080" type="curve" smooth="yes"/>
      <point x="100" y="1207"/>
      <point x="203" y="1310"/>
      <point x="330" y="1310" type="curve" smooth="yes"/>
      <point x="457" y="1310"/>
      <point x="560" y="1207"/>
      <point x="560" y="1080" type="curve" smooth="yes"/>
      <point x="560" y="1080"/>
      <point x="560" y="1029"/>
      <point x="560" y="1029" type="curve" smooth="yes"/>
      <point x="560" y="902"/>
      <point x="457" y="800"/>
      <point x="330" y="800" type="curve" smooth="yes"/>
      <point x="203" y="800"/>
      <point x="100" y="902"/>
    </contour>
    <contour>
      <point x="259" y="1044" type="curve" smooth="yes"/>
      <point x="259" y="991"/>
      <point x="291" y="949"/>
      <point x="330" y="949" type="curve" smooth="yes"/>
      <point x="369" y="949"/>
      <point x="401" y="991"/>
      <point x="401" y="1044" type="curve" smooth="yes"/>
      <point x="401" y="1044"/>
      <point x="401" y="1066"/>
      <point x="401" y="1066" type="curve" smooth="yes"/>
      <point x="401" y="1119"/>
      <point x="369" y="1160"/>
      <point x="330" y="1160" type="curve" smooth="yes"/>
      <point x="291" y="1160"/>
      <point x="259" y="1119"/>
      <point x="259" y="1066" type="curve" smooth="yes"/>
      <point x="259" y="1066"/>
      <point x="259" y="1044"/>
    </contour>
    <contour>
      <point x="930" y="600" type="curve" smooth="yes"/>
      <point x="1057" y="600"/>
      <point x="1160" y="497"/>
      <point x="1160" y="370" type="curve" smooth="yes"/>
      <point x="1160" y="370"/>
      <point x="1160" y="319"/>
      <point x="1160" y="319" type="curve" smooth="yes"/>
      <point x="1160" y="192"/>
      <point x="1057" y="90"/>
      <point x="930" y="90" type="curve" smooth="yes"/>
      <point x="803" y="90"/>
      <point x="700" y="192"/>
      <point x="700" y="319" type="curve" smooth="yes"/>
      <point x="700" y="319"/>
      <point x="700" y="370"/>
      <point x="700" y="370" type="curve" smooth="yes"/>
      <point x="700" y="497"/>
      <point x="803" y="600"/>
    </contour>
    <contour>
      <point x="930" y="450" type="curve" smooth="yes"/>
      <point x="891" y="450"/>
      <point x="859" y="409"/>
      <point x="859" y="356" type="curve" smooth="yes"/>
      <point x="859" y="356"/>
      <point x="859" y="334"/>
      <point x="859" y="334" type="curve" smooth="yes"/>
      <point x="859" y="281"/>
      <point x="891" y="239"/>
      <point x="930" y="239" type="curve" smooth="yes"/>
      <point x="969" y="239"/>
      <point x="1001" y="281"/>
      <point x="1001" y="334" type="curve" smooth="yes"/>
      <point x="1001" y="334"/>
      <point x="1001" y="356"/>
      <point x="1001" y="356" type="curve" smooth="yes"/>
      <point x="1001" y="409"/>
      <point x="969" y="450"/>
    </contour>
    <contour>
      <point x="220" y="0" type="curve"/>
      <point x="220" y="0"/>
      <point x="820" y="1400"/>
      <point x="820" y="1400" type="curve"/>
      <point x="820" y="1400"/>
      <point x="1020" y="1400"/>
      <point x="1020" y="1400" type="curve"/>
      <point x="1020" y="1400"/>
      <point x="420" y="0"/>
      <point x="420" y="0" type="curve"/>
      <point x="420" y="0"/>
      <point x="220" y="0"/>
    </contour>
  </outline>
</glyph>
<glyph name="parenleft" format="1">
  <advance width="640"/>
  <unicode hex="0028"/>
  <outline>
    <contour>
      <point x="100" y="270" type="curve" smooth="yes"/>
      <point x="100" y="270"/>
      <point x="100" y="1130"/>
      <point x="100" y="1130" type="curve" smooth="yes"/>
      <point x="100" y="1377"/>
      <point x="303" y="1580"/>
      <point x="550" y="1580" type="curve" smooth="yes"/>
      <point x="550" y="1580"/>
      <point x="630" y="1580"/>
      <point x="630" y="1580" type="curve"/>
      <point x="630" y="1580"/>
      <point x="630" y="1400"/>
      <point x="630" y="1400" type="curve"/>
      <point x="630" y="1400"/>
      <point x="550" y="1400"/>
      <point x="550" y="1400" type="curve" smooth="yes"/>
      <point x="469" y="1400"/>
      <point x="330" y="1344"/>
      <point x="330" y="1190" type="curve" smooth="yes"/>
      <point x="330" y="1190"/>
      <point x="330" y="210"/>
      <point x="330" y="210" type="curve" smooth="yes"/>
      <point x="330" y="56"/>
      <point x="469" y="0"/>
      <point x="550" y="0" type="curve" smooth="yes"/>
      <point x="550" y="0"/>
      <point x="630" y="0"/>
      <point x="630" y="0" type="curve"/>
      <point x="630" y="0"/>
      <point x="630" y="-180"/>
      <point x="630" y="-180" type="curve"/>
      <point x="630" y="-180"/>
      <point x="550" y="-180"/>
      <point x="550" y="-180" type="curve" smooth="yes"/>
      <point x="303" y="-180"/>
      <point x="100" y="23"/>
    </contour>
  </outline>
</glyph>
<glyph name="asterisk" format="1">
  <advance width="1023"/>
  <unicode hex="002A"/>
  <outline>
    <contour>
      <point x="355" y="999" type="curve"/>
      <point x="355" y="999"/>
      <point x="338" y="1001"/>
      <point x="338" y="1001" type="curve"/>
      <point x="338" y="1001"/>
      <point x="100" y="1079"/>
      <point x="100" y="1079" type="curve"/>
      <point x="100" y="1079"/>
      <point x="162" y="1269"/>
      <point x="162" y="1269" type="curve"/>
      <point x="162" y="1269"/>
      <point x="400" y="1191"/>
      <point x="400" y="1191" type="curve"/>
      <point x="400" y="1191"/>
      <point x="415" y="1183"/>
      <point x="415" y="1183" type="curve"/>
      <point x="415" y="1183"/>
      <point x="411" y="1200"/>
      <point x="411" y="1200" type="curve"/>
      <point x="411" y="1200"/>
      <point x="411" y="1450"/>
      <point x="411" y="1450" type="curve"/>
      <point x="411" y="1450"/>
      <point x="611" y="1450"/>
      <point x="611" y="1450" type="curve"/>
      <point x="611" y="1450"/>
      <point x="611" y="1200"/>
      <point x="611" y="1200" type="curve"/>
      <point x="611" y="1200"/>
      <point x="608" y="1183"/>
      <point x="608" y="1183" type="curve"/>
      <point x="608" y="1183"/>
      <point x="623" y="1191"/>
      <point x="623" y="1191" type="curve"/>
      <point x="623" y="1191"/>
      <point x="861" y="1269"/>
      <point x="861" y="1269" type="curve"/>
      <point x="861" y="1269"/>
      <point x="923" y="1079"/>
      <point x="923" y="1079" type="curve"/>
      <point x="923" y="1079"/>
      <point x="685" y="1001"/>
      <point x="685" y="1001" type="curve"/>
      <point x="685" y="1001"/>
      <point x="667" y="999"/>
      <point x="667" y="999" type="curve"/>
      <point x="667" y="999"/>
      <point x="680" y="987"/>
      <point x="680" y="987" type="curve"/>
      <point x="680" y="987"/>
      <point x="827" y="785"/>
      <point x="827" y="785" type="curve"/>
      <point x="827" y="785"/>
      <point x="666" y="668"/>
      <point x="666" y="668" type="curve"/>
      <point x="666" y="668"/>
      <point x="519" y="870"/>
      <point x="519" y="870" type="curve"/>
      <point x="519" y="870"/>
      <point x="511" y="886"/>
      <point x="511" y="886" type="curve"/>
      <point x="511" y="886"/>
      <point x="504" y="870"/>
      <point x="504" y="870" type="curve"/>
      <point x="504" y="870"/>
      <point x="357" y="668"/>
      <point x="357" y="668" type="curve"/>
      <point x="357" y="668"/>
      <point x="195" y="785"/>
      <point x="195" y="785" type="curve"/>
      <point x="195" y="785"/>
      <point x="342" y="987"/>
      <point x="342" y="987" type="curve"/>
      <point x="342" y="987"/>
      <point x="355" y="999"/>
    </contour>
  </outline>
</glyph>
<glyph name="zero" format="1">
  <advance width="930"/>
  <unicode hex="0030"/>
  <outline>
    <contour>
      <point x="680" y="0" type="curve" smooth="yes"/>
      <point x="680" y="0"/>
      <point x="250" y="0"/>
      <point x="250" y="0" type="curve" smooth="yes"/>
      <point x="167" y="0"/>
      <point x="100" y="67"/>
      <point x="100" y="150" type="curve" smooth="yes"/>
      <point x="100" y="150"/>
      <point x="100" y="1250"/>
      <point x="100" y="1250" type="curve" smooth="yes"/>
      <point x="100" y="1333"/>
      <point x="167" y="1400"/>
      <point x="250" y="1400" type="curve" smooth="yes"/>
      <point x="250" y="1400"/>
      <point x="680" y="1400"/>
      <point x="680" y="1400" type="curve" smooth="yes"/>
      <point x="763" y="1400"/>
      <point x="830" y="1333"/>
      <point x="830" y="1250" type="curve" smooth="yes"/>
      <point x="830" y="1250"/>
      <point x="830" y="150"/>
      <point x="830" y="150" type="curve" smooth="yes"/>
      <point x="830" y="67"/>
      <point x="763" y="0"/>
    </contour>
    <contour>
      <point x="403" y="240" type="curve" smooth="yes"/>
      <point x="403" y="240"/>
      <point x="527" y="240"/>
      <point x="527" y="240" type="curve" smooth="yes"/>
      <point x="562" y="240"/>
      <point x="590" y="268"/>
      <point x="590" y="303" type="curve" smooth="yes"/>
      <point x="590" y="303"/>
      <point x="590" y="1097"/>
      <point x="590" y="1097" type="curve" smooth="yes"/>
      <point x="590" y="1132"/>
      <point x="562" y="1160"/>
      <point x="527" y="1160" type="curve" smooth="yes"/>
      <point x="527" y="1160"/>
      <point x="403" y="1160"/>
      <point x="403" y="1160" type="curve" smooth="yes"/>
      <point x="368" y="1160"/>
      <point x="340" y="1132"/>
      <point x="340" y="1097" type="curve" smooth="yes"/>
      <point x="340" y="1097"/>
      <point x="340" y="303"/>
      <point x="340" y="303" type="curve" smooth="yes"/>
      <point x="340" y="268"/>
      <point x="368" y="240"/>
    </contour>
  </outline>
</glyph>
<glyph name="five" format="1">
  <advance width="930"/>
  <unicode hex="0035"/>
  <outline>
    <contour>
      <point x="670" y="0" type="curve" smooth="yes"/>
      <point x="670" y="0"/>
      <point x="260" y="0"/>
      <point x="260" y="0" type="curve" smooth="yes"/>
      <point x="172" y="0"/>
      <point x="100" y="72"/>
      <point x="100" y="160" type="curve" smooth="yes"/>
      <point x="100" y="160"/>
      <point x="100" y="410"/>
      <point x="100" y="410" type="curve"/>
      <point x="100" y="410"/>
      <point x="330" y="410"/>
      <point x="330" y="410" type="curve"/>
      <point x="330" y="410"/>
      <point x="330" y="303"/>
      <point x="330" y="303" type="curve" smooth="yes"/>
      <point x="330" y="268"/>
      <point x="358" y="240"/>
      <point x="393" y="240" type="curve" smooth="yes"/>
      <point x="393" y="240"/>
      <point x="538" y="240"/>
      <point x="538" y="240" type="curve" smooth="yes"/>
      <point x="573" y="240"/>
      <point x="600" y="268"/>
      <point x="600" y="303" type="curve" smooth="yes"/>
      <point x="600" y="303"/>
      <point x="600" y="547"/>
      <point x="600" y="547" type="curve" smooth="yes"/>
      <point x="600" y="582"/>
      <point x="573" y="610"/>
      <point x="538" y="610" type="curve" smooth="yes"/>
      <point x="538" y="610"/>
      <point x="260" y="610"/>
      <point x="260" y="610" type="curve" smooth="yes"/>
      <point x="172" y="610"/>
      <point x="100" y="682"/>
      <point x="100" y="770" type="curve" smooth="yes"/>
      <point x="100" y="770"/>
      <point x="100" y="1400"/>
      <point x="100" y="1400" type="curve"/>
      <point x="100" y="1400"/>
      <point x="820" y="1400"/>
      <point x="820" y="1400" type="curve"/>
      <point x="820" y="1400"/>
      <point x="820" y="1170"/>
      <point x="820" y="1170" type="curve"/>
      <point x="820" y="1170"/>
      <point x="330" y="1170"/>
      <point x="330" y="1170" type="curve"/>
      <point x="330" y="1170"/>
      <point x="330" y="903"/>
      <point x="330" y="903" type="curve" smooth="yes"/>
      <point x="330" y="868"/>
      <point x="357" y="840"/>
      <point x="392" y="840" type="curve" smooth="yes"/>
      <point x="392" y="840"/>
      <point x="670" y="840"/>
      <point x="670" y="840" type="curve" smooth="yes"/>
      <point x="758" y="840"/>
      <point x="830" y="768"/>
      <point x="830" y="680" type="curve" smooth="yes"/>
      <point x="830" y="680"/>
      <point x="830" y="160"/>
      <point x="830" y="160" type="curve" smooth="yes"/>
      <point x="830" y="72"/>
      <point x="758" y="0"/>
    </contour>
  </outline>
</glyph>
<glyph name="six" format="1">
  <advance width="930"/>
  <unicode hex="0036"/>
  <outline>
    <contour>
      <point x="600" y="1020" type="curve"/>
      <point x="600" y="1020"/>
      <point x="600" y="1107"/>
      <point x="600" y="1107" type="curve" smooth="yes"/>
      <point x="600" y="1142"/>
      <point x="572" y="1170"/>
      <point x="537" y="1170" type="curve" smooth="yes"/>
      <point x="537" y="1170"/>
      <point x="392" y="1170"/>
      <point x="392" y="1170" type="curve" smooth="yes"/>
      <point x="357" y="1170"/>
      <point x="330" y="1142"/>
      <point x="330" y="1107" type="curve" smooth="yes"/>
      <point x="330" y="1107"/>
      <point x="330" y="883"/>
      <point x="330" y="883" type="curve" smooth="yes"/>
      <point x="330" y="848"/>
      <point x="357" y="820"/>
      <point x="392" y="820" type="curve" smooth="yes"/>
      <point x="392" y="820"/>
      <point x="670" y="820"/>
      <point x="670" y="820" type="curve" smooth="yes"/>
      <point x="758" y="820"/>
      <point x="830" y="748"/>
      <point x="830" y="660" type="curve" smooth="yes"/>
      <point x="830" y="660"/>
      <point x="830" y="160"/>
      <point x="830" y="160" type="curve" smooth="yes"/>
      <point x="830" y="72"/>
      <point x="758" y="0"/>
      <point x="670" y="0" type="curve" smooth="yes"/>
      <point x="670" y="0"/>
      <point x="260" y="0"/>
      <point x="260" y="0" type="curve" smooth="yes"/>
      <point x="172" y="0"/>
      <point x="100" y="72"/>
      <point x="100" y="160" type="curve" smooth="yes"/>
      <point x="100" y="160"/>
      <point x="100" y="1240"/>
      <point x="100" y="1240" type="curve" smooth="yes"/>
      <point x="100" y="1328"/>
      <point x="172" y="1400"/>
      <point x="260" y="1400" type="curve" smooth="yes"/>
      <point x="260" y="1400"/>
      <point x="670" y="1400"/>
      <point x="670" y="1400" type="curve" smooth="yes"/>
      <point x="758" y="1400"/>
      <point x="830" y="1328"/>
      <point x="830" y="1240" type="curve" smooth="yes"/>
      <point x="830" y="1240"/>
      <point x="830" y="1020"/>
      <point x="830" y="1020" type="curve"/>
      <point x="830" y="1020"/>
      <point x="600" y="1020"/>
    </contour>
    <contour>
      <point x="392" y="600" type="curve" smooth="yes"/>
      <point x="357" y="600"/>
      <point x="330" y="572"/>
      <point x="330" y="537" type="curve" smooth="yes"/>
      <point x="330" y="537"/>
      <point x="330" y="303"/>
      <point x="330" y="303" type="curve" smooth="yes"/>
      <point x="330" y="268"/>
      <point x="357" y="240"/>
      <point x="392" y="240" type="curve" smooth="yes"/>
      <point x="392" y="240"/>
      <point x="537" y="240"/>
      <point x="537" y="240" type="curve" smooth="yes"/>
      <point x="572" y="240"/>
      <point x="600" y="268"/>
      <point x="600" y="303" type="curve" smooth="yes"/>
      <point x="600" y="303"/>
      <point x="600" y="537"/>
      <point x="600" y="537" type="curve" smooth="yes"/>
      <point x="600" y="572"/>
      <point x="572" y="600"/>
      <point x="537" y="600" type="curve" smooth="yes"/>
      <point x="537" y="600"/>
      <point x="392" y="600"/>
    </contour>
  </outline>
</glyph>
<glyph name="eight" format="1">
  <advance width="930"/>
  <unicode hex="0038"/>
  <outline>
    <contour>
      <point x="726" y="710" type="curve"/>
      <point x="788" y="687"/>
      <point x="830" y="627"/>
      <point x="830" y="560" type="curve" smooth="yes"/>
      <point x="830" y="560"/>
      <point x="830" y="160"/>
      <point x="830" y="160" type="curve" smooth="yes"/>
      <point x="830" y="72"/>
      <point x="758" y="0"/>
      <point x="670" y="0" type="curve" smooth="yes"/>
      <point x="670" y="0"/>
      <point x="260" y="0"/>
      <point x="260" y="0" type="curve" smooth="yes"/>
      <point x="172" y="0"/>
      <point x="100" y="72"/>
      <point x="100" y="160" type="curve" smooth="yes"/>
      <point x="100" y="160"/>
      <point x="100" y="560"/>
      <point x="100" y="560" type="curve" smooth="yes"/>
      <point x="100" y="627"/>
      <point x="141" y="687"/>
      <point x="204" y="710" type="curve"/>
      <point x="141" y="733"/>
      <point x="100" y="793"/>
      <point x="100" y="860" type="curve" smooth="yes"/>
      <point x="100" y="860"/>
      <point x="100" y="1240"/>
      <point x="100" y="1240" type="curve" smooth="yes"/>
      <point x="100" y="1328"/>
      <point x="172" y="1400"/>
      <point x="260" y="1400" type="curve" smooth="yes"/>
      <point x="260" y="1400"/>
      <point x="670" y="1400"/>
      <point x="670" y="1400" type="curve" smooth="yes"/>
      <point x="758" y="1400"/>
      <point x="830" y="1328"/>
      <point x="830" y="1240" type="curve" smooth="yes"/>
      <point x="830" y="1240"/>
      <point x="830" y="860"/>
      <point x="830" y="860" type="curve" smooth="yes"/>
      <point x="830" y="793"/>
      <point x="788" y="733"/>
    </contour>
    <contour>
      <point x="392" y="820" type="curve" smooth="yes"/>
      <point x="392" y="820"/>
      <point x="538" y="820"/>
      <point x="538" y="820" type="curve" smooth="yes"/>
      <point x="573" y="820"/>
      <point x="600" y="848"/>
      <point x="600" y="883" type="curve" smooth="yes"/>
      <point x="600" y="883"/>
      <point x="600" y="1117"/>
      <point x="600" y="1117" type="curve" smooth="yes"/>
      <point x="600" y="1152"/>
      <point x="573" y="1180"/>
      <point x="538" y="1180" type="curve" smooth="yes"/>
      <point x="538" y="1180"/>
      <point x="393" y="1180"/>
      <point x="393" y="1180" type="curve" smooth="yes"/>
      <point x="358" y="1180"/>
      <point x="330" y="1152"/>
      <point x="330" y="1117" type="curve" smooth="yes"/>
      <point x="330" y="1117"/>
      <point x="330" y="883"/>
      <point x="330" y="883" type="curve" smooth="yes"/>
      <point x="330" y="848"/>
      <point x="357" y="820"/>
    </contour>
    <contour>
      <point x="393" y="230" type="curve" smooth="yes"/>
      <point x="393" y="230"/>
      <point x="538" y="230"/>
      <point x="538" y="230" type="curve" smooth="yes"/>
      <point x="573" y="230"/>
      <point x="600" y="258"/>
      <point x="600" y="293" type="curve" smooth="yes"/>
      <point x="600" y="293"/>
      <point x="600" y="537"/>
      <point x="600" y="537" type="curve" smooth="yes"/>
      <point x="600" y="572"/>
      <point x="573" y="600"/>
      <point x="538" y="600" type="curve" smooth="yes"/>
      <point x="538" y="600"/>
      <point x="392" y="600"/>
      <point x="392" y="600" type="curve" smooth="yes"/>
      <point x="357" y="600"/>
      <point x="330" y="572"/>
      <point x="330" y="537" type="curve" smooth="yes"/>
      <point x="330" y="537"/>
      <point x="330" y="293"/>
      <point x="330" y="293" type="curve" smooth="yes"/>
      <point x="330" y="258"/>
      <point x="358" y="230"/>
    </contour>
  </outline>
</glyph>
<glyph name="equal" format="1">
  <advance width="1000"/>
  <unicode hex="003D"/>
  <outline>
    <contour>
      <point x="100" y="1010" type="curve"/>
      <point x="100" y="1010"/>
      <point x="900" y="1010"/>
      <point x="900" y="1010" type="curve"/>
      <point x="900" y="1010"/>
      <point x="900" y="790"/>
      <point x="900" y="790" type="curve"/>
      <point x="900" y="790"/>
      <point x="100" y="790"/>
      <point x="100" y="790" type="curve"/>
      <point x="100" y="790"/>
      <point x="100" y="1010"/>
    </contour>
    <contour>
      <point x="100" y="610" type="curve"/>
      <point x="100" y="610"/>
      <point x="900" y="610"/>
      <point x="900" y="610" type="curve"/>
      <point x="900" y="610"/>
      <point x="900" y="390"/>
      <point x="900" y="390" type="curve"/>
      <point x="900" y="390"/>
      <point x="100" y="390"/>
      <point x="100" y="390" type="curve"/>
      <point x="100" y="390"/>
      <point x="100" y="610"/>
    </contour>
  </outline>
</glyph>
<glyph name="at" format="1">
  <advance width="1420"/>
  <unicode hex="0040"/>
  <outline>
    <contour>
      <point x="500" y="60" type="curve" smooth="yes"/>
      <point x="275" y="60"/>
      <point x="100" y="235"/>
      <point x="100" y="460" type="curve" smooth="yes"/>
      <point x="100" y="460"/>
      <point x="100" y="940"/>
      <point x="100" y="940" type="curve" smooth="yes"/>
      <point x="100" y="1165"/>
      <point x="275" y="1340"/>
      <point x="500" y="1340" type="curve" smooth="yes"/>
      <point x="500" y="1340"/>
      <point x="920" y="1340"/>
      <point x="920" y="1340" type="curve" smooth="yes"/>
      <point x="1142" y="1340"/>
      <point x="1315" y="1170"/>
      <point x="1320" y="950" type="curve"/>
      <point x="1320" y="950"/>
      <point x="1320" y="540"/>
      <point x="1320" y="540" type="curve" smooth="yes"/>
      <point x="1320" y="452"/>
      <point x="1248" y="380"/>
      <point x="1160" y="380" type="curve" smooth="yes"/>
      <point x="1160" y="380"/>
      <point x="1000" y="380"/>
      <point x="1000" y="380" type="curve" smooth="yes"/>
      <point x="942" y="380"/>
      <point x="892" y="412"/>
      <point x="860" y="463" type="curve"/>
      <point x="832" y="412"/>
      <point x="778" y="380"/>
      <point x="720" y="380" type="curve" smooth="yes"/>
      <point x="720" y="380"/>
      <point x="580" y="380"/>
      <point x="580" y="380" type="curve" smooth="yes"/>
      <point x="492" y="380"/>
      <point x="420" y="452"/>
      <point x="420" y="540" type="curve" smooth="yes"/>
      <point x="420" y="540"/>
      <point x="420" y="860"/>
      <point x="420" y="860" type="curve" smooth="yes"/>
      <point x="420" y="948"/>
      <point x="492" y="1020"/>
      <point x="580" y="1020" type="curve" smooth="yes"/>
      <point x="580" y="1020"/>
      <point x="710" y="1020"/>
      <point x="710" y="1020" type="curve" smooth="yes"/>
      <point x="762" y="1020"/>
      <point x="810" y="995"/>
      <point x="840" y="953" type="curve"/>
      <point x="840" y="953"/>
      <point x="840" y="1020"/>
      <point x="840" y="1020" type="curve"/>
      <point x="840" y="1020"/>
      <point x="1000" y="1020"/>
      <point x="1000" y="1020" type="curve"/>
      <point x="1000" y="1020"/>
      <point x="1000" y="603"/>
      <point x="1000" y="603" type="curve" smooth="yes"/>
      <point x="1000" y="568"/>
      <point x="1028" y="540"/>
      <point x="1063" y="540" type="curve" smooth="yes"/>
      <point x="1063" y="540"/>
      <point x="1100" y="540"/>
      <point x="1100" y="540" type="curve" smooth="yes"/>
      <point x="1129" y="540"/>
      <point x="1153" y="560"/>
      <point x="1160" y="587" type="curve"/>
      <point x="1160" y="587"/>
      <point x="1160" y="940"/>
      <point x="1160" y="940" type="curve" smooth="yes"/>
      <point x="1160" y="1075"/>
      <point x="1055" y="1180"/>
      <point x="920" y="1180" type="curve" smooth="yes"/>
      <point x="920" y="1180"/>
      <point x="500" y="1180"/>
      <point x="500" y="1180" type="curve" smooth="yes"/>
      <point x="365" y="1180"/>
      <point x="260" y="1075"/>
      <point x="260" y="940" type="curve" smooth="yes"/>
      <point x="260" y="940"/>
      <point x="260" y="460"/>
      <point x="260" y="460" type="curve" smooth="yes"/>
      <point x="260" y="325"/>
      <point x="365" y="220"/>
      <point x="500" y="220" type="curve" smooth="yes"/>
      <point x="500" y="220"/>
      <point x="1170" y="220"/>
      <point x="1170" y="220" type="curve"/>
      <point x="1170" y="220"/>
      <point x="1170" y="60"/>
      <point x="1170" y="60" type="curve"/>
      <point x="1170" y="60"/>
      <point x="500" y="60"/>
    </contour>
    <contour>
      <point x="778" y="540" type="curve" smooth="yes"/>
      <point x="813" y="540"/>
      <point x="840" y="568"/>
      <point x="840" y="603" type="curve" smooth="yes"/>
      <point x="840" y="603"/>
      <point x="840" y="797"/>
      <point x="840" y="797" type="curve" smooth="yes"/>
      <point x="840" y="832"/>
      <point x="813" y="860"/>
      <point x="778" y="860" type="curve" smooth="yes"/>
      <point x="778" y="860"/>
      <point x="643" y="860"/>
      <point x="643" y="860" type="curve" smooth="yes"/>
      <point x="608" y="860"/>
      <point x="580" y="832"/>
      <point x="580" y="797" type="curve" smooth="yes"/>
      <point x="580" y="797"/>
      <point x="580" y="603"/>
      <point x="580" y="603" type="curve" smooth="yes"/>
      <point x="580" y="568"/>
      <point x="608" y="540"/>
      <point x="643" y="540" type="curve" smooth="yes"/>
      <point x="643" y="540"/>
      <point x="778" y="540"/>
    </contour>
  </outline>
</glyph>
<glyph name="B" format="1">
  <advance width="880"/>
  <unicode hex="0042"/>
  <outline>
    <contour>
      <point x="100" y="0" type="curve"/>
      <point x="100" y="0"/>
      <point x="100" y="1400"/>
      <point x="100" y="1400" type="curve"/>
      <point x="100" y="1400"/>
      <point x="635" y="1400"/>
      <point x="635" y="1400" type="curve" smooth="yes"/>
      <point x="715" y="1400"/>
      <point x="780" y="1335"/>
      <point x="780" y="1255" type="curve" smooth="yes"/>
      <point x="780" y="1255"/>
      <point x="780" y="835"/>
      <point x="780" y="835" type="curve" smooth="yes"/>
      <point x="780" y="775"/>
      <point x="743" y="722"/>
      <point x="688" y="700" type="curve"/>
      <point x="743" y="678"/>
      <point x="780" y="625"/>
      <point x="780" y="565" type="curve" smooth="yes"/>
      <point x="780" y="565"/>
      <point x="780" y="145"/>
      <point x="780" y="145" type="curve" smooth="yes"/>
      <point x="780" y="65"/>
      <point x="715" y="0"/>
      <point x="635" y="0" type="curve" smooth="yes"/>
      <point x="635" y="0"/>
      <point x="100" y="0"/>
    </contour>
    <contour>
      <point x="350" y="820" type="curve"/>
      <point x="350" y="820"/>
      <point x="550" y="820"/>
      <point x="550" y="820" type="curve"/>
      <point x="550" y="820"/>
      <point x="550" y="1160"/>
      <point x="550" y="1160" type="curve"/>
      <point x="550" y="1160"/>
      <point x="350" y="1160"/>
      <point x="350" y="1160" type="curve"/>
      <point x="350" y="1160"/>
      <point x="350" y="820"/>
    </contour>
    <contour>
      <point x="350" y="240" type="curve"/>
      <point x="350" y="240"/>
      <point x="550" y="240"/>
      <point x="550" y="240" type="curve"/>
      <point x="550" y="240"/>
      <point x="550" y="580"/>
      <point x="550" y="580" type="curve"/>
      <point x="550" y="580"/>
      <point x="350" y="580"/>
      <point x="350" y="580" type="curve"/>
      <point x="350" y="580"/>
      <point x="350" y="240"/>
    </contour>
  </outline>
</glyph>
<glyph name="F" format="1">
  <advance width="860"/>
  <unicode hex="0046"/>
  <outline>
    <contour>
      <point x="350" y="0" type="curve"/>
      <point x="350" y="0"/>
      <point x="100" y="0"/>
      <point x="100" y="0" type="curve"/>
      <point x="100" y="0"/>
      <point x="100" y="1400"/>
      <point x="100" y="1400" type="curve"/>
      <point x="100" y="1400"/>
      <point x="810" y="1400"/>
      <point x="810" y="1400" type="curve"/>
      <point x="810" y="1400"/>
      <point x="810" y="1170"/>
      <point x="810" y="1170" type="curve"/>
      <point x="810" y="1170"/>
      <point x="350" y="1170"/>
      <point x="350" y="1170" type="curve"/>
      <point x="350" y="1170"/>
      <point x="350" y="820"/>
      <point x="350" y="820" type="curve"/>
      <point x="350" y="820"/>
      <point x="730" y="820"/>
      <point x="730" y="820" type="curve"/>
      <point x="730" y="820"/>
      <point x="730" y="580"/>
      <point x="730" y="580" type="curve"/>
      <point x="730" y="580"/>
      <point x="350" y="580"/>
      <point x="350" y="580" type="curve"/>
      <point x="350" y="580"/>
      <point x="350" y="0"/>
    </contour>
  </outline>
</glyph>
<glyph name="I" format="1">
  <advance width="450"/>
  <unicode hex="0049"/>
  <outline>
    <contour>
      <point x="100" y="1400" type="curve"/>
      <point x="100" y="1400"/>
      <point x="350" y="1400"/>
      <point x="350" y="1400" type="curve"/>
      <point x="350" y="1400"/>
      <point x="350" y="0"/>
      <point x="350" y="0" type="curve"/>
      <point x="350" y="0"/>
      <point x="100" y="0"/>
      <point x="100" y="0" type="curve"/>
      <point x="100" y="0"/>
      <point x="100" y="1400"/>
    </contour>
  </outline>
</glyph>
<glyph name="K" format="1">
  <advance width="950"/>
  <unicode hex="004B"/>
  <outline>
    <contour>
      <point x="579" y="714" type="curve"/>
      <point x="579" y="714"/>
      <point x="900" y="0"/>
      <point x="900" y="0" type="curve"/>
      <point x="900" y="0"/>
      <point x="640" y="0"/>
      <point x="640" y="0" type="curve"/>
      <point x="640" y="0"/>
      <point x="368" y="603"/>
      <point x="368" y="603" type="curve"/>
      <point x="368" y="603"/>
      <point x="350" y="603"/>
      <point x="350" y="603" type="curve"/>
      <point x="350" y="603"/>
      <point x="350" y="0"/>
      <point x="350" y="0" type="curve"/>
      <point x="350" y="0"/>
      <point x="100" y="0"/>
      <point x="100" y="0" type="curve"/>
      <point x="100" y="0"/>
      <point x="100" y="1400"/>
      <point x="100" y="1400" type="curve"/>
      <point x="100" y="1400"/>
      <point x="350" y="1400"/>
      <point x="350" y="1400" type="curve"/>
      <point x="350" y="1400"/>
      <point x="350" y="813"/>
      <point x="350" y="813" type="curve"/>
      <point x="350" y="813"/>
      <point x="367" y="813"/>
      <point x="367" y="813" type="curve"/>
      <point x="367" y="813"/>
      <point x="620" y="1400"/>
      <point x="620" y="1400" type="curve"/>
      <point x="620" y="1400"/>
      <point x="880" y="1400"/>
      <point x="880" y="1400" type="curve"/>
      <point x="880" y="1400"/>
      <point x="579" y="714"/>
    </contour>
  </outline>
</glyph>
<glyph name="M" format="1">
  <advance width="1320"/>
  <unicode hex="004D"/>
  <outline>
    <contour>
      <point x="860" y="1400" type="curve"/>
      <point x="860" y="1400"/>
      <point x="1220" y="1400"/>
      <point x="1220" y="1400" type="curve"/>
      <point x="1220" y="1400"/>
      <point x="1220" y="0"/>
      <point x="1220" y="0" type="curve"/>
      <point x="1220" y="0"/>
      <point x="1000" y="0"/>
      <point x="1000" y="0" type="curve"/>
      <point x="1000" y="0"/>
      <point x="1000" y="1050"/>
      <point x="1000" y="1050" type="curve"/>
      <point x="1000" y="1050"/>
      <point x="750" y="0"/>
      <point x="750" y="0" type="curve"/>
      <point x="750" y="0"/>
      <point x="570" y="0"/>
      <point x="570" y="0" type="curve"/>
      <point x="570" y="0"/>
      <point x="320" y="1050"/>
      <point x="320" y="1050" type="curve"/>
      <point x="320" y="1050"/>
      <point x="320" y="0"/>
      <point x="320" y="0" type="curve"/>
      <point x="320" y="0"/>
      <point x="100" y="0"/>
      <point x="100" y="0" type="curve"/>
      <point x="100" y="0"/>
      <point x="100" y="1400"/>
      <point x="100" y="1400" type="curve"/>
      <point x="100" y="1400"/>
      <point x="460" y="1400"/>
      <point x="460" y="1400" type="curve"/>
      <point x="460" y="1400"/>
      <point x="660" y="482"/>
      <point x="660" y="482" type="curve"/>
      <point x="660" y="482"/>
      <point x="860" y="1400"/>
    </contour>
  </outline>
</glyph>
<glyph name="P" format="1">
  <advance width="890"/>
  <unicode hex="0050"/>
  <outline>
    <contour>
      <point x="810" y="1260" type="curve" smooth="yes"/>
      <point x="810" y="1260"/>
      <point x="810" y="665"/>
      <point x="810" y="665" type="curve" smooth="yes"/>
      <point x="810" y="585"/>
      <point x="745" y="520"/>
      <point x="665" y="520" type="curve" smooth="yes"/>
      <point x="665" y="520"/>
      <point x="350" y="520"/>
      <point x="350" y="520" type="curve"/>
      <point x="350" y="520"/>
      <point x="350" y="0"/>
      <point x="350" y="0" type="curve"/>
      <point x="350" y="0"/>
      <point x="100" y="0"/>
      <point x="100" y="0" type="curve"/>
      <point x="100" y="0"/>
      <point x="100" y="1400"/>
      <point x="100" y="1400" type="curve"/>
      <point x="100" y="1400"/>
      <point x="670" y="1400"/>
      <point x="670" y="1400" type="curve" smooth="yes"/>
      <point x="747" y="1400"/>
      <point x="810" y="1337"/>
    </contour>
    <contour>
      <point x="350" y="770" type="curve"/>
      <point x="350" y="770"/>
      <point x="560" y="770"/>
      <point x="560" y="770" type="curve"/>
      <point x="560" y="770"/>
      <point x="560" y="1160"/>
      <point x="560" y="1160" type="curve"/>
      <point x="560" y="1160"/>
      <point x="350" y="1160"/>
      <point x="350" y="1160" type="curve"/>
      <point x="350" y="1160"/>
      <point x="350" y="770"/>
    </contour>
  </outline>
</glyph>
<glyph name="R" format="1">
  <advance width="883"/>
  <unicode hex="0052"/>
  <outline>
    <contour>
      <point x="350" y="0" type="curve"/>
      <point x="350" y="0"/>
      <point x="100" y="0"/>
      <point x="100" y="0" type="curve"/>
      <point x="100" y="0"/>
      <point x="100" y="1400"/>
      <point x="100" y="1400" type="curve"/>
      <point x="100" y="1400"/>
      <point x="635" y="1400"/>
      <point x="635" y="1400" type="curve" smooth="yes"/>
      <point x="715" y="1400"/>
      <point x="780" y="1335"/>
      <point x="780" y="1255" type="curve" smooth="yes"/>
      <point x="780" y="1255"/>
      <point x="780" y="745"/>
      <point x="780" y="745" type="curve" smooth="yes"/>
      <point x="780" y="697"/>
      <point x="756" y="652"/>
      <point x="716" y="625" type="curve"/>
      <point x="756" y="598"/>
      <point x="780" y="553"/>
      <point x="780" y="505" type="curve" smooth="yes"/>
      <point x="780" y="505"/>
      <point x="780" y="144"/>
      <point x="780" y="144" type="curve" smooth="yes"/>
      <point x="780" y="91"/>
      <point x="809" y="43"/>
      <point x="855" y="18" type="curve" smooth="yes"/>
      <point x="858" y="16"/>
      <point x="863" y="14"/>
      <point x="863" y="8" type="curve" smooth="yes"/>
      <point x="863" y="2"/>
      <point x="860" y="0"/>
      <point x="855" y="0" type="curve" smooth="yes"/>
      <point x="855" y="0"/>
      <point x="684" y="0"/>
      <point x="684" y="0" type="curve" smooth="yes"/>
      <point x="604" y="0"/>
      <point x="540" y="64"/>
      <point x="540" y="144" type="curve" smooth="yes"/>
      <point x="540" y="144"/>
      <point x="540" y="520"/>
      <point x="540" y="520" type="curve"/>
      <point x="540" y="520"/>
      <point x="350" y="520"/>
      <point x="350" y="520" type="curve"/>
      <point x="350" y="520"/>
      <point x="350" y="0"/>
    </contour>
    <contour>
      <point x="350" y="740" type="curve"/>
      <point x="350" y="740"/>
      <point x="540" y="740"/>
      <point x="540" y="740" type="curve"/>
      <point x="540" y="740"/>
      <point x="540" y="1150"/>
      <point x="540" y="1150" type="curve"/>
      <point x="540" y="1150"/>
      <point x="350" y="1150"/>
      <point x="350" y="1150" type="curve"/>
      <point x="350" y="1150"/>
      <point x="350" y="740"/>
    </contour>
  </outline>
</glyph>
<glyph name="x" format="1">
  <advance width="875"/>
  <unicode hex="0078"/>
  <outline>
    <contour>
      <point x="855" y="1400" type="curve"/>
      <point x="855" y="1400"/>
      <point x="580" y="695"/>
      <point x="580" y="695" type="curve"/>
      <point x="580" y="695"/>
      <point x="865" y="0"/>
      <point x="865" y="0" type="curve"/>
      <point x="865" y="0"/>
      <point x="595" y="0"/>
      <point x="595" y="0" type="curve"/>
      <point x="595" y="0"/>
      <point x="440" y="413"/>
      <point x="440" y="413" type="curve"/>
      <point x="440" y="413"/>
      <point x="280" y="0"/>
      <point x="280" y="0" type="curve"/>
      <point x="280" y="0"/>
      <point x="10" y="0"/>
      <point x="10" y="0" type="curve"/>
      <point x="10" y="0"/>
      <point x="303" y="701"/>
      <point x="303" y="701" type="curve"/>
      <point x="303" y="701"/>
      <point x="20" y="1400"/>
      <point x="20" y="1400" type="curve"/>
      <point x="20" y="1400"/>
      <point x="260" y="1400"/>
      <point x="260" y="1400" type="curve"/>
      <point x="260" y="1400"/>
      <point x="445" y="958"/>
      <point x="445" y="958" type="curve"/>
      <point x="445" y="958"/>
      <point x="615" y="1400"/>
      <point x="615" y="1400" type="curve"/>
      <point x="615" y="1400"/>
      <point x="855" y="1400"/>
    </contour>
  </outline>
</glyph>
<glyph name="bar" format="1">
  <advance width="430"/>
  <unicode hex="007C"/>
  <outline>
    <contour>
      <point x="100" y="1580" type="curve"/>
      <point x="100" y="1580"/>
      <point x="330" y="1580"/>
      <point x="330" y="1580" type="curve"/>
      <point x="330" y="1580"/>
      <point x="330" y="-180"/>
      <point x="330" y="-180" type="curve"/>
      <point x="330" y="-180"/>
      <point x="100" y="-180"/>
      <point x="100" y="-180" type="curve"/>
      <point x="100" y="-180"/>
      <point x="100" y="1580"/>
    </contour>
  </outline>
</glyph>
<glyph name="braceright" format="1">
  <advance width="730"/>
  <unicode hex="007D"/>
  <outline>
    <contour>
      <point x="90" y="1580" type="curve" smooth="yes"/>
      <point x="337" y="1580"/>
      <point x="540" y="1377"/>
      <point x="540" y="1130" type="curve" smooth="yes"/>
      <point x="540" y="1130"/>
      <point x="540" y="838"/>
      <point x="540" y="838" type="curve" smooth="yes"/>
      <point x="540" y="803"/>
      <point x="567" y="775"/>
      <point x="602" y="775" type="curve" smooth="yes"/>
      <point x="602" y="775"/>
      <point x="630" y="775"/>
      <point x="630" y="775" type="curve"/>
      <point x="630" y="775"/>
      <point x="630" y="625"/>
      <point x="630" y="625" type="curve"/>
      <point x="630" y="625"/>
      <point x="602" y="625"/>
      <point x="602" y="625" type="curve" smooth="yes"/>
      <point x="567" y="625"/>
      <point x="540" y="597"/>
      <point x="540" y="562" type="curve" smooth="yes"/>
      <point x="540" y="562"/>
      <point x="540" y="270"/>
      <point x="540" y="270" type="curve" smooth="yes"/>
      <point x="540" y="23"/>
      <point x="337" y="-180"/>
      <point x="90" y="-180" type="curve" smooth="yes"/>
      <point x="90" y="-180"/>
      <point x="10" y="-180"/>
      <point x="10" y="-180" type="curve"/>
      <point x="10" y="-180"/>
      <point x="10" y="0"/>
      <point x="10" y="0" type="curve"/>
      <point x="10" y="0"/>
      <point x="90" y="0"/>
      <point x="90" y="0" type="curve" smooth="yes"/>
      <point x="171" y="0"/>
      <point x="310" y="56"/>
      <point x="310" y="210" type="curve" smooth="yes"/>
      <point x="310" y="210"/>
      <point x="310" y="550"/>
      <point x="310" y="550" type="curve" smooth="yes"/>
      <point x="310" y="617"/>
      <point x="351" y="676"/>
      <point x="414" y="700" type="curve"/>
      <point x="351" y="723"/>
      <point x="310" y="783"/>
      <point x="310" y="850" type="curve" smooth="yes"/>
      <point x="310" y="850"/>
      <point x="310" y="1190"/>
      <point x="310" y="1190" type="curve" smooth="yes"/>
      <point x="310" y="1344"/>
      <point x="171" y="1400"/>
      <point x="90" y="1400" type="curve" smooth="yes"/>
      <point x="90" y="1400"/>
      <point x="10" y="1400"/>
      <point x="10" y="1400" type="curve"/>
      <point x="10" y="1400"/>
      <point x="10" y="1580"/>
      <point x="10" y="1580" type="curve"/>
      <point x="10" y="1580"/>
      <point x="90" y="1580"/>
    </contour>
  </outline>
</glyph>
<glyph name="nbsp" format="1">
  <advance width="580"/>
  <unicode hex="00A0"/>
  <outline>
    <contour>
      <point x="0" y="0" type="move" smooth="yes"/>
    </contour>
  </outline>
</glyph>
<glyph name="currency" format="1">
  <advance width="980"/>
  <unicode hex="00A4"/>
  <outline>
    <contour>
      <point x="580" y="380" type="curve" smooth="yes"/>
      <point x="580" y="380"/>
      <point x="400" y="380"/>
      <point x="400" y="380" type="curve" smooth="yes"/>
      <point x="327" y="380"/>
      <point x="263" y="429"/>
      <point x="245" y="500" type="curve"/>
      <point x="245" y="500"/>
      <point x="100" y="500"/>
      <point x="100" y="500" type="curve"/>
      <point x="100" y="500"/>
      <point x="100" y="640"/>
      <point x="100" y="640" type="curve"/>
      <point x="100" y="640"/>
      <point x="240" y="640"/>
      <point x="240" y="640" type="curve"/>
      <point x="240" y="640"/>
      <point x="240" y="760"/>
      <point x="240" y="760" type="curve"/>
      <point x="240" y="760"/>
      <point x="100" y="760"/>
      <point x="100" y="760" type="curve"/>
      <point x="100" y="760"/>
      <point x="100" y="900"/>
      <point x="100" y="900" type="curve"/>
      <point x="100" y="900"/>
      <point x="245" y="900"/>
      <point x="245" y="900" type="curve"/>
      <point x="263" y="971"/>
      <point x="327" y="1020"/>
      <point x="400" y="1020" type="curve" smooth="yes"/>
      <point x="400" y="1020"/>
      <point x="580" y="1020"/>
      <point x="580" y="1020" type="curve" smooth="yes"/>
      <point x="653" y="1020"/>
      <point x="717" y="971"/>
      <point x="735" y="900" type="curve"/>
      <point x="735" y="900"/>
      <point x="880" y="900"/>
      <point x="880" y="900" type="curve"/>
      <point x="880" y="900"/>
      <point x="880" y="760"/>
      <point x="880" y="760" type="curve"/>
      <point x="880" y="760"/>
      <point x="740" y="760"/>
      <point x="740" y="760" type="curve"/>
      <point x="740" y="760"/>
      <point x="740" y="640"/>
      <point x="740" y="640" type="curve"/>
      <point x="740" y="640"/>
      <point x="880" y="640"/>
      <point x="880" y="640" type="curve"/>
      <point x="880" y="640"/>
      <point x="880" y="500"/>
      <point x="880" y="500" type="curve"/>
      <point x="880" y="500"/>
      <point x="735" y="500"/>
      <point x="735" y="500" type="curve"/>
      <point x="717" y="429"/>
      <point x="653" y="380"/>
    </contour>
    <contour>
      <point x="400" y="540" type="curve"/>
      <point x="400" y="540"/>
      <point x="580" y="540"/>
      <point x="580" y="540" type="curve"/>
      <point x="580" y="540"/>
      <point x="580" y="860"/>
      <point x="580" y="860" type="curve"/>
      <point x="580" y="860"/>
      <point x="400" y="860"/>
      <point x="400" y="860" type="curve"/>
      <point x="400" y="860"/>
      <point x="400" y="540"/>
    </contour>
  </outline>
</glyph>
<glyph name="yen" format="1">
  <advance width="1000"/>
  <unicode hex="00A5"/>
  <outline>
    <contour>
      <point x="640" y="1400" type="curve"/>
      <point x="640" y="1400"/>
      <point x="900" y="1400"/>
      <point x="900" y="1400" type="curve"/>
      <point x="900" y="1400"/>
      <point x="684" y="699"/>
      <point x="684" y="699" type="curve"/>
      <point x="684" y="699"/>
      <point x="900" y="699"/>
      <point x="900" y="699" type="curve"/>
      <point x="900" y="699"/>
      <point x="900" y="499"/>
      <point x="900" y="499" type="curve"/>
      <point x="900" y="499"/>
      <point x="625" y="499"/>
      <point x="625" y="499" type="curve"/>
      <point x="625" y="499"/>
      <point x="625" y="399"/>
      <point x="625" y="399" type="curve"/>
      <point x="625" y="399"/>
      <point x="900" y="399"/>
      <point x="900" y="399" type="curve"/>
      <point x="900" y="399"/>
      <point x="900" y="199"/>
      <point x="900" y="199" type="curve"/>
      <point x="900" y="199"/>
      <point x="625" y="199"/>
      <point x="625" y="199" type="curve"/>
      <point x="625" y="199"/>
      <point x="625" y="0"/>
      <point x="625" y="0" type="curve"/>
      <point x="625" y="0"/>
      <point x="375" y="0"/>
      <point x="375" y="0" type="curve"/>
      <point x="375" y="0"/>
      <point x="375" y="199"/>
      <point x="375" y="199" type="curve"/>
      <point x="375" y="199"/>
      <point x="100" y="199"/>
      <point x="100" y="199" type="curve"/>
      <point x="100" y="199"/>
      <point x="100" y="399"/>
      <point x="100" y="399" type="curve"/>
      <point x="100" y="399"/>
      <point x="375" y="399"/>
      <point x="375" y="399" type="curve"/>
      <point x="375" y="399"/>
      <point x="375" y="499"/>
      <point x="375" y="499" type="curve"/>
      <point x="375" y="499"/>
      <point x="100" y="499"/>
      <point x="100" y="499" type="curve"/>
      <point x="100" y="499"/>
      <point x="100" y="699"/>
      <point x="100" y="699" type="curve"/>
      <point x="100" y="699"/>
      <point x="316" y="699"/>
      <point x="316" y="699" type="curve"/>
      <point x="316" y="699"/>
      <point x="100" y="1400"/>
      <point x="100" y="1400" type="curve"/>
      <point x="100" y="1400"/>
      <point x="350" y="1400"/>
      <point x="350" y="1400" type="curve"/>
      <point x="350" y="1400"/>
      <point x="500" y="790"/>
      <point x="500" y="790" type="curve"/>
      <point x="500" y="790"/>
      <point x="640" y="1400"/>
    </contour>
  </outline>
</glyph>
<glyph name="section" format="1">
  <advance width="930"/>
  <unicode hex="00A7"/>
  <outline>
    <contour>
      <point x="830" y="1244" type="curve" smooth="yes"/>
      <point x="830" y="1242"/>
      <point x="830" y="1019"/>
      <point x="830" y="1019" type="curve"/>
      <point x="830" y="1019"/>
      <point x="620" y="1019"/>
      <point x="620" y="1019" type="curve"/>
      <point x="620" y="1019"/>
      <point x="620" y="1126"/>
      <point x="620" y="1126" type="curve" smooth="yes"/>
      <point x="620" y="1161"/>
      <point x="592" y="1189"/>
      <point x="557" y="1189" type="curve" smooth="yes"/>
      <point x="557" y="1189"/>
      <point x="382" y="1189"/>
      <point x="382" y="1189" type="curve" smooth="yes"/>
      <point x="347" y="1189"/>
      <point x="320" y="1161"/>
      <point x="320" y="1126" type="curve" smooth="yes"/>
      <point x="320" y="1126"/>
      <point x="320" y="1046"/>
      <point x="320" y="1046" type="curve"/>
      <point x="320" y="1046"/>
      <point x="748" y="889"/>
      <point x="748" y="889" type="curve"/>
      <point x="798" y="878"/>
      <point x="830" y="834"/>
      <point x="830" y="787" type="curve" smooth="yes"/>
      <point x="830" y="774"/>
      <point x="828" y="762"/>
      <point x="823" y="749" type="curve" smooth="yes"/>
      <point x="823" y="749"/>
      <point x="743" y="529"/>
      <point x="743" y="529" type="curve"/>
      <point x="796" y="503"/>
      <point x="830" y="449"/>
      <point x="830" y="390" type="curve" smooth="yes"/>
      <point x="830" y="390"/>
      <point x="830" y="155"/>
      <point x="830" y="155" type="curve" smooth="yes"/>
      <point x="830" y="69"/>
      <point x="761" y="0"/>
      <point x="675" y="0" type="curve" smooth="yes"/>
      <point x="673" y="0"/>
      <point x="257" y="0"/>
      <point x="255" y="0" type="curve" smooth="yes"/>
      <point x="169" y="0"/>
      <point x="100" y="69"/>
      <point x="100" y="155" type="curve" smooth="yes"/>
      <point x="100" y="157"/>
      <point x="100" y="380"/>
      <point x="100" y="380" type="curve"/>
      <point x="100" y="380"/>
      <point x="310" y="380"/>
      <point x="310" y="380" type="curve"/>
      <point x="310" y="380"/>
      <point x="310" y="273"/>
      <point x="310" y="273" type="curve" smooth="yes"/>
      <point x="310" y="238"/>
      <point x="338" y="210"/>
      <point x="373" y="210" type="curve" smooth="yes"/>
      <point x="373" y="210"/>
      <point x="548" y="210"/>
      <point x="548" y="210" type="curve" smooth="yes"/>
      <point x="583" y="210"/>
      <point x="610" y="238"/>
      <point x="610" y="273" type="curve" smooth="yes"/>
      <point x="610" y="273"/>
      <point x="610" y="353"/>
      <point x="610" y="353" type="curve"/>
      <point x="610" y="353"/>
      <point x="182" y="510"/>
      <point x="182" y="510" type="curve"/>
      <point x="132" y="521"/>
      <point x="100" y="565"/>
      <point x="100" y="612" type="curve" smooth="yes"/>
      <point x="100" y="625"/>
      <point x="102" y="637"/>
      <point x="107" y="650" type="curve" smooth="yes"/>
      <point x="107" y="650"/>
      <point x="187" y="870"/>
      <point x="187" y="870" type="curve"/>
      <point x="134" y="896"/>
      <point x="100" y="950"/>
      <point x="100" y="1009" type="curve" smooth="yes"/>
      <point x="100" y="1009"/>
      <point x="100" y="1244"/>
      <point x="100" y="1244" type="curve" smooth="yes"/>
      <point x="100" y="1330"/>
      <point x="169" y="1399"/>
      <point x="255" y="1399" type="curve" smooth="yes"/>
      <point x="257" y="1399"/>
      <point x="675" y="1399"/>
      <point x="675" y="1399" type="curve" smooth="yes"/>
      <point x="761" y="1399"/>
      <point x="830" y="1330"/>
    </contour>
    <contour>
      <point x="572" y="672" type="curve" smooth="yes"/>
      <point x="573" y="677"/>
      <point x="574" y="682"/>
      <point x="574" y="687" type="curve" smooth="yes"/>
      <point x="574" y="711"/>
      <point x="560" y="733"/>
      <point x="538" y="744" type="curve" smooth="yes"/>
      <point x="538" y="744"/>
      <point x="385" y="799"/>
      <point x="385" y="799" type="curve"/>
      <point x="385" y="799"/>
      <point x="358" y="727"/>
      <point x="358" y="727" type="curve" smooth="yes"/>
      <point x="357" y="722"/>
      <point x="356" y="717"/>
      <point x="356" y="712" type="curve" smooth="yes"/>
      <point x="356" y="688"/>
      <point x="370" y="666"/>
      <point x="392" y="655" type="curve" smooth="yes"/>
      <point x="392" y="655"/>
      <point x="545" y="600"/>
      <point x="545" y="600" type="curve"/>
      <point x="545" y="600"/>
      <point x="572" y="672"/>
    </contour>
  </outline>
</glyph>
<glyph name="dieresis" format="1">
  <advance width="800"/>
  <unicode hex="00A8"/>
  <outline>
    <contour>
      <point x="100" y="1720" type="curve"/>
      <point x="100" y="1720"/>
      <point x="330" y="1720"/>
      <point x="330" y="1720" type="curve"/>
      <point x="330" y="1720"/>
      <point x="330" y="1490"/>
      <point x="330" y="1490" type="curve"/>
      <point x="330" y="1490"/>
      <point x="100" y="1490"/>
      <point x="100" y="1490" type="curve"/>
      <point x="100" y="1490"/>
      <point x="100" y="1720"/>
    </contour>
    <contour>
      <point x="470" y="1720" type="curve"/>
      <point x="470" y="1720"/>
      <point x="700" y="1720"/>
      <point x="700" y="1720" type="curve"/>
      <point x="700" y="1720"/>
      <point x="700" y="1490"/>
      <point x="700" y="1490" type="curve"/>
      <point x="700" y="1490"/>
      <point x="470" y="1490"/>
      <point x="470" y="1490" type="curve"/>
      <point x="470" y="1490"/>
      <point x="470" y="1720"/>
    </contour>
  </outline>
</glyph>
<glyph name="copyright" format="1">
  <advance width="1330"/>
  <unicode hex="00A9"/>
  <outline>
    <contour>
      <point x="100" y="460" type="curve" smooth="yes"/>
      <point x="100" y="460"/>
      <point x="100" y="940"/>
      <point x="100" y="940" type="curve" smooth="yes"/>
      <point x="100" y="1165"/>
      <point x="275" y="1340"/>
      <point x="500" y="1340" type="curve" smooth="yes"/>
      <point x="500" y="1340"/>
      <point x="830" y="1340"/>
      <point x="830" y="1340" type="curve" smooth="yes"/>
      <point x="1052" y="1340"/>
      <point x="1225" y="1170"/>
      <point x="1230" y="950" type="curve"/>
      <point x="1230" y="950"/>
      <point x="1230" y="460"/>
      <point x="1230" y="460" type="curve" smooth="yes"/>
      <point x="1230" y="235"/>
      <point x="1055" y="60"/>
      <point x="830" y="60" type="curve" smooth="yes"/>
      <point x="830" y="60"/>
      <point x="500" y="60"/>
      <point x="500" y="60" type="curve" smooth="yes"/>
      <point x="275" y="60"/>
      <point x="100" y="235"/>
    </contour>
    <contour>
      <point x="260" y="460" type="curve" smooth="yes"/>
      <point x="260" y="325"/>
      <point x="365" y="220"/>
      <point x="500" y="220" type="curve" smooth="yes"/>
      <point x="500" y="220"/>
      <point x="830" y="220"/>
      <point x="830" y="220" type="curve" smooth="yes"/>
      <point x="965" y="220"/>
      <point x="1070" y="325"/>
      <point x="1070" y="460" type="curve" smooth="yes"/>
      <point x="1070" y="460"/>
      <point x="1070" y="940"/>
      <point x="1070" y="940" type="curve" smooth="yes"/>
      <point x="1070" y="1075"/>
      <point x="965" y="1180"/>
      <point x="830" y="1180" type="curve" smooth="yes"/>
      <point x="830" y="1180"/>
      <point x="500" y="1180"/>
      <point x="500" y="1180" type="curve" smooth="yes"/>
      <point x="365" y="1180"/>
      <point x="260" y="1075"/>
      <point x="260" y="940" type="curve" smooth="yes"/>
      <point x="260" y="940"/>
      <point x="260" y="460"/>
    </contour>
    <contour>
      <point x="420" y="540" type="curve" smooth="yes"/>
      <point x="420" y="540"/>
      <point x="420" y="860"/>
      <point x="420" y="860" type="curve" smooth="yes"/>
      <point x="420" y="948"/>
      <point x="492" y="1020"/>
      <point x="580" y="1020" type="curve" smooth="yes"/>
      <point x="580" y="1020"/>
      <point x="750" y="1020"/>
      <point x="750" y="1020" type="curve" smooth="yes"/>
      <point x="838" y="1020"/>
      <point x="910" y="948"/>
      <point x="910" y="860" type="curve" smooth="yes"/>
      <point x="910" y="860"/>
      <point x="910" y="800"/>
      <point x="910" y="800" type="curve"/>
      <point x="910" y="800"/>
      <point x="750" y="800"/>
      <point x="750" y="800" type="curve"/>
      <point x="750" y="800"/>
      <point x="750" y="860"/>
      <point x="750" y="860" type="curve"/>
      <point x="750" y="860"/>
      <point x="580" y="860"/>
      <point x="580" y="860" type="curve"/>
      <point x="580" y="860"/>
      <point x="580" y="540"/>
      <point x="580" y="540" type="curve"/>
      <point x="580" y="540"/>
      <point x="750" y="540"/>
      <point x="750" y="540" type="curve"/>
      <point x="750" y="540"/>
      <point x="750" y="600"/>
      <point x="750" y="600" type="curve"/>
      <point x="750" y="600"/>
      <point x="910" y="600"/>
      <point x="910" y="600" type="curve"/>
      <point x="910" y="600"/>
      <point x="910" y="540"/>
      <point x="910" y="540" type="curve" smooth="yes"/>
      <point x="910" y="452"/>
      <point x="838" y="380"/>
      <point x="750" y="380" type="curve" smooth="yes"/>
      <point x="750" y="380"/>
      <point x="580" y="380"/>
      <point x="580" y="380" type="curve" smooth="yes"/>
      <point x="492" y="380"/>
      <point x="420" y="452"/>
    </contour>
  </outline>
</glyph>
<glyph name="registered" format="1">
  <advance width="1330"/>
  <unicode hex="00AE"/>
  <outline>
    <contour>
      <point x="500" y="1340" type="curve" smooth="yes"/>
      <point x="500" y="1340"/>
      <point x="830" y="1340"/>
      <point x="830" y="1340" type="curve" smooth="yes"/>
      <point x="1052" y="1340"/>
      <point x="1225" y="1170"/>
      <point x="1230" y="950" type="curve"/>
      <point x="1230" y="950"/>
      <point x="1230" y="460"/>
      <point x="1230" y="460" type="curve" smooth="yes"/>
      <point x="1230" y="235"/>
      <point x="1055" y="60"/>
      <point x="830" y="60" type="curve" smooth="yes"/>
      <point x="830" y="60"/>
      <point x="500" y="60"/>
      <point x="500" y="60" type="curve" smooth="yes"/>
      <point x="275" y="60"/>
      <point x="100" y="235"/>
      <point x="100" y="460" type="curve" smooth="yes"/>
      <point x="100" y="460"/>
      <point x="100" y="940"/>
      <point x="100" y="940" type="curve" smooth="yes"/>
      <point x="100" y="1165"/>
      <point x="275" y="1340"/>
    </contour>
    <contour>
      <point x="500" y="1180" type="curve" smooth="yes"/>
      <point x="365" y="1180"/>
      <point x="260" y="1075"/>
      <point x="260" y="940" type="curve" smooth="yes"/>
      <point x="260" y="940"/>
      <point x="260" y="460"/>
      <point x="260" y="460" type="curve" smooth="yes"/>
      <point x="260" y="325"/>
      <point x="365" y="220"/>
      <point x="500" y="220" type="curve" smooth="yes"/>
      <point x="500" y="220"/>
      <point x="830" y="220"/>
      <point x="830" y="220" type="curve" smooth="yes"/>
      <point x="965" y="220"/>
      <point x="1070" y="325"/>
      <point x="1070" y="460" type="curve" smooth="yes"/>
      <point x="1070" y="460"/>
      <point x="1070" y="940"/>
      <point x="1070" y="940" type="curve" smooth="yes"/>
      <point x="1070" y="1075"/>
      <point x="965" y="1180"/>
      <point x="830" y="1180" type="curve" smooth="yes"/>
      <point x="830" y="1180"/>
      <point x="500" y="1180"/>
    </contour>
    <contour>
      <point x="580" y="380" type="curve"/>
      <point x="580" y="380"/>
      <point x="420" y="380"/>
      <point x="420" y="380" type="curve"/>
      <point x="420" y="380"/>
      <point x="420" y="1020"/>
      <point x="420" y="1020" type="curve"/>
      <point x="420" y="1020"/>
      <point x="750" y="1020"/>
      <point x="750" y="1020" type="curve" smooth="yes"/>
      <point x="838" y="1020"/>
      <point x="910" y="948"/>
      <point x="910" y="860" type="curve" smooth="yes"/>
      <point x="910" y="860"/>
      <point x="910" y="740"/>
      <point x="910" y="740" type="curve" smooth="yes"/>
      <point x="910" y="684"/>
      <point x="881" y="633"/>
      <point x="834" y="604" type="curve"/>
      <point x="834" y="604"/>
      <point x="925" y="380"/>
      <point x="925" y="380" type="curve"/>
      <point x="925" y="380"/>
      <point x="765" y="380"/>
      <point x="765" y="380" type="curve"/>
      <point x="765" y="380"/>
      <point x="691" y="580"/>
      <point x="691" y="580" type="curve"/>
      <point x="691" y="580"/>
      <point x="580" y="580"/>
      <point x="580" y="580" type="curve"/>
      <point x="580" y="580"/>
      <point x="580" y="380"/>
    </contour>
    <contour>
      <point x="580" y="860" type="curve"/>
      <point x="580" y="860"/>
      <point x="580" y="740"/>
      <point x="580" y="740" type="curve"/>
      <point x="580" y="740"/>
      <point x="750" y="740"/>
      <point x="750" y="740" type="curve"/>
      <point x="750" y="740"/>
      <point x="750" y="860"/>
      <point x="750" y="860" type="curve"/>
      <point x="750" y="860"/>
      <point x="580" y="860"/>
    </contour>
  </outline>
</glyph>
<glyph name="uni00B2" format="1">
  <advance width="520"/>
  <unicode hex="00B2"/>
  <outline>
    <contour>
      <point x="420" y="1260" type="curve" smooth="yes"/>
      <point x="420" y="1168"/>
      <point x="274" y="1059"/>
      <point x="232" y="960" type="curve"/>
      <point x="232" y="960"/>
      <point x="420" y="960"/>
      <point x="420" y="960" type="curve"/>
      <point x="420" y="960"/>
      <point x="420" y="850"/>
      <point x="420" y="850" type="curve"/>
      <point x="420" y="850"/>
      <point x="100" y="850"/>
      <point x="100" y="850" type="curve"/>
      <point x="100" y="850"/>
      <point x="100" y="900"/>
      <point x="100" y="900" type="curve" smooth="yes"/>
      <point x="100" y="1042"/>
      <point x="324" y="1198"/>
      <point x="324" y="1280" type="curve" smooth="yes"/>
      <point x="324" y="1286"/>
      <point x="324" y="1307"/>
      <point x="324" y="1325" type="curve" smooth="yes"/>
      <point x="323" y="1339"/>
      <point x="311" y="1350"/>
      <point x="297" y="1350" type="curve" smooth="yes"/>
      <point x="297" y="1350"/>
      <point x="235" y="1350"/>
      <point x="235" y="1350" type="curve" smooth="yes"/>
      <point x="220" y="1350"/>
      <point x="208" y="1338"/>
      <point x="208" y="1323" type="curve" smooth="yes"/>
      <point x="208" y="1323"/>
      <point x="208" y="1280"/>
      <point x="208" y="1280" type="curve"/>
      <point x="208" y="1280"/>
      <point x="108" y="1280"/>
      <point x="108" y="1280" type="curve"/>
      <point x="108" y="1280"/>
      <point x="108" y="1380"/>
      <point x="108" y="1380" type="curve" smooth="yes"/>
      <point x="108" y="1419"/>
      <point x="139" y="1450"/>
      <point x="178" y="1450" type="curve" smooth="yes"/>
      <point x="178" y="1450"/>
      <point x="350" y="1450"/>
      <point x="350" y="1450" type="curve" smooth="yes"/>
      <point x="389" y="1450"/>
      <point x="420" y="1419"/>
      <point x="420" y="1380" type="curve" smooth="yes"/>
      <point x="420" y="1380"/>
      <point x="420" y="1260"/>
    </contour>
  </outline>
</glyph>
<glyph name="uni00B3" format="1">
  <advance width="520"/>
  <unicode hex="00B3"/>
  <outline>
    <contour>
      <point x="350" y="1450" type="curve" smooth="yes"/>
      <point x="389" y="1450"/>
      <point x="420" y="1419"/>
      <point x="420" y="1380" type="curve" smooth="yes"/>
      <point x="420" y="1380"/>
      <point x="420" y="1220"/>
      <point x="420" y="1220" type="curve" smooth="yes"/>
      <point x="420" y="1193"/>
      <point x="404" y="1168"/>
      <point x="380" y="1157" type="curve"/>
      <point x="380" y="1157"/>
      <point x="380" y="1143"/>
      <point x="380" y="1143" type="curve"/>
      <point x="404" y="1132"/>
      <point x="420" y="1107"/>
      <point x="420" y="1080" type="curve" smooth="yes"/>
      <point x="420" y="1080"/>
      <point x="420" y="920"/>
      <point x="420" y="920" type="curve" smooth="yes"/>
      <point x="420" y="881"/>
      <point x="389" y="850"/>
      <point x="350" y="850" type="curve" smooth="yes"/>
      <point x="350" y="850"/>
      <point x="170" y="850"/>
      <point x="170" y="850" type="curve" smooth="yes"/>
      <point x="131" y="850"/>
      <point x="100" y="881"/>
      <point x="100" y="920" type="curve" smooth="yes"/>
      <point x="100" y="920"/>
      <point x="100" y="1020"/>
      <point x="100" y="1020" type="curve"/>
      <point x="100" y="1020"/>
      <point x="200" y="1020"/>
      <point x="200" y="1020" type="curve"/>
      <point x="200" y="1020"/>
      <point x="200" y="977"/>
      <point x="200" y="977" type="curve" smooth="yes"/>
      <point x="200" y="962"/>
      <point x="212" y="950"/>
      <point x="227" y="950" type="curve" smooth="yes"/>
      <point x="227" y="950"/>
      <point x="293" y="950"/>
      <point x="293" y="950" type="curve" smooth="yes"/>
      <point x="308" y="950"/>
      <point x="320" y="962"/>
      <point x="320" y="977" type="curve" smooth="yes"/>
      <point x="320" y="977"/>
      <point x="320" y="1073"/>
      <point x="320" y="1073" type="curve" smooth="yes"/>
      <point x="320" y="1088"/>
      <point x="308" y="1100"/>
      <point x="293" y="1100" type="curve" smooth="yes"/>
      <point x="293" y="1100"/>
      <point x="220" y="1100"/>
      <point x="220" y="1100" type="curve"/>
      <point x="220" y="1100"/>
      <point x="220" y="1200"/>
      <point x="220" y="1200" type="curve"/>
      <point x="220" y="1200"/>
      <point x="293" y="1200"/>
      <point x="293" y="1200" type="curve" smooth="yes"/>
      <point x="308" y="1200"/>
      <point x="320" y="1212"/>
      <point x="320" y="1227" type="curve" smooth="yes"/>
      <point x="320" y="1227"/>
      <point x="320" y="1323"/>
      <point x="320" y="1323" type="curve" smooth="yes"/>
      <point x="320" y="1338"/>
      <point x="308" y="1350"/>
      <point x="293" y="1350" type="curve" smooth="yes"/>
      <point x="293" y="1350"/>
      <point x="227" y="1350"/>
      <point x="227" y="1350" type="curve" smooth="yes"/>
      <point x="212" y="1350"/>
      <point x="200" y="1338"/>
      <point x="200" y="1323" type="curve" smooth="yes"/>
      <point x="200" y="1323"/>
      <point x="200" y="1280"/>
      <point x="200" y="1280" type="curve"/>
      <point x="200" y="1280"/>
      <point x="100" y="1280"/>
      <point x="100" y="1280" type="curve"/>
      <point x="100" y="1280"/>
      <point x="100" y="1380"/>
      <point x="100" y="1380" type="curve" smooth="yes"/>
      <point x="100" y="1419"/>
      <point x="131" y="1450"/>
      <point x="170" y="1450" type="curve" smooth="yes"/>
      <point x="170" y="1450"/>
      <point x="350" y="1450"/>
    </contour>
  </outline>
</glyph>
<glyph name="mu" format="1">
  <advance width="843"/>
  <unicode hex="00B5"/>
  <outline>
    <contour>
      <point x="260" y="640" type="curve"/>
      <point x="260" y="640"/>
      <point x="260" y="223"/>
      <point x="260" y="223" type="curve" smooth="yes"/>
      <point x="260" y="188"/>
      <point x="288" y="160"/>
      <point x="323" y="160" type="curve" smooth="yes"/>
      <point x="323" y="160"/>
      <point x="458" y="160"/>
      <point x="458" y="160" type="curve" smooth="yes"/>
      <point x="493" y="160"/>
      <point x="520" y="188"/>
      <point x="520" y="223" type="curve" smooth="yes"/>
      <point x="520" y="223"/>
      <point x="520" y="640"/>
      <point x="520" y="640" type="curve"/>
      <point x="520" y="640"/>
      <point x="680" y="640"/>
      <point x="680" y="640" type="curve"/>
      <point x="680" y="640"/>
      <point x="680" y="223"/>
      <point x="680" y="223" type="curve" smooth="yes"/>
      <point x="680" y="188"/>
      <point x="708" y="160"/>
      <point x="743" y="160" type="curve"/>
      <point x="743" y="160"/>
      <point x="743" y="0"/>
      <point x="743" y="0" type="curve"/>
      <point x="743" y="0"/>
      <point x="680" y="0"/>
      <point x="680" y="0" type="curve" smooth="yes"/>
      <point x="622" y="0"/>
      <point x="568" y="32"/>
      <point x="540" y="83" type="curve"/>
      <point x="512" y="32"/>
      <point x="458" y="0"/>
      <point x="400" y="0" type="curve" smooth="yes"/>
      <point x="400" y="0"/>
      <point x="260" y="0"/>
      <point x="260" y="0" type="curve"/>
      <point x="260" y="0"/>
      <point x="260" y="-300"/>
      <point x="260" y="-300" type="curve"/>
      <point x="260" y="-300"/>
      <point x="100" y="-300"/>
      <point x="100" y="-300" type="curve"/>
      <point x="100" y="-300"/>
      <point x="100" y="640"/>
      <point x="100" y="640" type="curve"/>
      <point x="100" y="640"/>
      <point x="260" y="640"/>
    </contour>
  </outline>
</glyph>
<glyph name="paragraph" format="1">
  <advance width="1080"/>
  <unicode hex="00B6"/>
  <outline>
    <contour>
      <point x="450" y="0" type="curve"/>
      <point x="450" y="0"/>
      <point x="450" y="750"/>
      <point x="450" y="750" type="curve"/>
      <point x="450" y="750"/>
      <point x="240" y="750"/>
      <point x="240" y="750" type="curve" smooth="yes"/>
      <point x="162" y="753"/>
      <point x="100" y="817"/>
      <point x="100" y="895" type="curve" smooth="yes"/>
      <point x="100" y="895"/>
      <point x="100" y="1260"/>
      <point x="100" y="1260" type="curve" smooth="yes"/>
      <point x="100" y="1337"/>
      <point x="163" y="1400"/>
      <point x="240" y="1400" type="curve" smooth="yes"/>
      <point x="240" y="1400"/>
      <point x="980" y="1400"/>
      <point x="980" y="1400" type="curve"/>
      <point x="980" y="1400"/>
      <point x="980" y="0"/>
      <point x="980" y="0" type="curve"/>
      <point x="980" y="0"/>
      <point x="780" y="0"/>
      <point x="780" y="0" type="curve"/>
      <point x="780" y="0"/>
      <point x="780" y="1200"/>
      <point x="780" y="1200" type="curve"/>
      <point x="780" y="1200"/>
      <point x="650" y="1200"/>
      <point x="650" y="1200" type="curve"/>
      <point x="650" y="1200"/>
      <point x="650" y="0"/>
      <point x="650" y="0" type="curve"/>
      <point x="650" y="0"/>
      <point x="450" y="0"/>
    </contour>
  </outline>
</glyph>
<glyph name="ordmasculine" format="1">
  <advance width="660"/>
  <unicode hex="00BA"/>
  <outline>
    <contour>
      <point x="100" y="1169" type="curve" smooth="yes"/>
      <point x="100" y="1169"/>
      <point x="100" y="1220"/>
      <point x="100" y="1220" type="curve" smooth="yes"/>
      <point x="100" y="1347"/>
      <point x="203" y="1450"/>
      <point x="330" y="1450" type="curve" smooth="yes"/>
      <point x="457" y="1450"/>
      <point x="560" y="1347"/>
      <point x="560" y="1220" type="curve" smooth="yes"/>
      <point x="560" y="1220"/>
      <point x="560" y="1169"/>
      <point x="560" y="1169" type="curve" smooth="yes"/>
      <point x="560" y="1042"/>
      <point x="457" y="940"/>
      <point x="330" y="940" type="curve" smooth="yes"/>
      <point x="203" y="940"/>
      <point x="100" y="1042"/>
    </contour>
    <contour>
      <point x="259" y="1184" type="curve" smooth="yes"/>
      <point x="259" y="1131"/>
      <point x="291" y="1089"/>
      <point x="330" y="1089" type="curve" smooth="yes"/>
      <point x="369" y="1089"/>
      <point x="401" y="1131"/>
      <point x="401" y="1184" type="curve" smooth="yes"/>
      <point x="401" y="1184"/>
      <point x="401" y="1206"/>
      <point x="401" y="1206" type="curve" smooth="yes"/>
      <point x="401" y="1259"/>
      <point x="369" y="1300"/>
      <point x="330" y="1300" type="curve" smooth="yes"/>
      <point x="291" y="1300"/>
      <point x="259" y="1259"/>
      <point x="259" y="1206" type="curve" smooth="yes"/>
      <point x="259" y="1206"/>
      <point x="259" y="1184"/>
    </contour>
  </outline>
</glyph>
<glyph name="onequarter" format="1">
  <advance width="970"/>
  <unicode hex="00BC"/>
  <outline>
    <contour>
      <point x="230" y="1400" type="curve"/>
      <point x="230" y="1400"/>
      <point x="323" y="1400"/>
      <point x="323" y="1400" type="curve"/>
      <point x="323" y="1400"/>
      <point x="323" y="800"/>
      <point x="323" y="800" type="curve"/>
      <point x="323" y="800"/>
      <point x="220" y="800"/>
      <point x="220" y="800" type="curve"/>
      <point x="220" y="800"/>
      <point x="220" y="1255"/>
      <point x="220" y="1255" type="curve"/>
      <point x="220" y="1255"/>
      <point x="193" y="1228"/>
      <point x="143" y="1228" type="curve"/>
      <point x="143" y="1228"/>
      <point x="143" y="1345"/>
      <point x="143" y="1345" type="curve"/>
      <point x="195" y="1347"/>
      <point x="230" y="1400"/>
    </contour>
    <contour>
      <point x="685" y="0" type="curve"/>
      <point x="685" y="0"/>
      <point x="685" y="120"/>
      <point x="685" y="120" type="curve"/>
      <point x="685" y="120"/>
      <point x="485" y="120"/>
      <point x="485" y="120" type="curve"/>
      <point x="485" y="120"/>
      <point x="485" y="195"/>
      <point x="485" y="195" type="curve"/>
      <point x="485" y="195"/>
      <point x="665" y="600"/>
      <point x="665" y="600" type="curve"/>
      <point x="665" y="600"/>
      <point x="785" y="600"/>
      <point x="785" y="600" type="curve"/>
      <point x="785" y="600"/>
      <point x="785" y="210"/>
      <point x="785" y="210" type="curve"/>
      <point x="785" y="210"/>
      <point x="805" y="210"/>
      <point x="805" y="210" type="curve"/>
      <point x="805" y="210"/>
      <point x="805" y="120"/>
      <point x="805" y="120" type="curve"/>
      <point x="805" y="120"/>
      <point x="785" y="120"/>
      <point x="785" y="120" type="curve"/>
      <point x="785" y="120"/>
      <point x="785" y="0"/>
      <point x="785" y="0" type="curve"/>
      <point x="785" y="0"/>
      <point x="685" y="0"/>
    </contour>
    <contour>
      <point x="685" y="210" type="curve"/>
      <point x="685" y="210"/>
      <point x="685" y="438"/>
      <point x="685" y="438" type="curve"/>
      <point x="685" y="438"/>
      <point x="587" y="210"/>
      <point x="587" y="210" type="curve"/>
      <point x="587" y="210"/>
      <point x="685" y="210"/>
    </contour>
    <contour>
      <point x="870" y="1400" type="curve"/>
      <point x="870" y="1400"/>
      <point x="250" y="0"/>
      <point x="250" y="0" type="curve"/>
      <point x="250" y="0"/>
      <point x="100" y="0"/>
      <point x="100" y="0" type="curve"/>
      <point x="100" y="0"/>
      <point x="720" y="1400"/>
      <point x="720" y="1400" type="curve"/>
      <point x="720" y="1400"/>
      <point x="870" y="1400"/>
    </contour>
  </outline>
</glyph>
<glyph name="onehalf" format="1">
  <advance width="970"/>
  <unicode hex="00BD"/>
  <outline>
    <contour>
      <point x="550" y="0" type="curve"/>
      <point x="550" y="0"/>
      <point x="550" y="50"/>
      <point x="550" y="50" type="curve" smooth="yes"/>
      <point x="550" y="192"/>
      <point x="774" y="348"/>
      <point x="774" y="430" type="curve" smooth="yes"/>
      <point x="774" y="436"/>
      <point x="774" y="457"/>
      <point x="774" y="475" type="curve" smooth="yes"/>
      <point x="773" y="489"/>
      <point x="761" y="500"/>
      <point x="747" y="500" type="curve" smooth="yes"/>
      <point x="747" y="500"/>
      <point x="685" y="500"/>
      <point x="685" y="500" type="curve" smooth="yes"/>
      <point x="670" y="500"/>
      <point x="658" y="488"/>
      <point x="658" y="473" type="curve" smooth="yes"/>
      <point x="658" y="473"/>
      <point x="658" y="430"/>
      <point x="658" y="430" type="curve"/>
      <point x="658" y="430"/>
      <point x="558" y="430"/>
      <point x="558" y="430" type="curve"/>
      <point x="558" y="430"/>
      <point x="558" y="530"/>
      <point x="558" y="530" type="curve" smooth="yes"/>
      <point x="558" y="569"/>
      <point x="589" y="600"/>
      <point x="628" y="600" type="curve" smooth="yes"/>
      <point x="628" y="600"/>
      <point x="800" y="600"/>
      <point x="800" y="600" type="curve" smooth="yes"/>
      <point x="839" y="600"/>
      <point x="870" y="569"/>
      <point x="870" y="530" type="curve" smooth="yes"/>
      <point x="870" y="530"/>
      <point x="870" y="410"/>
      <point x="870" y="410" type="curve" smooth="yes"/>
      <point x="870" y="318"/>
      <point x="724" y="209"/>
      <point x="682" y="110" type="curve"/>
      <point x="682" y="110"/>
      <point x="870" y="110"/>
      <point x="870" y="110" type="curve"/>
      <point x="870" y="110"/>
      <point x="870" y="0"/>
      <point x="870" y="0" type="curve"/>
      <point x="870" y="0"/>
      <point x="550" y="0"/>
    </contour>
    <contour>
      <point x="220" y="800" type="curve"/>
      <point x="220" y="800"/>
      <point x="220" y="1255"/>
      <point x="220" y="1255" type="curve"/>
      <point x="220" y="1255"/>
      <point x="193" y="1228"/>
      <point x="143" y="1228" type="curve"/>
      <point x="143" y="1228"/>
      <point x="143" y="1345"/>
      <point x="143" y="1345" type="curve"/>
      <point x="195" y="1347"/>
      <point x="230" y="1400"/>
      <point x="230" y="1400" type="curve"/>
      <point x="230" y="1400"/>
      <point x="323" y="1400"/>
      <point x="323" y="1400" type="curve"/>
      <point x="323" y="1400"/>
      <point x="323" y="800"/>
      <point x="323" y="800" type="curve"/>
      <point x="323" y="800"/>
      <point x="220" y="800"/>
    </contour>
    <contour>
      <point x="720" y="1400" type="curve"/>
      <point x="720" y="1400"/>
      <point x="870" y="1400"/>
      <point x="870" y="1400" type="curve"/>
      <point x="870" y="1400"/>
      <point x="250" y="0"/>
      <point x="250" y="0" type="curve"/>
      <point x="250" y="0"/>
      <point x="100" y="0"/>
      <point x="100" y="0" type="curve"/>
      <point x="100" y="0"/>
      <point x="720" y="1400"/>
    </contour>
  </outline>
</glyph>
<glyph name="questiondown" format="1">
  <advance width="910"/>
  <unicode hex="00BF"/>
  <outline>
    <contour>
      <point x="810" y="160" type="curve" smooth="yes"/>
      <point x="810" y="72"/>
      <point x="738" y="0"/>
      <point x="650" y="0" type="curve" smooth="yes"/>
      <point x="650" y="0"/>
      <point x="260" y="0"/>
      <point x="260" y="0" type="curve" smooth="yes"/>
      <point x="172" y="0"/>
      <point x="100" y="72"/>
      <point x="100" y="160" type="curve" smooth="yes"/>
      <point x="100" y="160"/>
      <point x="100" y="352"/>
      <point x="100" y="352" type="curve" smooth="yes"/>
      <point x="100" y="620"/>
      <point x="385" y="680"/>
      <point x="385" y="940" type="curve" smooth="yes"/>
      <point x="385" y="940"/>
      <point x="385" y="1040"/>
      <point x="385" y="1040" type="curve"/>
      <point x="385" y="1040"/>
      <point x="610" y="1040"/>
      <point x="610" y="1040" type="curve"/>
      <point x="610" y="1040"/>
      <point x="610" y="950"/>
      <point x="610" y="950" type="curve" smooth="yes"/>
      <point x="610" y="651"/>
      <point x="321" y="544"/>
      <point x="321" y="352" type="curve" smooth="yes"/>
      <point x="321" y="342"/>
      <point x="321" y="273"/>
      <point x="321" y="273" type="curve" smooth="yes"/>
      <point x="321" y="238"/>
      <point x="348" y="210"/>
      <point x="383" y="210" type="curve" smooth="yes"/>
      <point x="383" y="210"/>
      <point x="517" y="210"/>
      <point x="517" y="210" type="curve" smooth="yes"/>
      <point x="552" y="210"/>
      <point x="580" y="238"/>
      <point x="580" y="273" type="curve" smooth="yes"/>
      <point x="580" y="273"/>
      <point x="580" y="400"/>
      <point x="580" y="400" type="curve"/>
      <point x="580" y="400"/>
      <point x="810" y="400"/>
      <point x="810" y="400" type="curve"/>
      <point x="810" y="400"/>
      <point x="810" y="160"/>
    </contour>
    <contour>
      <point x="380" y="1400" type="curve"/>
      <point x="380" y="1400"/>
      <point x="610" y="1400"/>
      <point x="610" y="1400" type="curve"/>
      <point x="610" y="1400"/>
      <point x="610" y="1170"/>
      <point x="610" y="1170" type="curve"/>
      <point x="610" y="1170"/>
      <point x="380" y="1170"/>
      <point x="380" y="1170" type="curve"/>
      <point x="380" y="1170"/>
      <point x="380" y="1400"/>
    </contour>
  </outline>
</glyph>
<glyph name="Acircumflex" format="1">
  <advance width="940"/>
  <unicode hex="00C2"/>
  <outline>
    <contour>
      <point x="230" y="0" type="curve"/>
      <point x="230" y="0"/>
      <point x="0" y="0"/>
      <point x="0" y="0" type="curve"/>
      <point x="0" y="0"/>
      <point x="350" y="1400"/>
      <point x="350" y="1400" type="curve"/>
      <point x="350" y="1400"/>
      <point x="590" y="1400"/>
      <point x="590" y="1400" type="curve"/>
      <point x="590" y="1400"/>
      <point x="940" y="0"/>
      <point x="940" y="0" type="curve"/>
      <point x="940" y="0"/>
      <point x="710" y="0"/>
      <point x="710" y="0" type="curve"/>
      <point x="710" y="0"/>
      <point x="644" y="260"/>
      <point x="644" y="260" type="curve"/>
      <point x="644" y="260"/>
      <point x="296" y="260"/>
      <point x="296" y="260" type="curve"/>
      <point x="296" y="260"/>
      <point x="230" y="0"/>
    </contour>
    <contour>
      <point x="349" y="470" type="curve"/>
      <point x="349" y="470"/>
      <point x="591" y="470"/>
      <point x="591" y="470" type="curve"/>
      <point x="591" y="470"/>
      <point x="470" y="945"/>
      <point x="470" y="945" type="curve"/>
      <point x="470" y="945"/>
      <point x="349" y="470"/>
    </contour>
    <contour>
      <point x="484" y="1800" type="curve"/>
      <point x="484" y="1800"/>
      <point x="657" y="1800"/>
      <point x="657" y="1800" type="curve"/>
      <point x="657" y="1800"/>
      <point x="841" y="1500"/>
      <point x="841" y="1500" type="curve"/>
      <point x="841" y="1500"/>
      <point x="686" y="1500"/>
      <point x="686" y="1500" type="curve"/>
      <point x="686" y="1500"/>
      <point x="571" y="1682"/>
      <point x="571" y="1682" type="curve"/>
      <point x="571" y="1682"/>
      <point x="455" y="1500"/>
      <point x="455" y="1500" type="curve"/>
      <point x="455" y="1500"/>
      <point x="300" y="1500"/>
      <point x="300" y="1500" type="curve"/>
      <point x="300" y="1500"/>
      <point x="484" y="1800"/>
    </contour>
  </outline>
</glyph>
<glyph name="Icircumflex" format="1">
  <advance width="596"/>
  <unicode hex="00CE"/>
  <outline>
    <contour>
      <point x="100" y="1400" type="curve"/>
      <point x="100" y="1400"/>
      <point x="350" y="1400"/>
      <point x="350" y="1400" type="curve"/>
      <point x="350" y="1400"/>
      <point x="350" y="0"/>
      <point x="350" y="0" type="curve"/>
      <point x="350" y="0"/>
      <point x="100" y="0"/>
      <point x="100" y="0" type="curve"/>
      <point x="100" y="0"/>
      <point x="100" y="1400"/>
    </contour>
    <contour>
      <point x="139" y="1800" type="curve"/>
      <point x="139" y="1800"/>
      <point x="312" y="1800"/>
      <point x="312" y="1800" type="curve"/>
      <point x="312" y="1800"/>
      <point x="496" y="1500"/>
      <point x="496" y="1500" type="curve"/>
      <point x="496" y="1500"/>
      <point x="341" y="1500"/>
      <point x="341" y="1500" type="curve"/>
      <point x="341" y="1500"/>
      <point x="226" y="1682"/>
      <point x="226" y="1682" type="curve"/>
      <point x="226" y="1682"/>
      <point x="110" y="1500"/>
      <point x="110" y="1500" type="curve"/>
      <point x="110" y="1500"/>
      <point x="-45" y="1500"/>
      <point x="-45" y="1500" type="curve"/>
      <point x="-45" y="1500"/>
      <point x="139" y="1800"/>
    </contour>
  </outline>
</glyph>
<glyph name="Idieresis" format="1">
  <advance width="590"/>
  <unicode hex="00CF"/>
  <outline>
    <contour>
      <point x="100" y="1400" type="curve"/>
      <point x="100" y="1400"/>
      <point x="350" y="1400"/>
      <point x="350" y="1400" type="curve"/>
      <point x="350" y="1400"/>
      <point x="350" y="0"/>
      <point x="350" y="0" type="curve"/>
      <point x="350" y="0"/>
      <point x="100" y="0"/>
      <point x="100" y="0" type="curve"/>
      <point x="100" y="0"/>
      <point x="100" y="1400"/>
    </contour>
    <contour>
      <point x="30" y="1700" type="curve"/>
      <point x="30" y="1700"/>
      <point x="180" y="1700"/>
      <point x="180" y="1700" type="curve"/>
      <point x="180" y="1700"/>
      <point x="180" y="1550"/>
      <point x="180" y="1550" type="curve"/>
      <point x="180" y="1550"/>
      <point x="30" y="1550"/>
      <point x="30" y="1550" type="curve"/>
      <point x="30" y="1550"/>
      <point x="30" y="1700"/>
    </contour>
    <contour>
      <point x="270" y="1700" type="curve"/>
      <point x="270" y="1700"/>
      <point x="420" y="1700"/>
      <point x="420" y="1700" type="curve"/>
      <point x="420" y="1700"/>
      <point x="420" y="1550"/>
      <point x="420" y="1550" type="curve"/>
      <point x="420" y="1550"/>
      <point x="270" y="1550"/>
      <point x="270" y="1550" type="curve"/>
      <point x="270" y="1550"/>
      <point x="270" y="1700"/>
    </contour>
  </outline>
</glyph>
<glyph name="Odieresis" format="1">
  <advance width="940"/>
  <unicode hex="00D6"/>
  <outline>
    <contour>
      <point x="840" y="1255" type="curve" smooth="yes"/>
      <point x="840" y="1255"/>
      <point x="840" y="145"/>
      <point x="840" y="145" type="curve" smooth="yes"/>
      <point x="840" y="65"/>
      <point x="775" y="0"/>
      <point x="695" y="0" type="curve" smooth="yes"/>
      <point x="695" y="0"/>
      <point x="245" y="0"/>
      <point x="245" y="0" type="curve" smooth="yes"/>
      <point x="165" y="0"/>
      <point x="100" y="65"/>
      <point x="100" y="145" type="curve" smooth="yes"/>
      <point x="100" y="145"/>
      <point x="100" y="1255"/>
      <point x="100" y="1255" type="curve" smooth="yes"/>
      <point x="100" y="1335"/>
      <point x="165" y="1400"/>
      <point x="245" y="1400" type="curve" smooth="yes"/>
      <point x="245" y="1400"/>
      <point x="695" y="1400"/>
      <point x="695" y="1400" type="curve" smooth="yes"/>
      <point x="775" y="1400"/>
      <point x="840" y="1335"/>
    </contour>
    <contour>
      <point x="350" y="250" type="curve"/>
      <point x="350" y="250"/>
      <point x="590" y="250"/>
      <point x="590" y="250" type="curve"/>
      <point x="590" y="250"/>
      <point x="590" y="1150"/>
      <point x="590" y="1150" type="curve"/>
      <point x="590" y="1150"/>
      <point x="350" y="1150"/>
      <point x="350" y="1150" type="curve"/>
      <point x="350" y="1150"/>
      <point x="350" y="250"/>
    </contour>
    <contour>
      <point x="275" y="1700" type="curve"/>
      <point x="275" y="1700"/>
      <point x="425" y="1700"/>
      <point x="425" y="1700" type="curve"/>
      <point x="425" y="1700"/>
      <point x="425" y="1550"/>
      <point x="425" y="1550" type="curve"/>
      <point x="425" y="1550"/>
      <point x="275" y="1550"/>
      <point x="275" y="1550" type="curve"/>
      <point x="275" y="1550"/>
      <point x="275" y="1700"/>
    </contour>
    <contour>
      <point x="515" y="1700" type="curve"/>
      <point x="515" y="1700"/>
      <point x="665" y="1700"/>
      <point x="665" y="1700" type="curve"/>
      <point x="665" y="1700"/>
      <point x="665" y="1550"/>
      <point x="665" y="1550" type="curve"/>
      <point x="665" y="1550"/>
      <point x="515" y="1550"/>
      <point x="515" y="1550" type="curve"/>
      <point x="515" y="1550"/>
      <point x="515" y="1700"/>
    </contour>
  </outline>
</glyph>
<glyph name="multiply" format="1">
  <advance width="921"/>
  <unicode hex="00D7"/>
  <outline>
    <contour>
      <point x="666" y="1061" type="curve"/>
      <point x="666" y="1061"/>
      <point x="821" y="905"/>
      <point x="821" y="905" type="curve"/>
      <point x="821" y="905"/>
      <point x="616" y="700"/>
      <point x="616" y="700" type="curve"/>
      <point x="616" y="700"/>
      <point x="821" y="495"/>
      <point x="821" y="495" type="curve"/>
      <point x="821" y="495"/>
      <point x="666" y="340"/>
      <point x="666" y="340" type="curve"/>
      <point x="666" y="340"/>
      <point x="461" y="545"/>
      <point x="461" y="545" type="curve"/>
      <point x="461" y="545"/>
      <point x="256" y="340"/>
      <point x="256" y="340" type="curve"/>
      <point x="256" y="340"/>
      <point x="100" y="495"/>
      <point x="100" y="495" type="curve"/>
      <point x="100" y="495"/>
      <point x="305" y="700"/>
      <point x="305" y="700" type="curve"/>
      <point x="305" y="700"/>
      <point x="100" y="905"/>
      <point x="100" y="905" type="curve"/>
      <point x="100" y="905"/>
      <point x="256" y="1061"/>
      <point x="256" y="1061" type="curve"/>
      <point x="256" y="1061"/>
      <point x="461" y="856"/>
      <point x="461" y="856" type="curve"/>
      <point x="461" y="856"/>
      <point x="666" y="1061"/>
    </contour>
  </outline>
</glyph>
<glyph name="Udieresis" format="1">
  <advance width="970"/>
  <unicode hex="00DC"/>
  <outline>
    <contour>
      <point x="350" y="1400" type="curve"/>
      <point x="350" y="1400"/>
      <point x="350" y="250"/>
      <point x="350" y="250" type="curve"/>
      <point x="350" y="250"/>
      <point x="620" y="250"/>
      <point x="620" y="250" type="curve"/>
      <point x="620" y="250"/>
      <point x="620" y="1400"/>
      <point x="620" y="1400" type="curve"/>
      <point x="620" y="1400"/>
      <point x="870" y="1400"/>
      <point x="870" y="1400" type="curve"/>
      <point x="870" y="1400"/>
      <point x="870" y="145"/>
      <point x="870" y="145" type="curve" smooth="yes"/>
      <point x="870" y="65"/>
      <point x="805" y="0"/>
      <point x="725" y="0" type="curve" smooth="yes"/>
      <point x="725" y="0"/>
      <point x="245" y="0"/>
      <point x="245" y="0" type="curve" smooth="yes"/>
      <point x="165" y="0"/>
      <point x="100" y="65"/>
      <point x="100" y="145" type="curve" smooth="yes"/>
      <point x="100" y="145"/>
      <point x="100" y="1400"/>
      <point x="100" y="1400" type="curve"/>
      <point x="100" y="1400"/>
      <point x="350" y="1400"/>
    </contour>
    <contour>
      <point x="290" y="1700" type="curve"/>
      <point x="290" y="1700"/>
      <point x="440" y="1700"/>
      <point x="440" y="1700" type="curve"/>
      <point x="440" y="1700"/>
      <point x="440" y="1550"/>
      <point x="440" y="1550" type="curve"/>
      <point x="440" y="1550"/>
      <point x="290" y="1550"/>
      <point x="290" y="1550" type="curve"/>
      <point x="290" y="1550"/>
      <point x="290" y="1700"/>
    </contour>
    <contour>
      <point x="530" y="1700" type="curve"/>
      <point x="530" y="1700"/>
      <point x="680" y="1700"/>
      <point x="680" y="1700" type="curve"/>
      <point x="680" y="1700"/>
      <point x="680" y="1550"/>
      <point x="680" y="1550" type="curve"/>
      <point x="680" y="1550"/>
      <point x="530" y="1550"/>
      <point x="530" y="1550" type="curve"/>
      <point x="530" y="1550"/>
      <point x="530" y="1700"/>
    </contour>
  </outline>
</glyph>
<glyph name="Yacute" format="1">
  <advance width="920"/>
  <unicode hex="00DD"/>
  <outline>
    <contour>
      <point x="860" y="1400" type="curve"/>
      <point x="860" y="1400"/>
      <point x="585" y="506"/>
      <point x="585" y="506" type="curve"/>
      <point x="585" y="506"/>
      <point x="585" y="0"/>
      <point x="585" y="0" type="curve"/>
      <point x="585" y="0"/>
      <point x="335" y="0"/>
      <point x="335" y="0" type="curve"/>
      <point x="335" y="0"/>
      <point x="335" y="506"/>
      <point x="335" y="506" type="curve"/>
      <point x="335" y="506"/>
      <point x="60" y="1400"/>
      <point x="60" y="1400" type="curve"/>
      <point x="60" y="1400"/>
      <point x="310" y="1400"/>
      <point x="310" y="1400" type="curve"/>
      <point x="310" y="1400"/>
      <point x="460" y="810"/>
      <point x="460" y="810" type="curve"/>
      <point x="460" y="810"/>
      <point x="600" y="1400"/>
      <point x="600" y="1400" type="curve"/>
      <point x="600" y="1400"/>
      <point x="860" y="1400"/>
    </contour>
    <contour>
      <point x="730" y="1750" type="curve"/>
      <point x="730" y="1750"/>
      <point x="530" y="1490"/>
      <point x="530" y="1490" type="curve"/>
      <point x="530" y="1490"/>
      <point x="370" y="1490"/>
      <point x="370" y="1490" type="curve"/>
      <point x="370" y="1490"/>
      <point x="510" y="1750"/>
      <point x="510" y="1750" type="curve"/>
      <point x="510" y="1750"/>
      <point x="730" y="1750"/>
    </contour>
  </outline>
</glyph>
<glyph name="Thorn" format="1">
  <advance width="940"/>
  <unicode hex="00DE"/>
  <outline>
    <contour>
      <point x="840" y="1060" type="curve" smooth="yes"/>
      <point x="840" y="1060"/>
      <point x="840" y="445"/>
      <point x="840" y="445" type="curve" smooth="yes"/>
      <point x="840" y="365"/>
      <point x="775" y="300"/>
      <point x="695" y="300" type="curve" smooth="yes"/>
      <point x="695" y="300"/>
      <point x="350" y="300"/>
      <point x="350" y="300" type="curve"/>
      <point x="350" y="300"/>
      <point x="350" y="0"/>
      <point x="350" y="0" type="curve"/>
      <point x="350" y="0"/>
      <point x="100" y="0"/>
      <point x="100" y="0" type="curve"/>
      <point x="100" y="0"/>
      <point x="100" y="1400"/>
      <point x="100" y="1400" type="curve"/>
      <point x="100" y="1400"/>
      <point x="350" y="1400"/>
      <point x="350" y="1400" type="curve"/>
      <point x="350" y="1400"/>
      <point x="350" y="1200"/>
      <point x="350" y="1200" type="curve"/>
      <point x="350" y="1200"/>
      <point x="700" y="1200"/>
      <point x="700" y="1200" type="curve" smooth="yes"/>
      <point x="777" y="1200"/>
      <point x="840" y="1137"/>
    </contour>
    <contour>
      <point x="350" y="550" type="curve"/>
      <point x="350" y="550"/>
      <point x="590" y="550"/>
      <point x="590" y="550" type="curve"/>
      <point x="590" y="550"/>
      <point x="590" y="960"/>
      <point x="590" y="960" type="curve"/>
      <point x="590" y="960"/>
      <point x="350" y="960"/>
      <point x="350" y="960" type="curve"/>
      <point x="350" y="960"/>
      <point x="350" y="550"/>
    </contour>
  </outline>
</glyph>
<glyph name="ccedilla" format="1">
  <advance width="910"/>
  <unicode hex="00E7"/>
  <outline>
    <contour>
      <point x="100" y="145" type="curve" smooth="yes"/>
      <point x="100" y="145"/>
      <point x="100" y="1255"/>
      <point x="100" y="1255" type="curve" smooth="yes"/>
      <point x="100" y="1335"/>
      <point x="165" y="1400"/>
      <point x="245" y="1400" type="curve" smooth="yes"/>
      <point x="245" y="1400"/>
      <point x="665" y="1400"/>
      <point x="665" y="1400" type="curve" smooth="yes"/>
      <point x="745" y="1400"/>
      <point x="810" y="1335"/>
      <point x="810" y="1255" type="curve" smooth="yes"/>
      <point x="810" y="1255"/>
      <point x="810" y="955"/>
      <point x="810" y="955" type="curve"/>
      <point x="810" y="955"/>
      <point x="560" y="955"/>
      <point x="560" y="955" type="curve"/>
      <point x="560" y="955"/>
      <point x="560" y="1143"/>
      <point x="560" y="1143" type="curve"/>
      <point x="560" y="1143"/>
      <point x="360" y="1143"/>
      <point x="360" y="1143" type="curve"/>
      <point x="360" y="1143"/>
      <point x="360" y="260"/>
      <point x="360" y="260" type="curve"/>
      <point x="360" y="260"/>
      <point x="560" y="260"/>
      <point x="560" y="260" type="curve"/>
      <point x="560" y="260"/>
      <point x="560" y="445"/>
      <point x="560" y="445" type="curve"/>
      <point x="560" y="445"/>
      <point x="810" y="445"/>
      <point x="810" y="445" type="curve"/>
      <point x="810" y="445"/>
      <point x="810" y="145"/>
      <point x="810" y="145" type="curve" smooth="yes"/>
      <point x="810" y="66"/>
      <point x="746" y="0"/>
      <point x="667" y="0" type="curve" smooth="yes"/>
      <point x="667" y="0"/>
      <point x="665" y="0"/>
      <point x="665" y="0" type="curve"/>
      <point x="665" y="0"/>
      <point x="745" y="-80"/>
      <point x="745" y="-80" type="curve"/>
      <point x="745" y="-80"/>
      <point x="745" y="-230"/>
      <point x="745" y="-230" type="curve" smooth="yes"/>
      <point x="745" y="-318"/>
      <point x="673" y="-390"/>
      <point x="585" y="-390" type="curve" smooth="yes"/>
      <point x="585" y="-390"/>
      <point x="325" y="-390"/>
      <point x="325" y="-390" type="curve" smooth="yes"/>
      <point x="237" y="-390"/>
      <point x="165" y="-318"/>
      <point x="165" y="-230" type="curve" smooth="yes"/>
      <point x="165" y="-230"/>
      <point x="165" y="-155"/>
      <point x="165" y="-155" type="curve"/>
      <point x="165" y="-155"/>
      <point x="325" y="-155"/>
      <point x="325" y="-155" type="curve"/>
      <point x="325" y="-155"/>
      <point x="325" y="-167"/>
      <point x="325" y="-167" type="curve" smooth="yes"/>
      <point x="325" y="-202"/>
      <point x="353" y="-230"/>
      <point x="388" y="-230" type="curve" smooth="yes"/>
      <point x="388" y="-230"/>
      <point x="523" y="-230"/>
      <point x="523" y="-230" type="curve" smooth="yes"/>
      <point x="558" y="-230"/>
      <point x="585" y="-202"/>
      <point x="585" y="-167" type="curve" smooth="yes"/>
      <point x="585" y="-167"/>
      <point x="584" y="-149"/>
      <point x="584" y="-149" type="curve"/>
      <point x="584" y="-149"/>
      <point x="439" y="0"/>
      <point x="439" y="0" type="curve"/>
      <point x="439" y="0"/>
      <point x="245" y="0"/>
      <point x="245" y="0" type="curve" smooth="yes"/>
      <point x="165" y="0"/>
      <point x="100" y="65"/>
    </contour>
  </outline>
</glyph>
<glyph name="egrave" format="1">
  <advance width="912"/>
  <unicode hex="00E8"/>
  <outline>
    <contour>
      <point x="100" y="0" type="curve"/>
      <point x="100" y="0"/>
      <point x="100" y="1400"/>
      <point x="100" y="1400" type="curve"/>
      <point x="100" y="1400"/>
      <point x="810" y="1400"/>
      <point x="810" y="1400" type="curve"/>
      <point x="810" y="1400"/>
      <point x="810" y="1170"/>
      <point x="810" y="1170" type="curve"/>
      <point x="810" y="1170"/>
      <point x="350" y="1170"/>
      <point x="350" y="1170" type="curve"/>
      <point x="350" y="1170"/>
      <point x="350" y="820"/>
      <point x="350" y="820" type="curve"/>
      <point x="350" y="820"/>
      <point x="730" y="820"/>
      <point x="730" y="820" type="curve"/>
      <point x="730" y="820"/>
      <point x="730" y="580"/>
      <point x="730" y="580" type="curve"/>
      <point x="730" y="580"/>
      <point x="350" y="580"/>
      <point x="350" y="580" type="curve"/>
      <point x="350" y="580"/>
      <point x="350" y="240"/>
      <point x="350" y="240" type="curve"/>
      <point x="350" y="240"/>
      <point x="812" y="240"/>
      <point x="812" y="240" type="curve"/>
      <point x="812" y="240"/>
      <point x="812" y="0"/>
      <point x="812" y="0" type="curve"/>
      <point x="812" y="0"/>
      <point x="100" y="0"/>
    </contour>
    <contour>
      <point x="430" y="1490" type="curve"/>
      <point x="430" y="1490"/>
      <point x="230" y="1750"/>
      <point x="230" y="1750" type="curve"/>
      <point x="230" y="1750"/>
      <point x="450" y="1750"/>
      <point x="450" y="1750" type="curve"/>
      <point x="450" y="1750"/>
      <point x="590" y="1490"/>
      <point x="590" y="1490" type="curve"/>
      <point x="590" y="1490"/>
      <point x="430" y="1490"/>
    </contour>
  </outline>
</glyph>
<glyph name="idieresis" format="1">
  <advance width="590"/>
  <unicode hex="00EF"/>
  <outline>
    <contour>
      <point x="170" y="1400" type="curve"/>
      <point x="170" y="1400"/>
      <point x="420" y="1400"/>
      <point x="420" y="1400" type="curve"/>
      <point x="420" y="1400"/>
      <point x="420" y="0"/>
      <point x="420" y="0" type="curve"/>
      <point x="420" y="0"/>
      <point x="170" y="0"/>
      <point x="170" y="0" type="curve"/>
      <point x="170" y="0"/>
      <point x="170" y="1400"/>
    </contour>
    <contour>
      <point x="100" y="1700" type="curve"/>
      <point x="100" y="1700"/>
      <point x="250" y="1700"/>
      <point x="250" y="1700" type="curve"/>
      <point x="250" y="1700"/>
      <point x="250" y="1550"/>
      <point x="250" y="1550" type="curve"/>
      <point x="250" y="1550"/>
      <point x="100" y="1550"/>
      <point x="100" y="1550" type="curve"/>
      <point x="100" y="1550"/>
      <point x="100" y="1700"/>
    </contour>
    <contour>
      <point x="340" y="1700" type="curve"/>
      <point x="340" y="1700"/>
      <point x="490" y="1700"/>
      <point x="490" y="1700" type="curve"/>
      <point x="490" y="1700"/>
      <point x="490" y="1550"/>
      <point x="490" y="1550" type="curve"/>
      <point x="490" y="1550"/>
      <point x="340" y="1550"/>
      <point x="340" y="1550" type="curve"/>
      <point x="340" y="1550"/>
      <point x="340" y="1700"/>
    </contour>
  </outline>
</glyph>
<glyph name="divide" format="1">
  <advance width="1000"/>
  <unicode hex="00F7"/>
  <outline>
    <contour>
      <point x="100" y="810" type="curve"/>
      <point x="100" y="810"/>
      <point x="900" y="810"/>
      <point x="900" y="810" type="curve"/>
      <point x="900" y="810"/>
      <point x="900" y="590"/>
      <point x="900" y="590" type="curve"/>
      <point x="900" y="590"/>
      <point x="100" y="590"/>
      <point x="100" y="590" type="curve"/>
      <point x="100" y="590"/>
      <point x="100" y="810"/>
    </contour>
    <contour>
      <point x="385" y="500" type="curve"/>
      <point x="385" y="500"/>
      <point x="615" y="500"/>
      <point x="615" y="500" type="curve"/>
      <point x="615" y="500"/>
      <point x="615" y="270"/>
      <point x="615" y="270" type="curve"/>
      <point x="615" y="270"/>
      <point x="385" y="270"/>
      <point x="385" y="270" type="curve"/>
      <point x="385" y="270"/>
      <point x="385" y="500"/>
    </contour>
    <contour>
      <point x="385" y="1130" type="curve"/>
      <point x="385" y="1130"/>
      <point x="615" y="1130"/>
      <point x="615" y="1130" type="curve"/>
      <point x="615" y="1130"/>
      <point x="615" y="900"/>
      <point x="615" y="900" type="curve"/>
      <point x="615" y="900"/>
      <point x="385" y="900"/>
      <point x="385" y="900" type="curve"/>
      <point x="385" y="900"/>
      <point x="385" y="1130"/>
    </contour>
  </outline>
</glyph>
<glyph name="yacute" format="1">
  <advance width="920"/>
  <unicode hex="00FD"/>
  <outline>
    <contour>
      <point x="860" y="1400" type="curve"/>
      <point x="860" y="1400"/>
      <point x="585" y="506"/>
      <point x="585" y="506" type="curve"/>
      <point x="585" y="506"/>
      <point x="585" y="0"/>
      <point x="585" y="0" type="curve"/>
      <point x="585" y="0"/>
      <point x="335" y="0"/>
      <point x="335" y="0" type="curve"/>
      <point x="335" y="0"/>
      <point x="335" y="506"/>
      <point x="335" y="506" type="curve"/>
      <point x="335" y="506"/>
      <point x="60" y="1400"/>
      <point x="60" y="1400" type="curve"/>
      <point x="60" y="1400"/>
      <point x="310" y="1400"/>
      <point x="310" y="1400" type="curve"/>
      <point x="310" y="1400"/>
      <point x="460" y="810"/>
      <point x="460" y="810" type="curve"/>
      <point x="460" y="810"/>
      <point x="600" y="1400"/>
      <point x="600" y="1400" type="curve"/>
      <point x="600" y="1400"/>
      <point x="860" y="1400"/>
    </contour>
    <contour>
      <point x="690" y="1750" type="curve"/>
      <point x="690" y="1750"/>
      <point x="490" y="1490"/>
      <point x="490" y="1490" type="curve"/>
      <point x="490" y="1490"/>
      <point x="330" y="1490"/>
      <point x="330" y="1490" type="curve"/>
      <point x="330" y="1490"/>
      <point x="470" y="1750"/>
      <point x="470" y="1750" type="curve"/>
      <point x="470" y="1750"/>
      <point x="690" y="1750"/>
    </contour>
  </outline>
</glyph>
<glyph name="Aogonek" format="1">
  <advance width="940"/>
  <unicode hex="0104"/>
  <outline>
    <contour>
      <point x="230" y="0" type="curve"/>
      <point x="230" y="0"/>
      <point x="80" y="-153"/>
      <point x="80" y="-153" type="curve"/>
      <point x="80" y="-153"/>
      <point x="80" y="-167"/>
      <point x="80" y="-167" type="curve" smooth="yes"/>
      <point x="80" y="-202"/>
      <point x="107" y="-230"/>
      <point x="142" y="-230" type="curve" smooth="yes"/>
      <point x="142" y="-230"/>
      <point x="277" y="-230"/>
      <point x="277" y="-230" type="curve" smooth="yes"/>
      <point x="312" y="-230"/>
      <point x="340" y="-202"/>
      <point x="340" y="-167" type="curve" smooth="yes"/>
      <point x="340" y="-167"/>
      <point x="340" y="-155"/>
      <point x="340" y="-155" type="curve"/>
      <point x="340" y="-155"/>
      <point x="500" y="-155"/>
      <point x="500" y="-155" type="curve"/>
      <point x="500" y="-155"/>
      <point x="500" y="-230"/>
      <point x="500" y="-230" type="curve" smooth="yes"/>
      <point x="500" y="-318"/>
      <point x="428" y="-390"/>
      <point x="340" y="-390" type="curve" smooth="yes"/>
      <point x="340" y="-390"/>
      <point x="80" y="-390"/>
      <point x="80" y="-390" type="curve" smooth="yes"/>
      <point x="-8" y="-390"/>
      <point x="-80" y="-318"/>
      <point x="-80" y="-230" type="curve" smooth="yes"/>
      <point x="-80" y="-230"/>
      <point x="-80" y="-80"/>
      <point x="-80" y="-80" type="curve"/>
      <point x="-80" y="-80"/>
      <point x="0" y="0"/>
      <point x="0" y="0" type="curve"/>
      <point x="0" y="0"/>
      <point x="350" y="1400"/>
      <point x="350" y="1400" type="curve"/>
      <point x="350" y="1400"/>
      <point x="590" y="1400"/>
      <point x="590" y="1400" type="curve"/>
      <point x="590" y="1400"/>
      <point x="940" y="0"/>
      <point x="940" y="0" type="curve"/>
      <point x="940" y="0"/>
      <point x="710" y="0"/>
      <point x="710" y="0" type="curve"/>
      <point x="710" y="0"/>
      <point x="644" y="260"/>
      <point x="644" y="260" type="curve"/>
      <point x="644" y="260"/>
      <point x="296" y="260"/>
      <point x="296" y="260" type="curve"/>
      <point x="296" y="260"/>
      <point x="230" y="0"/>
    </contour>
    <contour>
      <point x="349" y="470" type="curve"/>
      <point x="349" y="470"/>
      <point x="591" y="470"/>
      <point x="591" y="470" type="curve"/>
      <point x="591" y="470"/>
      <point x="470" y="945"/>
      <point x="470" y="945" type="curve"/>
      <point x="470" y="945"/>
      <point x="349" y="470"/>
    </contour>
  </outline>
</glyph>
<glyph name="eogonek" format="1">
  <advance width="912"/>
  <unicode hex="0119"/>
  <outline>
    <contour>
      <point x="542" y="0" type="curve"/>
      <point x="542" y="0"/>
      <point x="392" y="-153"/>
      <point x="392" y="-153" type="curve"/>
      <point x="392" y="-153"/>
      <point x="392" y="-167"/>
      <point x="392" y="-167" type="curve" smooth="yes"/>
      <point x="392" y="-202"/>
      <point x="419" y="-230"/>
      <point x="454" y="-230" type="curve" smooth="yes"/>
      <point x="454" y="-230"/>
      <point x="589" y="-230"/>
      <point x="589" y="-230" type="curve" smooth="yes"/>
      <point x="624" y="-230"/>
      <point x="652" y="-202"/>
      <point x="652" y="-167" type="curve" smooth="yes"/>
      <point x="652" y="-167"/>
      <point x="652" y="-155"/>
      <point x="652" y="-155" type="curve"/>
      <point x="652" y="-155"/>
      <point x="812" y="-155"/>
      <point x="812" y="-155" type="curve"/>
      <point x="812" y="-155"/>
      <point x="812" y="-230"/>
      <point x="812" y="-230" type="curve" smooth="yes"/>
      <point x="812" y="-318"/>
      <point x="740" y="-390"/>
      <point x="652" y="-390" type="curve" smooth="yes"/>
      <point x="652" y="-390"/>
      <point x="392" y="-390"/>
      <point x="392" y="-390" type="curve" smooth="yes"/>
      <point x="304" y="-390"/>
      <point x="232" y="-318"/>
      <point x="232" y="-230" type="curve" smooth="yes"/>
      <point x="232" y="-230"/>
      <point x="232" y="-80"/>
      <point x="232" y="-80" type="curve"/>
      <point x="232" y="-80"/>
      <point x="312" y="0"/>
      <point x="312" y="0" type="curve"/>
      <point x="312" y="0"/>
      <point x="100" y="0"/>
      <point x="100" y="0" type="curve"/>
      <point x="100" y="0"/>
      <point x="100" y="1400"/>
      <point x="100" y="1400" type="curve"/>
      <point x="100" y="1400"/>
      <point x="810" y="1400"/>
      <point x="810" y="1400" type="curve"/>
      <point x="810" y="1400"/>
      <point x="810" y="1170"/>
      <point x="810" y="1170" type="curve"/>
      <point x="810" y="1170"/>
      <point x="350" y="1170"/>
      <point x="350" y="1170" type="curve"/>
      <point x="350" y="1170"/>
      <point x="350" y="820"/>
      <point x="350" y="820" type="curve"/>
      <point x="350" y="820"/>
      <point x="730" y="820"/>
      <point x="730" y="820" type="curve"/>
      <point x="730" y="820"/>
      <point x="730" y="580"/>
      <point x="730" y="580" type="curve"/>
      <point x="730" y="580"/>
      <point x="350" y="580"/>
      <point x="350" y="580" type="curve"/>
      <point x="350" y="580"/>
      <point x="350" y="240"/>
      <point x="350" y="240" type="curve"/>
      <point x="350" y="240"/>
      <point x="812" y="240"/>
      <point x="812" y="240" type="curve"/>
      <point x="812" y="240"/>
      <point x="812" y="0"/>
      <point x="812" y="0" type="curve"/>
      <point x="812" y="0"/>
      <point x="542" y="0"/>
    </contour>
  </outline>
</glyph>
<glyph name="gbreve" format="1">
  <advance width="932"/>
  <unicode hex="011F"/>
  <outline>
    <contour>
      <point x="100" y="145" type="curve" smooth="yes"/>
      <point x="100" y="145"/>
      <point x="100" y="1255"/>
      <point x="100" y="1255" type="curve" smooth="yes"/>
      <point x="100" y="1335"/>
      <point x="165" y="1400"/>
      <point x="245" y="1400" type="curve" smooth="yes"/>
      <point x="245" y="1400"/>
      <point x="685" y="1400"/>
      <point x="685" y="1400" type="curve" smooth="yes"/>
      <point x="765" y="1400"/>
      <point x="830" y="1335"/>
      <point x="830" y="1255" type="curve" smooth="yes"/>
      <point x="830" y="1255"/>
      <point x="830" y="955"/>
      <point x="830" y="955" type="curve"/>
      <point x="830" y="955"/>
      <point x="600" y="955"/>
      <point x="600" y="955" type="curve"/>
      <point x="600" y="955"/>
      <point x="600" y="1152"/>
      <point x="600" y="1152" type="curve"/>
      <point x="600" y="1152"/>
      <point x="350" y="1152"/>
      <point x="350" y="1152" type="curve"/>
      <point x="350" y="1152"/>
      <point x="350" y="248"/>
      <point x="350" y="248" type="curve"/>
      <point x="350" y="248"/>
      <point x="537" y="248"/>
      <point x="537" y="248" type="curve" smooth="yes"/>
      <point x="572" y="248"/>
      <point x="600" y="276"/>
      <point x="600" y="311" type="curve" smooth="yes"/>
      <point x="600" y="311"/>
      <point x="600" y="470"/>
      <point x="600" y="470" type="curve"/>
      <point x="600" y="470"/>
      <point x="480" y="470"/>
      <point x="480" y="470" type="curve"/>
      <point x="480" y="470"/>
      <point x="480" y="700"/>
      <point x="480" y="700" type="curve"/>
      <point x="480" y="700"/>
      <point x="830" y="700"/>
      <point x="830" y="700" type="curve"/>
      <point x="830" y="700"/>
      <point x="830" y="144"/>
      <point x="830" y="144" type="curve" smooth="yes"/>
      <point x="830" y="89"/>
      <point x="859" y="42"/>
      <point x="904" y="18" type="curve" smooth="yes"/>
      <point x="907" y="16"/>
      <point x="912" y="14"/>
      <point x="912" y="8" type="curve" smooth="yes"/>
      <point x="912" y="2"/>
      <point x="909" y="0"/>
      <point x="904" y="0" type="curve" smooth="yes"/>
      <point x="904" y="0"/>
      <point x="826" y="0"/>
      <point x="826" y="0" type="curve" smooth="yes"/>
      <point x="746" y="0"/>
      <point x="681" y="66"/>
      <point x="680" y="148" type="curve"/>
      <point x="680" y="148"/>
      <point x="678" y="148"/>
      <point x="678" y="148" type="curve"/>
      <point x="678" y="148"/>
      <point x="678" y="140"/>
      <point x="678" y="140" type="curve" smooth="yes"/>
      <point x="678" y="62"/>
      <point x="614" y="0"/>
      <point x="536" y="0" type="curve" smooth="yes"/>
      <point x="526" y="0"/>
      <point x="245" y="0"/>
      <point x="245" y="0" type="curve" smooth="yes"/>
      <point x="165" y="0"/>
      <point x="100" y="65"/>
    </contour>
    <contour>
      <point x="466" y="1504" type="curve" smooth="yes"/>
      <point x="370" y="1504"/>
      <point x="285" y="1575"/>
      <point x="270" y="1667" type="curve"/>
      <point x="270" y="1667"/>
      <point x="381" y="1700"/>
      <point x="381" y="1700" type="curve"/>
      <point x="381" y="1656"/>
      <point x="422" y="1619"/>
      <point x="466" y="1619" type="curve" smooth="yes"/>
      <point x="510" y="1619"/>
      <point x="551" y="1656"/>
      <point x="551" y="1700" type="curve"/>
      <point x="551" y="1700"/>
      <point x="662" y="1667"/>
      <point x="662" y="1667" type="curve"/>
      <point x="647" y="1575"/>
      <point x="562" y="1504"/>
    </contour>
  </outline>
</glyph>
<glyph name="hcircumflex" format="1">
  <advance width="970"/>
  <unicode hex="0125"/>
  <outline>
    <contour>
      <point x="350" y="0" type="curve"/>
      <point x="350" y="0"/>
      <point x="100" y="0"/>
      <point x="100" y="0" type="curve"/>
      <point x="100" y="0"/>
      <point x="100" y="1400"/>
      <point x="100" y="1400" type="curve"/>
      <point x="100" y="1400"/>
      <point x="350" y="1400"/>
      <point x="350" y="1400" type="curve"/>
      <point x="350" y="1400"/>
      <point x="350" y="810"/>
      <point x="350" y="810" type="curve"/>
      <point x="350" y="810"/>
      <point x="620" y="810"/>
      <point x="620" y="810" type="curve"/>
      <point x="620" y="810"/>
      <point x="620" y="1400"/>
      <point x="620" y="1400" type="curve"/>
      <point x="620" y="1400"/>
      <point x="870" y="1400"/>
      <point x="870" y="1400" type="curve"/>
      <point x="870" y="1400"/>
      <point x="870" y="0"/>
      <point x="870" y="0" type="curve"/>
      <point x="870" y="0"/>
      <point x="620" y="0"/>
      <point x="620" y="0" type="curve"/>
      <point x="620" y="0"/>
      <point x="620" y="570"/>
      <point x="620" y="570" type="curve"/>
      <point x="620" y="570"/>
      <point x="350" y="570"/>
      <point x="350" y="570" type="curve"/>
      <point x="350" y="570"/>
      <point x="350" y="0"/>
    </contour>
    <contour>
      <point x="399" y="1800" type="curve"/>
      <point x="399" y="1800"/>
      <point x="572" y="1800"/>
      <point x="572" y="1800" type="curve"/>
      <point x="572" y="1800"/>
      <point x="756" y="1500"/>
      <point x="756" y="1500" type="curve"/>
      <point x="756" y="1500"/>
      <point x="601" y="1500"/>
      <point x="601" y="1500" type="curve"/>
      <point x="601" y="1500"/>
      <point x="486" y="1682"/>
      <point x="486" y="1682" type="curve"/>
      <point x="486" y="1682"/>
      <point x="370" y="1500"/>
      <point x="370" y="1500" type="curve"/>
      <point x="370" y="1500"/>
      <point x="215" y="1500"/>
      <point x="215" y="1500" type="curve"/>
      <point x="215" y="1500"/>
      <point x="399" y="1800"/>
    </contour>
  </outline>
</glyph>
<glyph name="Ibreve" format="1">
  <advance width="592"/>
  <unicode hex="012C"/>
  <outline>
    <contour>
      <point x="100" y="1400" type="curve"/>
      <point x="100" y="1400"/>
      <point x="350" y="1400"/>
      <point x="350" y="1400" type="curve"/>
      <point x="350" y="1400"/>
      <point x="350" y="0"/>
      <point x="350" y="0" type="curve"/>
      <point x="350" y="0"/>
      <point x="100" y="0"/>
      <point x="100" y="0" type="curve"/>
      <point x="100" y="0"/>
      <point x="100" y="1400"/>
    </contour>
    <contour>
      <point x="226" y="1504" type="curve" smooth="yes"/>
      <point x="130" y="1504"/>
      <point x="45" y="1575"/>
      <point x="30" y="1667" type="curve"/>
      <point x="30" y="1667"/>
      <point x="141" y="1700"/>
      <point x="141" y="1700" type="curve"/>
      <point x="141" y="1656"/>
      <point x="182" y="1619"/>
      <point x="226" y="1619" type="curve" smooth="yes"/>
      <point x="270" y="1619"/>
      <point x="311" y="1656"/>
      <point x="311" y="1700" type="curve"/>
      <point x="311" y="1700"/>
      <point x="422" y="1667"/>
      <point x="422" y="1667" type="curve"/>
      <point x="407" y="1575"/>
      <point x="322" y="1504"/>
    </contour>
  </outline>
</glyph>
<glyph name="iogonek" format="1">
  <advance width="720"/>
  <unicode hex="012F"/>
  <outline>
    <contour>
      <point x="100" y="-20" type="curve"/>
      <point x="100" y="-20"/>
      <point x="100" y="1400"/>
      <point x="100" y="1400" type="curve"/>
      <point x="100" y="1400"/>
      <point x="350" y="1400"/>
      <point x="350" y="1400" type="curve"/>
      <point x="350" y="1400"/>
      <point x="350" y="0"/>
      <point x="350" y="0" type="curve"/>
      <point x="350" y="0"/>
      <point x="200" y="-153"/>
      <point x="200" y="-153" type="curve"/>
      <point x="200" y="-153"/>
      <point x="200" y="-167"/>
      <point x="200" y="-167" type="curve" smooth="yes"/>
      <point x="200" y="-202"/>
      <point x="227" y="-230"/>
      <point x="262" y="-230" type="curve" smooth="yes"/>
      <point x="262" y="-230"/>
      <point x="397" y="-230"/>
      <point x="397" y="-230" type="curve" smooth="yes"/>
      <point x="432" y="-230"/>
      <point x="460" y="-202"/>
      <point x="460" y="-167" type="curve" smooth="yes"/>
      <point x="460" y="-167"/>
      <point x="460" y="-155"/>
      <point x="460" y="-155" type="curve"/>
      <point x="460" y="-155"/>
      <point x="620" y="-155"/>
      <point x="620" y="-155" type="curve"/>
      <point x="620" y="-155"/>
      <point x="620" y="-230"/>
      <point x="620" y="-230" type="curve" smooth="yes"/>
      <point x="620" y="-318"/>
      <point x="548" y="-390"/>
      <point x="460" y="-390" type="curve" smooth="yes"/>
      <point x="460" y="-390"/>
      <point x="200" y="-390"/>
      <point x="200" y="-390" type="curve" smooth="yes"/>
      <point x="112" y="-390"/>
      <point x="40" y="-318"/>
      <point x="40" y="-230" type="curve" smooth="yes"/>
      <point x="40" y="-230"/>
      <point x="40" y="-80"/>
      <point x="40" y="-80" type="curve"/>
      <point x="40" y="-80"/>
      <point x="100" y="-20"/>
    </contour>
  </outline>
</glyph>
<glyph name="IJ" format="1">
  <advance width="910"/>
  <unicode hex="0132"/>
  <outline>
    <contour>
      <point x="100" y="1400" type="curve"/>
      <point x="100" y="1400"/>
      <point x="350" y="1400"/>
      <point x="350" y="1400" type="curve"/>
      <point x="350" y="1400"/>
      <point x="350" y="0"/>
      <point x="350" y="0" type="curve"/>
      <point x="350" y="0"/>
      <point x="100" y="0"/>
      <point x="100" y="0" type="curve"/>
      <point x="100" y="0"/>
      <point x="100" y="1400"/>
    </contour>
    <contour>
      <point x="100" y="-255" type="curve" smooth="yes"/>
      <point x="100" y="-255"/>
      <point x="100" y="-80"/>
      <point x="100" y="-80" type="curve"/>
      <point x="100" y="-80"/>
      <point x="350" y="-80"/>
      <point x="350" y="-80" type="curve"/>
      <point x="350" y="-80"/>
      <point x="350" y="-140"/>
      <point x="350" y="-140" type="curve"/>
      <point x="350" y="-140"/>
      <point x="560" y="-140"/>
      <point x="560" y="-140" type="curve"/>
      <point x="560" y="-140"/>
      <point x="560" y="1400"/>
      <point x="560" y="1400" type="curve"/>
      <point x="560" y="1400"/>
      <point x="810" y="1400"/>
      <point x="810" y="1400" type="curve"/>
      <point x="810" y="1400"/>
      <point x="810" y="-255"/>
      <point x="810" y="-255" type="curve" smooth="yes"/>
      <point x="810" y="-335"/>
      <point x="745" y="-400"/>
      <point x="665" y="-400" type="curve" smooth="yes"/>
      <point x="665" y="-400"/>
      <point x="245" y="-400"/>
      <point x="245" y="-400" type="curve" smooth="yes"/>
      <point x="165" y="-400"/>
      <point x="100" y="-335"/>
    </contour>
  </outline>
</glyph>
<glyph name="Jcircumflex" format="1">
  <advance width="941"/>
  <unicode hex="0134"/>
  <outline>
    <contour>
      <point x="100" y="145" type="curve" smooth="yes"/>
      <point x="100" y="145"/>
      <point x="100" y="430"/>
      <point x="100" y="430" type="curve"/>
      <point x="100" y="430"/>
      <point x="350" y="430"/>
      <point x="350" y="430" type="curve"/>
      <point x="350" y="430"/>
      <point x="350" y="260"/>
      <point x="350" y="260" type="curve"/>
      <point x="350" y="260"/>
      <point x="560" y="260"/>
      <point x="560" y="260" type="curve"/>
      <point x="560" y="260"/>
      <point x="560" y="1400"/>
      <point x="560" y="1400" type="curve"/>
      <point x="560" y="1400"/>
      <point x="810" y="1400"/>
      <point x="810" y="1400" type="curve"/>
      <point x="810" y="1400"/>
      <point x="810" y="145"/>
      <point x="810" y="145" type="curve" smooth="yes"/>
      <point x="810" y="65"/>
      <point x="745" y="0"/>
      <point x="665" y="0" type="curve" smooth="yes"/>
      <point x="665" y="0"/>
      <point x="245" y="0"/>
      <point x="245" y="0" type="curve" smooth="yes"/>
      <point x="165" y="0"/>
      <point x="100" y="65"/>
    </contour>
    <contour>
      <point x="584" y="1800" type="curve"/>
      <point x="584" y="1800"/>
      <point x="757" y="1800"/>
      <point x="757" y="1800" type="curve"/>
      <point x="757" y="1800"/>
      <point x="941" y="1500"/>
      <point x="941" y="1500" type="curve"/>
      <point x="941" y="1500"/>
      <point x="786" y="1500"/>
      <point x="786" y="1500" type="curve"/>
      <point x="786" y="1500"/>
      <point x="671" y="1682"/>
      <point x="671" y="1682" type="curve"/>
      <point x="671" y="1682"/>
      <point x="555" y="1500"/>
      <point x="555" y="1500" type="curve"/>
      <point x="555" y="1500"/>
      <point x="400" y="1500"/>
      <point x="400" y="1500" type="curve"/>
      <point x="400" y="1500"/>
      <point x="584" y="1800"/>
    </contour>
  </outline>
</glyph>
<glyph name="uni0137" format="1">
  <advance width="996"/>
  <unicode hex="0137"/>
  <outline>
    <contour>
      <point x="640" y="0" type="curve"/>
      <point x="640" y="0"/>
      <point x="368" y="603"/>
      <point x="368" y="603" type="curve"/>
      <point x="368" y="603"/>
      <point x="350" y="603"/>
      <point x="350" y="603" type="curve"/>
      <point x="350" y="603"/>
      <point x="350" y="0"/>
      <point x="350" y="0" type="curve"/>
      <point x="350" y="0"/>
      <point x="100" y="0"/>
      <point x="100" y="0" type="curve"/>
      <point x="100" y="0"/>
      <point x="100" y="1400"/>
      <point x="100" y="1400" type="curve"/>
      <point x="100" y="1400"/>
      <point x="350" y="1400"/>
      <point x="350" y="1400" type="curve"/>
      <point x="350" y="1400"/>
      <point x="350" y="813"/>
      <point x="350" y="813" type="curve"/>
      <point x="350" y="813"/>
      <point x="367" y="813"/>
      <point x="367" y="813" type="curve"/>
      <point x="367" y="813"/>
      <point x="620" y="1400"/>
      <point x="620" y="1400" type="curve"/>
      <point x="620" y="1400"/>
      <point x="880" y="1400"/>
      <point x="880" y="1400" type="curve"/>
      <point x="880" y="1400"/>
      <point x="579" y="714"/>
      <point x="579" y="714" type="curve"/>
      <point x="579" y="714"/>
      <point x="946" y="-103"/>
      <point x="946" y="-103" type="curve"/>
      <point x="946" y="-103"/>
      <point x="946" y="-230"/>
      <point x="946" y="-230" type="curve" smooth="yes"/>
      <point x="946" y="-318"/>
      <point x="874" y="-390"/>
      <point x="786" y="-390" type="curve" smooth="yes"/>
      <point x="786" y="-390"/>
      <point x="526" y="-390"/>
      <point x="526" y="-390" type="curve" smooth="yes"/>
      <point x="438" y="-390"/>
      <point x="366" y="-318"/>
      <point x="366" y="-230" type="curve" smooth="yes"/>
      <point x="366" y="-230"/>
      <point x="366" y="-155"/>
      <point x="366" y="-155" type="curve"/>
      <point x="366" y="-155"/>
      <point x="526" y="-155"/>
      <point x="526" y="-155" type="curve"/>
      <point x="526" y="-155"/>
      <point x="526" y="-167"/>
      <point x="526" y="-167" type="curve" smooth="yes"/>
      <point x="526" y="-202"/>
      <point x="554" y="-230"/>
      <point x="589" y="-230" type="curve" smooth="yes"/>
      <point x="589" y="-230"/>
      <point x="724" y="-230"/>
      <point x="724" y="-230" type="curve" smooth="yes"/>
      <point x="759" y="-230"/>
      <point x="786" y="-202"/>
      <point x="786" y="-167" type="curve" smooth="yes"/>
      <point x="786" y="-167"/>
      <point x="786" y="-150"/>
      <point x="786" y="-150" type="curve"/>
      <point x="786" y="-150"/>
      <point x="640" y="0"/>
    </contour>
  </outline>
</glyph>
<glyph name="Lacute" format="1">
  <advance width="880"/>
  <unicode hex="0139"/>
  <outline>
    <contour>
      <point x="350" y="255" type="curve"/>
      <point x="350" y="255"/>
      <point x="800" y="255"/>
      <point x="800" y="255" type="curve"/>
      <point x="800" y="255"/>
      <point x="800" y="0"/>
      <point x="800" y="0" type="curve"/>
      <point x="800" y="0"/>
      <point x="100" y="0"/>
      <point x="100" y="0" type="curve"/>
      <point x="100" y="0"/>
      <point x="100" y="1400"/>
      <point x="100" y="1400" type="curve"/>
      <point x="100" y="1400"/>
      <point x="350" y="1400"/>
      <point x="350" y="1400" type="curve"/>
      <point x="350" y="1400"/>
      <point x="350" y="255"/>
    </contour>
    <contour>
      <point x="460" y="1750" type="curve"/>
      <point x="460" y="1750"/>
      <point x="260" y="1490"/>
      <point x="260" y="1490" type="curve"/>
      <point x="260" y="1490"/>
      <point x="100" y="1490"/>
      <point x="100" y="1490" type="curve"/>
      <point x="100" y="1490"/>
      <point x="240" y="1750"/>
      <point x="240" y="1750" type="curve"/>
      <point x="240" y="1750"/>
      <point x="460" y="1750"/>
    </contour>
  </outline>
</glyph>
<glyph name="uni013B" format="1">
  <advance width="880"/>
  <unicode hex="013B"/>
  <outline>
    <contour>
      <point x="350" y="255" type="curve"/>
      <point x="350" y="255"/>
      <point x="800" y="255"/>
      <point x="800" y="255" type="curve"/>
      <point x="800" y="255"/>
      <point x="800" y="0"/>
      <point x="800" y="0" type="curve"/>
      <point x="800" y="0"/>
      <point x="720" y="0"/>
      <point x="720" y="0" type="curve"/>
      <point x="720" y="0"/>
      <point x="800" y="-80"/>
      <point x="800" y="-80" type="curve"/>
      <point x="800" y="-80"/>
      <point x="800" y="-230"/>
      <point x="800" y="-230" type="curve" smooth="yes"/>
      <point x="800" y="-318"/>
      <point x="728" y="-390"/>
      <point x="640" y="-390" type="curve" smooth="yes"/>
      <point x="640" y="-390"/>
      <point x="380" y="-390"/>
      <point x="380" y="-390" type="curve" smooth="yes"/>
      <point x="292" y="-390"/>
      <point x="220" y="-318"/>
      <point x="220" y="-230" type="curve" smooth="yes"/>
      <point x="220" y="-230"/>
      <point x="220" y="-155"/>
      <point x="220" y="-155" type="curve"/>
      <point x="220" y="-155"/>
      <point x="380" y="-155"/>
      <point x="380" y="-155" type="curve"/>
      <point x="380" y="-155"/>
      <point x="380" y="-167"/>
      <point x="380" y="-167" type="curve" smooth="yes"/>
      <point x="380" y="-202"/>
      <point x="408" y="-230"/>
      <point x="443" y="-230" type="curve" smooth="yes"/>
      <point x="443" y="-230"/>
      <point x="578" y="-230"/>
      <point x="578" y="-230" type="curve" smooth="yes"/>
      <point x="613" y="-230"/>
      <point x="640" y="-202"/>
      <point x="640" y="-167" type="curve" smooth="yes"/>
      <point x="640" y="-167"/>
      <point x="640" y="-150"/>
      <point x="640" y="-150" type="curve"/>
      <point x="640" y="-150"/>
      <point x="494" y="0"/>
      <point x="494" y="0" type="curve"/>
      <point x="494" y="0"/>
      <point x="100" y="0"/>
      <point x="100" y="0" type="curve"/>
      <point x="100" y="0"/>
      <point x="100" y="1400"/>
      <point x="100" y="1400" type="curve"/>
      <point x="100" y="1400"/>
      <point x="350" y="1400"/>
      <point x="350" y="1400" type="curve"/>
      <point x="350" y="1400"/>
      <point x="350" y="255"/>
    </contour>
  </outline>
</glyph>
<glyph name="ldot" format="1">
  <advance width="880"/>
  <unicode hex="0140"/>
  <outline>
    <contour>
      <point x="350" y="255" type="curve"/>
      <point x="350" y="255"/>
      <point x="800" y="255"/>
      <point x="800" y="255" type="curve"/>
      <point x="800" y="255"/>
      <point x="800" y="0"/>
      <point x="800" y="0" type="curve"/>
      <point x="800" y="0"/>
      <point x="100" y="0"/>
      <point x="100" y="0" type="curve"/>
      <point x="100" y="0"/>
      <point x="100" y="1400"/>
      <point x="100" y="1400" type="curve"/>
      <point x="100" y="1400"/>
      <point x="350" y="1400"/>
      <point x="350" y="1400" type="curve"/>
      <point x="350" y="1400"/>
      <point x="350" y="255"/>
    </contour>
    <contour>
      <point x="450" y="815" type="curve"/>
      <point x="450" y="815"/>
      <point x="680" y="815"/>
      <point x="680" y="815" type="curve"/>
      <point x="680" y="815"/>
      <point x="680" y="585"/>
      <point x="680" y="585" type="curve"/>
      <point x="680" y="585"/>
      <point x="450" y="585"/>
      <point x="450" y="585" type="curve"/>
      <point x="450" y="585"/>
      <point x="450" y="815"/>
    </contour>
  </outline>
</glyph>
<glyph name="Nacute" format="1">
  <advance width="980"/>
  <unicode hex="0143"/>
  <outline>
    <contour>
      <point x="640" y="610" type="curve"/>
      <point x="640" y="610"/>
      <point x="640" y="1400"/>
      <point x="640" y="1400" type="curve"/>
      <point x="640" y="1400"/>
      <point x="880" y="1400"/>
      <point x="880" y="1400" type="curve"/>
      <point x="880" y="1400"/>
      <point x="880" y="0"/>
      <point x="880" y="0" type="curve"/>
      <point x="880" y="0"/>
      <point x="670" y="0"/>
      <point x="670" y="0" type="curve"/>
      <point x="670" y="0"/>
      <point x="330" y="754"/>
      <point x="330" y="754" type="curve"/>
      <point x="330" y="754"/>
      <point x="330" y="0"/>
      <point x="330" y="0" type="curve"/>
      <point x="330" y="0"/>
      <point x="100" y="0"/>
      <point x="100" y="0" type="curve"/>
      <point x="100" y="0"/>
      <point x="100" y="1400"/>
      <point x="100" y="1400" type="curve"/>
      <point x="100" y="1400"/>
      <point x="310" y="1400"/>
      <point x="310" y="1400" type="curve"/>
      <point x="310" y="1400"/>
      <point x="640" y="610"/>
    </contour>
    <contour>
      <point x="680" y="1750" type="curve"/>
      <point x="680" y="1750"/>
      <point x="480" y="1490"/>
      <point x="480" y="1490" type="curve"/>
      <point x="480" y="1490"/>
      <point x="320" y="1490"/>
      <point x="320" y="1490" type="curve"/>
      <point x="320" y="1490"/>
      <point x="460" y="1750"/>
      <point x="460" y="1750" type="curve"/>
      <point x="460" y="1750"/>
      <point x="680" y="1750"/>
    </contour>
  </outline>
</glyph>
<glyph name="uni0146" format="1">
  <advance width="1036"/>
  <unicode hex="0146"/>
  <outline>
    <contour>
      <point x="630" y="630" type="curve"/>
      <point x="630" y="630"/>
      <point x="630" y="1400"/>
      <point x="630" y="1400" type="curve"/>
      <point x="630" y="1400"/>
      <point x="880" y="1400"/>
      <point x="880" y="1400" type="curve"/>
      <point x="880" y="1400"/>
      <point x="880" y="-24"/>
      <point x="880" y="-24" type="curve"/>
      <point x="880" y="-24"/>
      <point x="936" y="-80"/>
      <point x="936" y="-80" type="curve"/>
      <point x="936" y="-80"/>
      <point x="936" y="-230"/>
      <point x="936" y="-230" type="curve" smooth="yes"/>
      <point x="936" y="-318"/>
      <point x="864" y="-390"/>
      <point x="776" y="-390" type="curve" smooth="yes"/>
      <point x="776" y="-390"/>
      <point x="516" y="-390"/>
      <point x="516" y="-390" type="curve" smooth="yes"/>
      <point x="428" y="-390"/>
      <point x="356" y="-318"/>
      <point x="356" y="-230" type="curve" smooth="yes"/>
      <point x="356" y="-230"/>
      <point x="356" y="-155"/>
      <point x="356" y="-155" type="curve"/>
      <point x="356" y="-155"/>
      <point x="516" y="-155"/>
      <point x="516" y="-155" type="curve"/>
      <point x="516" y="-155"/>
      <point x="516" y="-167"/>
      <point x="516" y="-167" type="curve" smooth="yes"/>
      <point x="516" y="-202"/>
      <point x="544" y="-230"/>
      <point x="579" y="-230" type="curve" smooth="yes"/>
      <point x="579" y="-230"/>
      <point x="714" y="-230"/>
      <point x="714" y="-230" type="curve" smooth="yes"/>
      <point x="749" y="-230"/>
      <point x="776" y="-202"/>
      <point x="776" y="-167" type="curve" smooth="yes"/>
      <point x="776" y="-167"/>
      <point x="776" y="-150"/>
      <point x="776" y="-150" type="curve"/>
      <point x="776" y="-150"/>
      <point x="630" y="0"/>
      <point x="630" y="0" type="curve"/>
      <point x="630" y="0"/>
      <point x="350" y="734"/>
      <point x="350" y="734" type="curve"/>
      <point x="350" y="734"/>
      <point x="350" y="0"/>
      <point x="350" y="0" type="curve"/>
      <point x="350" y="0"/>
      <point x="100" y="0"/>
      <point x="100" y="0" type="curve"/>
      <point x="100" y="0"/>
      <point x="100" y="1400"/>
      <point x="100" y="1400" type="curve"/>
      <point x="100" y="1400"/>
      <point x="350" y="1400"/>
      <point x="350" y="1400" type="curve"/>
      <point x="350" y="1400"/>
      <point x="630" y="630"/>
    </contour>
  </outline>
</glyph>
<glyph name="OE" format="1">
  <advance width="1529"/>
  <unicode hex="0152"/>
  <outline>
    <contour>
      <point x="967" y="240" type="curve"/>
      <point x="967" y="240"/>
      <point x="1429" y="240"/>
      <point x="1429" y="240" type="curve"/>
      <point x="1429" y="240"/>
      <point x="1429" y="0"/>
      <point x="1429" y="0" type="curve"/>
      <point x="1429" y="0"/>
      <point x="717" y="0"/>
      <point x="717" y="0" type="curve"/>
      <point x="717" y="0"/>
      <point x="717" y="42"/>
      <point x="717" y="42" type="curve"/>
      <point x="690" y="15"/>
      <point x="653" y="0"/>
      <point x="615" y="0" type="curve" smooth="yes"/>
      <point x="615" y="0"/>
      <point x="245" y="0"/>
      <point x="245" y="0" type="curve" smooth="yes"/>
      <point x="165" y="0"/>
      <point x="100" y="65"/>
      <point x="100" y="145" type="curve" smooth="yes"/>
      <point x="100" y="145"/>
      <point x="100" y="1255"/>
      <point x="100" y="1255" type="curve" smooth="yes"/>
      <point x="100" y="1335"/>
      <point x="165" y="1400"/>
      <point x="245" y="1400" type="curve" smooth="yes"/>
      <point x="245" y="1400"/>
      <point x="615" y="1400"/>
      <point x="615" y="1400" type="curve" smooth="yes"/>
      <point x="653" y="1400"/>
      <point x="690" y="1385"/>
      <point x="717" y="1358" type="curve"/>
      <point x="717" y="1358"/>
      <point x="717" y="1400"/>
      <point x="717" y="1400" type="curve"/>
      <point x="717" y="1400"/>
      <point x="1428" y="1400"/>
      <point x="1428" y="1400" type="curve"/>
      <point x="1428" y="1400"/>
      <point x="1428" y="1170"/>
      <point x="1428" y="1170" type="curve"/>
      <point x="1428" y="1170"/>
      <point x="967" y="1170"/>
      <point x="967" y="1170" type="curve"/>
      <point x="967" y="1170"/>
      <point x="967" y="820"/>
      <point x="967" y="820" type="curve"/>
      <point x="967" y="820"/>
      <point x="1347" y="820"/>
      <point x="1347" y="820" type="curve"/>
      <point x="1347" y="820"/>
      <point x="1347" y="580"/>
      <point x="1347" y="580" type="curve"/>
      <point x="1347" y="580"/>
      <point x="967" y="580"/>
      <point x="967" y="580" type="curve"/>
      <point x="967" y="580"/>
      <point x="967" y="240"/>
    </contour>
    <contour>
      <point x="717" y="1087" type="curve" smooth="yes"/>
      <point x="717" y="1122"/>
      <point x="690" y="1150"/>
      <point x="655" y="1150" type="curve" smooth="yes"/>
      <point x="655" y="1150"/>
      <point x="412" y="1150"/>
      <point x="412" y="1150" type="curve" smooth="yes"/>
      <point x="377" y="1150"/>
      <point x="350" y="1122"/>
      <point x="350" y="1087" type="curve" smooth="yes"/>
      <point x="350" y="1087"/>
      <point x="350" y="313"/>
      <point x="350" y="313" type="curve" smooth="yes"/>
      <point x="350" y="278"/>
      <point x="377" y="250"/>
      <point x="412" y="250" type="curve" smooth="yes"/>
      <point x="412" y="250"/>
      <point x="655" y="250"/>
      <point x="655" y="250" type="curve" smooth="yes"/>
      <point x="690" y="250"/>
      <point x="717" y="278"/>
      <point x="717" y="313" type="curve" smooth="yes"/>
      <point x="717" y="313"/>
      <point x="717" y="1087"/>
    </contour>
  </outline>
</glyph>
<glyph name="scedilla" format="1">
  <advance width="940"/>
  <unicode hex="015F"/>
  <outline>
    <contour>
      <point x="464" y="0" type="curve"/>
      <point x="464" y="0"/>
      <point x="250" y="0"/>
      <point x="250" y="0" type="curve" smooth="yes"/>
      <point x="167" y="0"/>
      <point x="100" y="67"/>
      <point x="100" y="150" type="curve" smooth="yes"/>
      <point x="100" y="150"/>
      <point x="100" y="463"/>
      <point x="100" y="463" type="curve"/>
      <point x="100" y="463"/>
      <point x="340" y="463"/>
      <point x="340" y="463" type="curve"/>
      <point x="340" y="463"/>
      <point x="340" y="261"/>
      <point x="340" y="261" type="curve" smooth="yes"/>
      <point x="340" y="249"/>
      <point x="349" y="240"/>
      <point x="361" y="240" type="curve" smooth="yes"/>
      <point x="361" y="240"/>
      <point x="579" y="240"/>
      <point x="579" y="240" type="curve" smooth="yes"/>
      <point x="591" y="240"/>
      <point x="600" y="249"/>
      <point x="600" y="261" type="curve" smooth="yes"/>
      <point x="600" y="261"/>
      <point x="600" y="559"/>
      <point x="600" y="559" type="curve" smooth="yes"/>
      <point x="600" y="571"/>
      <point x="591" y="580"/>
      <point x="579" y="580" type="curve" smooth="yes"/>
      <point x="579" y="580"/>
      <point x="250" y="580"/>
      <point x="250" y="580" type="curve" smooth="yes"/>
      <point x="167" y="580"/>
      <point x="100" y="648"/>
      <point x="100" y="731" type="curve" smooth="yes"/>
      <point x="100" y="731"/>
      <point x="100" y="1250"/>
      <point x="100" y="1250" type="curve" smooth="yes"/>
      <point x="100" y="1333"/>
      <point x="167" y="1400"/>
      <point x="250" y="1400" type="curve" smooth="yes"/>
      <point x="250" y="1400"/>
      <point x="690" y="1400"/>
      <point x="690" y="1400" type="curve" smooth="yes"/>
      <point x="773" y="1400"/>
      <point x="840" y="1333"/>
      <point x="840" y="1250" type="curve" smooth="yes"/>
      <point x="840" y="1250"/>
      <point x="840" y="980"/>
      <point x="840" y="980" type="curve"/>
      <point x="840" y="980"/>
      <point x="600" y="980"/>
      <point x="600" y="980" type="curve"/>
      <point x="600" y="980"/>
      <point x="600" y="1139"/>
      <point x="600" y="1139" type="curve" smooth="yes"/>
      <point x="600" y="1151"/>
      <point x="591" y="1160"/>
      <point x="579" y="1160" type="curve" smooth="yes"/>
      <point x="579" y="1160"/>
      <point x="361" y="1160"/>
      <point x="361" y="1160" type="curve" smooth="yes"/>
      <point x="349" y="1160"/>
      <point x="340" y="1151"/>
      <point x="340" y="1139" type="curve" smooth="yes"/>
      <point x="340" y="1139"/>
      <point x="340" y="841"/>
      <point x="340" y="841" type="curve" smooth="yes"/>
      <point x="340" y="829"/>
      <point x="349" y="820"/>
      <point x="361" y="820" type="curve" smooth="yes"/>
      <point x="361" y="820"/>
      <point x="690" y="820"/>
      <point x="690" y="820" type="curve" smooth="yes"/>
      <point x="773" y="820"/>
      <point x="840" y="753"/>
      <point x="840" y="670" type="curve" smooth="yes"/>
      <point x="840" y="670"/>
      <point x="840" y="150"/>
      <point x="840" y="150" type="curve" smooth="yes"/>
      <point x="840" y="67"/>
      <point x="773" y="0"/>
      <point x="690" y="0" type="curve"/>
      <point x="690" y="0"/>
      <point x="770" y="-80"/>
      <point x="770" y="-80" type="curve"/>
      <point x="770" y="-80"/>
      <point x="770" y="-230"/>
      <point x="770" y="-230" type="curve" smooth="yes"/>
      <point x="770" y="-318"/>
      <point x="698" y="-390"/>
      <point x="610" y="-390" type="curve" smooth="yes"/>
      <point x="610" y="-390"/>
      <point x="350" y="-390"/>
      <point x="350" y="-390" type="curve" smooth="yes"/>
      <point x="262" y="-390"/>
      <point x="190" y="-318"/>
      <point x="190" y="-230" type="curve" smooth="yes"/>
      <point x="190" y="-230"/>
      <point x="190" y="-155"/>
      <point x="190" y="-155" type="curve"/>
      <point x="190" y="-155"/>
      <point x="350" y="-155"/>
      <point x="350" y="-155" type="curve"/>
      <point x="350" y="-155"/>
      <point x="350" y="-167"/>
      <point x="350" y="-167" type="curve" smooth="yes"/>
      <point x="350" y="-202"/>
      <point x="378" y="-230"/>
      <point x="413" y="-230" type="curve" smooth="yes"/>
      <point x="413" y="-230"/>
      <point x="548" y="-230"/>
      <point x="548" y="-230" type="curve" smooth="yes"/>
      <point x="583" y="-230"/>
      <point x="610" y="-202"/>
      <point x="610" y="-167" type="curve" smooth="yes"/>
      <point x="610" y="-167"/>
      <point x="610" y="-150"/>
      <point x="610" y="-150" type="curve"/>
      <point x="610" y="-150"/>
      <point x="464" y="0"/>
    </contour>
  </outline>
</glyph>
<glyph name="uni0162" format="1">
  <advance width="880"/>
  <unicode hex="0162"/>
  <outline>
    <contour>
      <point x="565" y="-24" type="curve"/>
      <point x="565" y="-24"/>
      <point x="621" y="-80"/>
      <point x="621" y="-80" type="curve"/>
      <point x="621" y="-80"/>
      <point x="621" y="-230"/>
      <point x="621" y="-230" type="curve" smooth="yes"/>
      <point x="621" y="-318"/>
      <point x="549" y="-390"/>
      <point x="461" y="-390" type="curve" smooth="yes"/>
      <point x="461" y="-390"/>
      <point x="201" y="-390"/>
      <point x="201" y="-390" type="curve" smooth="yes"/>
      <point x="113" y="-390"/>
      <point x="41" y="-318"/>
      <point x="41" y="-230" type="curve" smooth="yes"/>
      <point x="41" y="-230"/>
      <point x="41" y="-155"/>
      <point x="41" y="-155" type="curve"/>
      <point x="41" y="-155"/>
      <point x="201" y="-155"/>
      <point x="201" y="-155" type="curve"/>
      <point x="201" y="-155"/>
      <point x="201" y="-167"/>
      <point x="201" y="-167" type="curve" smooth="yes"/>
      <point x="201" y="-202"/>
      <point x="229" y="-230"/>
      <point x="264" y="-230" type="curve" smooth="yes"/>
      <point x="264" y="-230"/>
      <point x="399" y="-230"/>
      <point x="399" y="-230" type="curve" smooth="yes"/>
      <point x="434" y="-230"/>
      <point x="461" y="-202"/>
      <point x="461" y="-167" type="curve" smooth="yes"/>
      <point x="461" y="-167"/>
      <point x="461" y="-150"/>
      <point x="461" y="-150" type="curve"/>
      <point x="461" y="-150"/>
      <point x="315" y="0"/>
      <point x="315" y="0" type="curve"/>
      <point x="315" y="0"/>
      <point x="315" y="1160"/>
      <point x="315" y="1160" type="curve"/>
      <point x="315" y="1160"/>
      <point x="50" y="1160"/>
      <point x="50" y="1160" type="curve"/>
      <point x="50" y="1160"/>
      <point x="50" y="1400"/>
      <point x="50" y="1400" type="curve"/>
      <point x="50" y="1400"/>
      <point x="830" y="1400"/>
      <point x="830" y="1400" type="curve"/>
      <point x="830" y="1400"/>
      <point x="830" y="1160"/>
      <point x="830" y="1160" type="curve"/>
      <point x="830" y="1160"/>
      <point x="565" y="1160"/>
      <point x="565" y="1160" type="curve"/>
      <point x="565" y="1160"/>
      <point x="565" y="-24"/>
    </contour>
  </outline>
</glyph>
<glyph name="Tcaron" format="1">
  <advance width="880"/>
  <unicode hex="0164"/>
  <outline>
    <contour>
      <point x="315" y="0" type="curve"/>
      <point x="315" y="0"/>
      <point x="315" y="1160"/>
      <point x="315" y="1160" type="curve"/>
      <point x="315" y="1160"/>
      <point x="50" y="1160"/>
      <point x="50" y="1160" type="curve"/>
      <point x="50" y="1160"/>
      <point x="50" y="1400"/>
      <point x="50" y="1400" type="curve"/>
      <point x="50" y="1400"/>
      <point x="830" y="1400"/>
      <point x="830" y="1400" type="curve"/>
      <point x="830" y="1400"/>
      <point x="830" y="1160"/>
      <point x="830" y="1160" type="curve"/>
      <point x="830" y="1160"/>
      <point x="565" y="1160"/>
      <point x="565" y="1160" type="curve"/>
      <point x="565" y="1160"/>
      <point x="565" y="0"/>
      <point x="565" y="0" type="curve"/>
      <point x="565" y="0"/>
      <point x="315" y="0"/>
    </contour>
    <contour>
      <point x="404" y="1500" type="curve"/>
      <point x="404" y="1500"/>
      <point x="220" y="1800"/>
      <point x="220" y="1800" type="curve"/>
      <point x="220" y="1800"/>
      <point x="375" y="1800"/>
      <point x="375" y="1800" type="curve"/>
      <point x="375" y="1800"/>
      <point x="491" y="1618"/>
      <point x="491" y="1618" type="curve"/>
      <point x="491" y="1618"/>
      <point x="606" y="1800"/>
      <point x="606" y="1800" type="curve"/>
      <point x="606" y="1800"/>
      <point x="761" y="1800"/>
      <point x="761" y="1800" type="curve"/>
      <point x="761" y="1800"/>
      <point x="577" y="1500"/>
      <point x="577" y="1500" type="curve"/>
      <point x="577" y="1500"/>
      <point x="404" y="1500"/>
    </contour>
  </outline>
</glyph>
<glyph name="tbar" format="1">
  <advance width="880"/>
  <unicode hex="0167"/>
  <outline>
    <contour>
      <point x="315" y="0" type="curve"/>
      <point x="315" y="0"/>
      <point x="315" y="645"/>
      <point x="315" y="645" type="curve"/>
      <point x="315" y="645"/>
      <point x="220" y="645"/>
      <point x="220" y="645" type="curve"/>
      <point x="220" y="645"/>
      <point x="220" y="755"/>
      <point x="220" y="755" type="curve"/>
      <point x="220" y="755"/>
      <point x="315" y="755"/>
      <point x="315" y="755" type="curve"/>
      <point x="315" y="755"/>
      <point x="315" y="1160"/>
      <point x="315" y="1160" type="curve"/>
      <point x="315" y="1160"/>
      <point x="50" y="1160"/>
      <point x="50" y="1160" type="curve"/>
      <point x="50" y="1160"/>
      <point x="50" y="1400"/>
      <point x="50" y="1400" type="curve"/>
      <point x="50" y="1400"/>
      <point x="830" y="1400"/>
      <point x="830" y="1400" type="curve"/>
      <point x="830" y="1400"/>
      <point x="830" y="1160"/>
      <point x="830" y="1160" type="curve"/>
      <point x="830" y="1160"/>
      <point x="565" y="1160"/>
      <point x="565" y="1160" type="curve"/>
      <point x="565" y="1160"/>
      <point x="565" y="755"/>
      <point x="565" y="755" type="curve"/>
      <point x="565" y="755"/>
      <point x="660" y="755"/>
      <point x="660" y="755" type="curve"/>
      <point x="660" y="755"/>
      <point x="660" y="645"/>
      <point x="660" y="645" type="curve"/>
      <point x="660" y="645"/>
      <point x="565" y="645"/>
      <point x="565" y="645" type="curve"/>
      <point x="565" y="645"/>
      <point x="565" y="0"/>
      <point x="565" y="0" type="curve"/>
      <point x="565" y="0"/>
      <point x="315" y="0"/>
    </contour>
  </outline>
</glyph>
<glyph name="Uring" format="1">
  <advance width="970"/>
  <unicode hex="016E"/>
  <outline>
    <contour>
      <point x="350" y="1400" type="curve"/>
      <point x="350" y="1400"/>
      <point x="350" y="250"/>
      <point x="350" y="250" type="curve"/>
      <point x="350" y="250"/>
      <point x="620" y="250"/>
      <point x="620" y="250" type="curve"/>
      <point x="620" y="250"/>
      <point x="620" y="1400"/>
      <point x="620" y="1400" type="curve"/>
      <point x="620" y="1400"/>
      <point x="870" y="1400"/>
      <point x="870" y="1400" type="curve"/>
      <point x="870" y="1400"/>
      <point x="870" y="145"/>
      <point x="870" y="145" type="curve" smooth="yes"/>
      <point x="870" y="65"/>
      <point x="805" y="0"/>
      <point x="725" y="0" type="curve" smooth="yes"/>
      <point x="725" y="0"/>
      <point x="245" y="0"/>
      <point x="245" y="0" type="curve" smooth="yes"/>
      <point x="165" y="0"/>
      <point x="100" y="65"/>
      <point x="100" y="145" type="curve" smooth="yes"/>
      <point x="100" y="145"/>
      <point x="100" y="1400"/>
      <point x="100" y="1400" type="curve"/>
      <point x="100" y="1400"/>
      <point x="350" y="1400"/>
    </contour>
    <contour>
      <point x="625" y="1661" type="curve" smooth="yes"/>
      <point x="625" y="1661"/>
      <point x="625" y="1626"/>
      <point x="625" y="1626" type="curve" smooth="yes"/>
      <point x="625" y="1549"/>
      <point x="564" y="1490"/>
      <point x="485" y="1490" type="curve" smooth="yes"/>
      <point x="406" y="1490"/>
      <point x="345" y="1549"/>
      <point x="345" y="1626" type="curve" smooth="yes"/>
      <point x="345" y="1626"/>
      <point x="345" y="1661"/>
      <point x="345" y="1661" type="curve" smooth="yes"/>
      <point x="345" y="1738"/>
      <point x="406" y="1800"/>
      <point x="485" y="1800" type="curve" smooth="yes"/>
      <point x="564" y="1800"/>
      <point x="625" y="1738"/>
    </contour>
    <contour>
      <point x="540" y="1659" type="curve" smooth="yes"/>
      <point x="540" y="1700"/>
      <point x="515" y="1730"/>
      <point x="485" y="1730" type="curve" smooth="yes"/>
      <point x="455" y="1730"/>
      <point x="430" y="1700"/>
      <point x="430" y="1659" type="curve" smooth="yes"/>
      <point x="430" y="1659"/>
      <point x="430" y="1631"/>
      <point x="430" y="1631" type="curve" smooth="yes"/>
      <point x="430" y="1589"/>
      <point x="455" y="1560"/>
      <point x="485" y="1560" type="curve" smooth="yes"/>
      <point x="515" y="1560"/>
      <point x="540" y="1589"/>
      <point x="540" y="1631" type="curve" smooth="yes"/>
      <point x="540" y="1631"/>
      <point x="540" y="1659"/>
    </contour>
  </outline>
</glyph>
<glyph name="Uogonek" format="1">
  <advance width="970"/>
  <unicode hex="0172"/>
  <outline>
    <contour>
      <point x="350" y="1400" type="curve"/>
      <point x="350" y="1400"/>
      <point x="350" y="250"/>
      <point x="350" y="250" type="curve"/>
      <point x="350" y="250"/>
      <point x="620" y="250"/>
      <point x="620" y="250" type="curve"/>
      <point x="620" y="250"/>
      <point x="620" y="1400"/>
      <point x="620" y="1400" type="curve"/>
      <point x="620" y="1400"/>
      <point x="870" y="1400"/>
      <point x="870" y="1400" type="curve"/>
      <point x="870" y="1400"/>
      <point x="870" y="145"/>
      <point x="870" y="145" type="curve" smooth="yes"/>
      <point x="870" y="65"/>
      <point x="805" y="0"/>
      <point x="725" y="0" type="curve" smooth="yes"/>
      <point x="725" y="0"/>
      <point x="470" y="0"/>
      <point x="470" y="0" type="curve"/>
      <point x="470" y="0"/>
      <point x="320" y="-153"/>
      <point x="320" y="-153" type="curve"/>
      <point x="320" y="-153"/>
      <point x="320" y="-167"/>
      <point x="320" y="-167" type="curve" smooth="yes"/>
      <point x="320" y="-202"/>
      <point x="347" y="-230"/>
      <point x="382" y="-230" type="curve" smooth="yes"/>
      <point x="382" y="-230"/>
      <point x="517" y="-230"/>
      <point x="517" y="-230" type="curve" smooth="yes"/>
      <point x="552" y="-230"/>
      <point x="580" y="-202"/>
      <point x="580" y="-167" type="curve" smooth="yes"/>
      <point x="580" y="-167"/>
      <point x="580" y="-155"/>
      <point x="580" y="-155" type="curve"/>
      <point x="580" y="-155"/>
      <point x="740" y="-155"/>
      <point x="740" y="-155" type="curve"/>
      <point x="740" y="-155"/>
      <point x="740" y="-230"/>
      <point x="740" y="-230" type="curve" smooth="yes"/>
      <point x="740" y="-318"/>
      <point x="668" y="-390"/>
      <point x="580" y="-390" type="curve" smooth="yes"/>
      <point x="580" y="-390"/>
      <point x="320" y="-390"/>
      <point x="320" y="-390" type="curve" smooth="yes"/>
      <point x="232" y="-390"/>
      <point x="160" y="-318"/>
      <point x="160" y="-230" type="curve" smooth="yes"/>
      <point x="160" y="-230"/>
      <point x="160" y="-80"/>
      <point x="160" y="-80" type="curve"/>
      <point x="160" y="-80"/>
      <point x="240" y="0"/>
      <point x="240" y="0" type="curve"/>
      <point x="162" y="3"/>
      <point x="100" y="67"/>
      <point x="100" y="145" type="curve" smooth="yes"/>
      <point x="100" y="145"/>
      <point x="100" y="1400"/>
      <point x="100" y="1400" type="curve"/>
      <point x="100" y="1400"/>
      <point x="350" y="1400"/>
    </contour>
  </outline>
</glyph>
<glyph name="Ycircumflex" format="1">
  <advance width="920"/>
  <unicode hex="0176"/>
  <outline>
    <contour>
      <point x="860" y="1400" type="curve"/>
      <point x="860" y="1400"/>
      <point x="585" y="506"/>
      <point x="585" y="506" type="curve"/>
      <point x="585" y="506"/>
      <point x="585" y="0"/>
      <point x="585" y="0" type="curve"/>
      <point x="585" y="0"/>
      <point x="335" y="0"/>
      <point x="335" y="0" type="curve"/>
      <point x="335" y="0"/>
      <point x="335" y="506"/>
      <point x="335" y="506" type="curve"/>
      <point x="335" y="506"/>
      <point x="60" y="1400"/>
      <point x="60" y="1400" type="curve"/>
      <point x="60" y="1400"/>
      <point x="310" y="1400"/>
      <point x="310" y="1400" type="curve"/>
      <point x="310" y="1400"/>
      <point x="460" y="810"/>
      <point x="460" y="810" type="curve"/>
      <point x="460" y="810"/>
      <point x="600" y="1400"/>
      <point x="600" y="1400" type="curve"/>
      <point x="600" y="1400"/>
      <point x="860" y="1400"/>
    </contour>
    <contour>
      <point x="414" y="1800" type="curve"/>
      <point x="414" y="1800"/>
      <point x="587" y="1800"/>
      <point x="587" y="1800" type="curve"/>
      <point x="587" y="1800"/>
      <point x="771" y="1500"/>
      <point x="771" y="1500" type="curve"/>
      <point x="771" y="1500"/>
      <point x="616" y="1500"/>
      <point x="616" y="1500" type="curve"/>
      <point x="616" y="1500"/>
      <point x="501" y="1682"/>
      <point x="501" y="1682" type="curve"/>
      <point x="501" y="1682"/>
      <point x="385" y="1500"/>
      <point x="385" y="1500" type="curve"/>
      <point x="385" y="1500"/>
      <point x="230" y="1500"/>
      <point x="230" y="1500" type="curve"/>
      <point x="230" y="1500"/>
      <point x="414" y="1800"/>
    </contour>
  </outline>
</glyph>
<glyph name="Zacute" format="1">
  <advance width="890"/>
  <unicode hex="0179"/>
  <outline>
    <contour>
      <point x="90" y="1400" type="curve"/>
      <point x="90" y="1400"/>
      <point x="800" y="1400"/>
      <point x="800" y="1400" type="curve"/>
      <point x="800" y="1400"/>
      <point x="800" y="1240"/>
      <point x="800" y="1240" type="curve"/>
      <point x="800" y="1240"/>
      <point x="384" y="230"/>
      <point x="384" y="230" type="curve"/>
      <point x="384" y="230"/>
      <point x="800" y="230"/>
      <point x="800" y="230" type="curve"/>
      <point x="800" y="230"/>
      <point x="800" y="0"/>
      <point x="800" y="0" type="curve"/>
      <point x="800" y="0"/>
      <point x="90" y="0"/>
      <point x="90" y="0" type="curve"/>
      <point x="90" y="0"/>
      <point x="90" y="160"/>
      <point x="90" y="160" type="curve"/>
      <point x="90" y="160"/>
      <point x="529" y="1170"/>
      <point x="529" y="1170" type="curve"/>
      <point x="529" y="1170"/>
      <point x="90" y="1170"/>
      <point x="90" y="1170" type="curve"/>
      <point x="90" y="1170"/>
      <point x="90" y="1400"/>
    </contour>
    <contour>
      <point x="650" y="1750" type="curve"/>
      <point x="650" y="1750"/>
      <point x="450" y="1490"/>
      <point x="450" y="1490" type="curve"/>
      <point x="450" y="1490"/>
      <point x="290" y="1490"/>
      <point x="290" y="1490" type="curve"/>
      <point x="290" y="1490"/>
      <point x="430" y="1750"/>
      <point x="430" y="1750" type="curve"/>
      <point x="430" y="1750"/>
      <point x="650" y="1750"/>
    </contour>
  </outline>
</glyph>
<glyph name="zcaron" format="1">
  <advance width="890"/>
  <unicode hex="017E"/>
  <outline>
    <contour>
      <point x="90" y="1400" type="curve"/>
      <point x="90" y="1400"/>
      <point x="800" y="1400"/>
      <point x="800" y="1400" type="curve"/>
      <point x="800" y="1400"/>
      <point x="800" y="1240"/>
      <point x="800" y="1240" type="curve"/>
      <point x="800" y="1240"/>
      <point x="384" y="230"/>
      <point x="384" y="230" type="curve"/>
      <point x="384" y="230"/>
      <point x="800" y="230"/>
      <point x="800" y="230" type="curve"/>
      <point x="800" y="230"/>
      <point x="800" y="0"/>
      <point x="800" y="0" type="curve"/>
      <point x="800" y="0"/>
      <point x="90" y="0"/>
      <point x="90" y="0" type="curve"/>
      <point x="90" y="0"/>
      <point x="90" y="160"/>
      <point x="90" y="160" type="curve"/>
      <point x="90" y="160"/>
      <point x="529" y="1170"/>
      <point x="529" y="1170" type="curve"/>
      <point x="529" y="1170"/>
      <point x="90" y="1170"/>
      <point x="90" y="1170" type="curve"/>
      <point x="90" y="1170"/>
      <point x="90" y="1400"/>
    </contour>
    <contour>
      <point x="359" y="1500" type="curve"/>
      <point x="359" y="1500"/>
      <point x="175" y="1800"/>
      <point x="175" y="1800" type="curve"/>
      <point x="175" y="1800"/>
      <point x="330" y="1800"/>
      <point x="330" y="1800" type="curve"/>
      <point x="330" y="1800"/>
      <point x="446" y="1618"/>
      <point x="446" y="1618" type="curve"/>
      <point x="446" y="1618"/>
      <point x="561" y="1800"/>
      <point x="561" y="1800" type="curve"/>
      <point x="561" y="1800"/>
      <point x="716" y="1800"/>
      <point x="716" y="1800" type="curve"/>
      <point x="716" y="1800"/>
      <point x="532" y="1500"/>
      <point x="532" y="1500" type="curve"/>
      <point x="532" y="1500"/>
      <point x="359" y="1500"/>
    </contour>
  </outline>
</glyph>
<glyph name="longs" format="1">
  <advance width="905"/>
  <unicode hex="017F"/>
  <outline>
    <contour>
      <point x="425" y="1400" type="curve" smooth="yes"/>
      <point x="425" y="1400"/>
      <point x="805" y="1400"/>
      <point x="805" y="1400" type="curve"/>
      <point x="805" y="1400"/>
      <point x="805" y="1170"/>
      <point x="805" y="1170" type="curve"/>
      <point x="805" y="1170"/>
      <point x="563" y="1170"/>
      <point x="563" y="1170" type="curve" smooth="yes"/>
      <point x="528" y="1170"/>
      <point x="500" y="1142"/>
      <point x="500" y="1107" type="curve" smooth="yes"/>
      <point x="500" y="1107"/>
      <point x="500" y="0"/>
      <point x="500" y="0" type="curve"/>
      <point x="500" y="0"/>
      <point x="260" y="0"/>
      <point x="260" y="0" type="curve"/>
      <point x="260" y="0"/>
      <point x="260" y="770"/>
      <point x="260" y="770" type="curve"/>
      <point x="260" y="770"/>
      <point x="100" y="770"/>
      <point x="100" y="770" type="curve"/>
      <point x="100" y="770"/>
      <point x="100" y="1000"/>
      <point x="100" y="1000" type="curve"/>
      <point x="100" y="1000"/>
      <point x="260" y="1000"/>
      <point x="260" y="1000" type="curve"/>
      <point x="260" y="1000"/>
      <point x="260" y="1235"/>
      <point x="260" y="1235" type="curve" smooth="yes"/>
      <point x="260" y="1326"/>
      <point x="334" y="1400"/>
    </contour>
  </outline>
</glyph>
<glyph name="uni02BA" format="1">
  <advance width="790"/>
  <unicode hex="02BA"/>
  <outline>
    <contour>
      <point x="440" y="1500" type="curve"/>
      <point x="440" y="1500"/>
      <point x="300" y="1100"/>
      <point x="300" y="1100" type="curve"/>
      <point x="300" y="1100"/>
      <point x="100" y="1100"/>
      <point x="100" y="1100" type="curve"/>
      <point x="100" y="1100"/>
      <point x="240" y="1500"/>
      <point x="240" y="1500" type="curve"/>
      <point x="240" y="1500"/>
      <point x="440" y="1500"/>
    </contour>
    <contour>
      <point x="350" y="1100" type="curve"/>
      <point x="350" y="1100"/>
      <point x="490" y="1500"/>
      <point x="490" y="1500" type="curve"/>
      <point x="490" y="1500"/>
      <point x="690" y="1500"/>
      <point x="690" y="1500" type="curve"/>
      <point x="690" y="1500"/>
      <point x="550" y="1100"/>
      <point x="550" y="1100" type="curve"/>
      <point x="550" y="1100"/>
      <point x="350" y="1100"/>
    </contour>
  </outline>
</glyph>
<glyph name="ring" format="1">
  <advance width="480"/>
  <unicode hex="02DA"/>
  <outline>
    <contour>
      <point x="380" y="1661" type="curve" smooth="yes"/>
      <point x="380" y="1661"/>
      <point x="380" y="1626"/>
      <point x="380" y="1626" type="curve" smooth="yes"/>
      <point x="380" y="1549"/>
      <point x="319" y="1490"/>
      <point x="240" y="1490" type="curve" smooth="yes"/>
      <point x="161" y="1490"/>
      <point x="100" y="1549"/>
      <point x="100" y="1626" type="curve" smooth="yes"/>
      <point x="100" y="1626"/>
      <point x="100" y="1661"/>
      <point x="100" y="1661" type="curve" smooth="yes"/>
      <point x="100" y="1738"/>
      <point x="161" y="1800"/>
      <point x="240" y="1800" type="curve" smooth="yes"/>
      <point x="319" y="1800"/>
      <point x="380" y="1738"/>
    </contour>
    <contour>
      <point x="295" y="1659" type="curve" smooth="yes"/>
      <point x="295" y="1700"/>
      <point x="270" y="1730"/>
      <point x="240" y="1730" type="curve" smooth="yes"/>
      <point x="210" y="1730"/>
      <point x="185" y="1700"/>
      <point x="185" y="1659" type="curve" smooth="yes"/>
      <point x="185" y="1659"/>
      <point x="185" y="1631"/>
      <point x="185" y="1631" type="curve" smooth="yes"/>
      <point x="185" y="1589"/>
      <point x="210" y="1560"/>
      <point x="240" y="1560" type="curve" smooth="yes"/>
      <point x="270" y="1560"/>
      <point x="295" y="1589"/>
      <point x="295" y="1631" type="curve" smooth="yes"/>
      <point x="295" y="1631"/>
      <point x="295" y="1659"/>
    </contour>
  </outline>
</glyph>
<glyph name="acutecomb" format="1">
  <advance width="560"/>
  <unicode hex="0301"/>
  <outline>
    <contour>
      <point x="460" y="1750" type="curve"/>
      <point x="460" y="1750"/>
      <point x="260" y="1490"/>
      <point x="260" y="1490" type="curve"/>
      <point x="260" y="1490"/>
      <point x="100" y="1490"/>
      <point x="100" y="1490" type="curve"/>
      <point x="100" y="1490"/>
      <point x="240" y="1750"/>
      <point x="240" y="1750" type="curve"/>
      <point x="240" y="1750"/>
      <point x="460" y="1750"/>
    </contour>
  </outline>
</glyph>
<glyph name="uni0304" format="1">
  <advance width="640"/>
  <unicode hex="0304"/>
  <outline>
    <contour>
      <point x="100" y="1640" type="curve"/>
      <point x="100" y="1640"/>
      <point x="540" y="1640"/>
      <point x="540" y="1640" type="curve"/>
      <point x="540" y="1640"/>
      <point x="540" y="1530"/>
      <point x="540" y="1530" type="curve"/>
      <point x="540" y="1530"/>
      <point x="100" y="1530"/>
      <point x="100" y="1530" type="curve"/>
      <point x="100" y="1530"/>
      <point x="100" y="1640"/>
    </contour>
  </outline>
</glyph>
<glyph name="uni0305" format="1">
  <advance width="740"/>
  <unicode hex="0305"/>
  <outline>
    <contour>
      <point x="100" y="1800" type="curve"/>
      <point x="100" y="1800"/>
      <point x="640" y="1800"/>
      <point x="640" y="1800" type="curve"/>
      <point x="640" y="1800"/>
      <point x="640" y="1690"/>
      <point x="640" y="1690" type="curve"/>
      <point x="640" y="1690"/>
      <point x="100" y="1690"/>
      <point x="100" y="1690" type="curve"/>
      <point x="100" y="1690"/>
      <point x="100" y="1800"/>
    </contour>
  </outline>
</glyph>
<glyph name="uni0306" format="1">
  <advance width="592"/>
  <unicode hex="0306"/>
  <outline>
    <contour>
      <point x="296" y="1504" type="curve" smooth="yes"/>
      <point x="200" y="1504"/>
      <point x="115" y="1575"/>
      <point x="100" y="1667" type="curve"/>
      <point x="100" y="1667"/>
      <point x="211" y="1700"/>
      <point x="211" y="1700" type="curve"/>
      <point x="211" y="1656"/>
      <point x="252" y="1619"/>
      <point x="296" y="1619" type="curve" smooth="yes"/>
      <point x="340" y="1619"/>
      <point x="381" y="1656"/>
      <point x="381" y="1700" type="curve"/>
      <point x="381" y="1700"/>
      <point x="492" y="1667"/>
      <point x="492" y="1667" type="curve"/>
      <point x="477" y="1575"/>
      <point x="392" y="1504"/>
    </contour>
  </outline>
</glyph>
<glyph name="uni030B" format="1">
  <advance width="860"/>
  <unicode hex="030B"/>
  <outline>
    <contour>
      <point x="460" y="1750" type="curve"/>
      <point x="460" y="1750"/>
      <point x="260" y="1490"/>
      <point x="260" y="1490" type="curve"/>
      <point x="260" y="1490"/>
      <point x="100" y="1490"/>
      <point x="100" y="1490" type="curve"/>
      <point x="100" y="1490"/>
      <point x="240" y="1750"/>
      <point x="240" y="1750" type="curve"/>
      <point x="240" y="1750"/>
      <point x="460" y="1750"/>
    </contour>
    <contour>
      <point x="760" y="1750" type="curve"/>
      <point x="760" y="1750"/>
      <point x="560" y="1490"/>
      <point x="560" y="1490" type="curve"/>
      <point x="560" y="1490"/>
      <point x="400" y="1490"/>
      <point x="400" y="1490" type="curve"/>
      <point x="400" y="1490"/>
      <point x="540" y="1750"/>
      <point x="540" y="1750" type="curve"/>
      <point x="540" y="1750"/>
      <point x="760" y="1750"/>
    </contour>
  </outline>
</glyph>
<glyph name="uni0327" format="1">
  <advance width="780"/>
  <unicode hex="0327"/>
  <outline>
    <contour>
      <point x="580" y="10" type="curve"/>
      <point x="580" y="10"/>
      <point x="600" y="0"/>
      <point x="600" y="0" type="curve"/>
      <point x="600" y="0"/>
      <point x="680" y="-80"/>
      <point x="680" y="-80" type="curve"/>
      <point x="680" y="-80"/>
      <point x="680" y="-230"/>
      <point x="680" y="-230" type="curve" smooth="yes"/>
      <point x="680" y="-318"/>
      <point x="608" y="-390"/>
      <point x="520" y="-390" type="curve" smooth="yes"/>
      <point x="520" y="-390"/>
      <point x="260" y="-390"/>
      <point x="260" y="-390" type="curve" smooth="yes"/>
      <point x="172" y="-390"/>
      <point x="100" y="-318"/>
      <point x="100" y="-230" type="curve" smooth="yes"/>
      <point x="100" y="-230"/>
      <point x="100" y="-155"/>
      <point x="100" y="-155" type="curve"/>
      <point x="100" y="-155"/>
      <point x="260" y="-155"/>
      <point x="260" y="-155" type="curve"/>
      <point x="260" y="-155"/>
      <point x="260" y="-167"/>
      <point x="260" y="-167" type="curve" smooth="yes"/>
      <point x="260" y="-202"/>
      <point x="288" y="-230"/>
      <point x="323" y="-230" type="curve" smooth="yes"/>
      <point x="323" y="-230"/>
      <point x="458" y="-230"/>
      <point x="458" y="-230" type="curve" smooth="yes"/>
      <point x="493" y="-230"/>
      <point x="520" y="-202"/>
      <point x="520" y="-167" type="curve" smooth="yes"/>
      <point x="520" y="-167"/>
      <point x="520" y="-150"/>
      <point x="520" y="-150" type="curve"/>
      <point x="520" y="-150"/>
      <point x="374" y="0"/>
      <point x="374" y="0" type="curve"/>
      <point x="374" y="0"/>
      <point x="394" y="10"/>
      <point x="394" y="10" type="curve"/>
      <point x="394" y="10"/>
      <point x="580" y="10"/>
    </contour>
  </outline>
</glyph>
<glyph name="uni2009" format="1">
  <advance width="250"/>
  <unicode hex="2009"/>
  <outline>
    <contour>
      <point x="0" y="0" type="move" smooth="yes"/>
    </contour>
  </outline>
</glyph>
<glyph name="figuredash" format="1">
  <advance width="1200"/>
  <unicode hex="2012"/>
  <outline>
    <contour>
      <point x="100" y="800" type="curve"/>
      <point x="100" y="800"/>
      <point x="1100" y="800"/>
      <point x="1100" y="800" type="curve"/>
      <point x="1100" y="800"/>
      <point x="1100" y="600"/>
      <point x="1100" y="600" type="curve"/>
      <point x="1100" y="600"/>
      <point x="100" y="600"/>
      <point x="100" y="600" type="curve"/>
      <point x="100" y="600"/>
      <point x="100" y="800"/>
    </contour>
  </outline>
</glyph>
<glyph name="underscoredbl" format="1">
  <advance width="910"/>
  <unicode hex="2017"/>
  <outline>
    <contour>
      <point x="100" y="0" type="curve"/>
      <point x="100" y="0"/>
      <point x="810" y="0"/>
      <point x="810" y="0" type="curve"/>
      <point x="810" y="0"/>
      <point x="810" y="-130"/>
      <point x="810" y="-130" type="curve"/>
      <point x="810" y="-130"/>
      <point x="100" y="-130"/>
      <point x="100" y="-130" type="curve"/>
      <point x="100" y="-130"/>
      <point x="100" y="0"/>
    </contour>
    <contour>
      <point x="100" y="-200" type="curve"/>
      <point x="100" y="-200"/>
      <point x="810" y="-200"/>
      <point x="810" y="-200" type="curve"/>
      <point x="810" y="-200"/>
      <point x="810" y="-330"/>
      <point x="810" y="-330" type="curve"/>
      <point x="810" y="-330"/>
      <point x="100" y="-330"/>
      <point x="100" y="-330" type="curve"/>
      <point x="100" y="-330"/>
      <point x="100" y="-200"/>
    </contour>
  </outline>
</glyph>
<glyph name="quoteleft" format="1">
  <advance width="330"/>
  <unicode hex="2018"/>
  <outline>
    <contour>
      <point x="280" y="1400" type="curve"/>
      <point x="280" y="1400"/>
      <point x="280" y="1170"/>
      <point x="280" y="1170" type="curve"/>
      <point x="280" y="1170"/>
      <point x="50" y="1170"/>
      <point x="50" y="1170" type="curve"/>
      <point x="50" y="1170"/>
      <point x="50" y="1400"/>
      <point x="50" y="1400" type="curve"/>
      <point x="50" y="1400"/>
      <point x="160" y="1600"/>
      <point x="160" y="1600" type="curve"/>
      <point x="160" y="1600"/>
      <point x="260" y="1600"/>
      <point x="260" y="1600" type="curve"/>
      <point x="260" y="1600"/>
      <point x="180" y="1400"/>
      <point x="180" y="1400" type="curve"/>
      <point x="180" y="1400"/>
      <point x="280" y="1400"/>
    </contour>
  </outline>
</glyph>
<glyph name="quotedblleft" format="1">
  <advance width="610"/>
  <unicode hex="201C"/>
  <outline>
    <contour>
      <point x="280" y="1400" type="curve"/>
      <point x="280" y="1400"/>
      <point x="280" y="1170"/>
      <point x="280" y="1170" type="curve"/>
      <point x="280" y="1170"/>
      <point x="50" y="1170"/>
      <point x="50" y="1170" type="curve"/>
      <point x="50" y="1170"/>
      <point x="50" y="1400"/>
      <point x="50" y="1400" type="curve"/>
      <point x="50" y="1400"/>
      <point x="160" y="1600"/>
      <point x="160" y="1600" type="curve"/>
      <point x="160" y="1600"/>
      <point x="260" y="1600"/>
      <point x="260" y="1600" type="curve"/>
      <point x="260" y="1600"/>
      <point x="180" y="1400"/>
      <point x="180" y="1400" type="curve"/>
      <point x="180" y="1400"/>
      <point x="280" y="1400"/>
    </contour>
    <contour>
      <point x="560" y="1400" type="curve"/>
      <point x="560" y="1400"/>
      <point x="560" y="1170"/>
      <point x="560" y="1170" type="curve"/>
      <point x="560" y="1170"/>
      <point x="330" y="1170"/>
      <point x="330" y="1170" type="curve"/>
      <point x="330" y="1170"/>
      <point x="330" y="1400"/>
      <point x="330" y="1400" type="curve"/>
      <point x="330" y="1400"/>
      <point x="440" y="1600"/>
      <point x="440" y="1600" type="curve"/>
      <point x="440" y="1600"/>
      <point x="540" y="1600"/>
      <point x="540" y="1600" type="curve"/>
      <point x="540" y="1600"/>
      <point x="460" y="1400"/>
      <point x="460" y="1400" type="curve"/>
      <point x="460" y="1400"/>
      <point x="560" y="1400"/>
    </contour>
  </outline>
</glyph>
<glyph name="quotedblright" format="1">
  <advance width="610"/>
  <unicode hex="201D"/>
  <outline>
    <contour>
      <point x="170" y="1070" type="curve"/>
      <point x="170" y="1070"/>
      <point x="70" y="1070"/>
      <point x="70" y="1070" type="curve"/>
      <point x="70" y="1070"/>
      <point x="150" y="1270"/>
      <point x="150" y="1270" type="curve"/>
      <point x="150" y="1270"/>
      <point x="50" y="1270"/>
      <point x="50" y="1270" type="curve"/>
      <point x="50" y="1270"/>
      <point x="50" y="1500"/>
      <point x="50" y="1500" type="curve"/>
      <point x="50" y="1500"/>
      <point x="280" y="1500"/>
      <point x="280" y="1500" type="curve"/>
      <point x="280" y="1500"/>
      <point x="280" y="1270"/>
      <point x="280" y="1270" type="curve"/>
      <point x="280" y="1270"/>
      <point x="170" y="1070"/>
    </contour>
    <contour>
      <point x="450" y="1070" type="curve"/>
      <point x="450" y="1070"/>
      <point x="350" y="1070"/>
      <point x="350" y="1070" type="curve"/>
      <point x="350" y="1070"/>
      <point x="430" y="1270"/>
      <point x="430" y="1270" type="curve"/>
      <point x="430" y="1270"/>
      <point x="330" y="1270"/>
      <point x="330" y="1270" type="curve"/>
      <point x="330" y="1270"/>
      <point x="330" y="1500"/>
      <point x="330" y="1500" type="curve"/>
      <point x="330" y="1500"/>
      <point x="560" y="1500"/>
      <point x="560" y="1500" type="curve"/>
      <point x="560" y="1500"/>
      <point x="560" y="1270"/>
      <point x="560" y="1270" type="curve"/>
      <point x="560" y="1270"/>
      <point x="450" y="1070"/>
    </contour>
  </outline>
</glyph>
<glyph name="uni2023" format="1">
  <advance width="480"/>
  <unicode hex="2023"/>
  <outline>
    <contour>
      <point x="100" y="550" type="curve"/>
      <point x="100" y="550"/>
      <point x="100" y="830"/>
      <point x="100" y="830" type="curve"/>
      <point x="100" y="830"/>
      <point x="380" y="730"/>
      <point x="380" y="730" type="curve"/>
      <point x="380" y="730"/>
      <point x="380" y="650"/>
      <point x="380" y="650" type="curve"/>
      <point x="380" y="650"/>
      <point x="100" y="550"/>
    </contour>
  </outline>
</glyph>
<glyph name="ellipsis" format="1">
  <advance width="990"/>
  <unicode hex="2026"/>
  <outline>
    <contour>
      <point x="100" y="230" type="curve"/>
      <point x="100" y="230"/>
      <point x="330" y="230"/>
      <point x="330" y="230" type="curve"/>
      <point x="330" y="230"/>
      <point x="330" y="0"/>
      <point x="330" y="0" type="curve"/>
      <point x="330" y="0"/>
      <point x="100" y="0"/>
      <point x="100" y="0" type="curve"/>
      <point x="100" y="0"/>
      <point x="100" y="230"/>
    </contour>
    <contour>
      <point x="380" y="230" type="curve"/>
      <point x="380" y="230"/>
      <point x="610" y="230"/>
      <point x="610" y="230" type="curve"/>
      <point x="610" y="230"/>
      <point x="610" y="0"/>
      <point x="610" y="0" type="curve"/>
      <point x="610" y="0"/>
      <point x="380" y="0"/>
      <point x="380" y="0" type="curve"/>
      <point x="380" y="0"/>
      <point x="380" y="230"/>
    </contour>
    <contour>
      <point x="660" y="230" type="curve"/>
      <point x="660" y="230"/>
      <point x="890" y="230"/>
      <point x="890" y="230" type="curve"/>
      <point x="890" y="230"/>
      <point x="890" y="0"/>
      <point x="890" y="0" type="curve"/>
      <point x="890" y="0"/>
      <point x="660" y="0"/>
      <point x="660" y="0" type="curve"/>
      <point x="660" y="0"/>
      <point x="660" y="230"/>
    </contour>
  </outline>
</glyph>
<glyph name="uni2038" format="1">
  <advance width="520"/>
  <unicode hex="2038"/>
  <outline>
    <contour>
      <point x="10" y="-300" type="curve"/>
      <point x="10" y="-300"/>
      <point x="260" y="0"/>
      <point x="260" y="0" type="curve"/>
      <point x="260" y="0"/>
      <point x="510" y="-300"/>
      <point x="510" y="-300" type="curve"/>
      <point x="510" y="-300"/>
      <point x="370" y="-300"/>
      <point x="370" y="-300" type="curve"/>
      <point x="370" y="-300"/>
      <point x="260" y="-172"/>
      <point x="260" y="-172" type="curve"/>
      <point x="260" y="-172"/>
      <point x="150" y="-300"/>
      <point x="150" y="-300" type="curve"/>
      <point x="150" y="-300"/>
      <point x="10" y="-300"/>
    </contour>
  </outline>
</glyph>
<glyph name="guilsinglleft" format="1">
  <advance width="610"/>
  <unicode hex="2039"/>
  <outline>
    <contour>
      <point x="251" y="700" type="curve"/>
      <point x="251" y="700"/>
      <point x="510" y="360"/>
      <point x="510" y="360" type="curve"/>
      <point x="510" y="360"/>
      <point x="322" y="360"/>
      <point x="322" y="360" type="curve"/>
      <point x="322" y="360"/>
      <point x="50" y="700"/>
      <point x="50" y="700" type="curve"/>
      <point x="50" y="700"/>
      <point x="322" y="1040"/>
      <point x="322" y="1040" type="curve"/>
      <point x="322" y="1040"/>
      <point x="510" y="1040"/>
      <point x="510" y="1040" type="curve"/>
      <point x="510" y="1040"/>
      <point x="251" y="700"/>
    </contour>
  </outline>
</glyph>
<glyph name="uni203B" format="1">
  <advance width="1200"/>
  <unicode hex="203B"/>
  <outline>
    <contour>
      <point x="500" y="1180" type="curve"/>
      <point x="500" y="1180"/>
      <point x="700" y="1180"/>
      <point x="700" y="1180" type="curve"/>
      <point x="700" y="1180"/>
      <point x="700" y="980"/>
      <point x="700" y="980" type="curve"/>
      <point x="700" y="980"/>
      <point x="500" y="980"/>
      <point x="500" y="980" type="curve"/>
      <point x="500" y="980"/>
      <point x="500" y="1180"/>
    </contour>
    <contour>
      <point x="500" y="420" type="curve"/>
      <point x="500" y="420"/>
      <point x="700" y="420"/>
      <point x="700" y="420" type="curve"/>
      <point x="700" y="420"/>
      <point x="700" y="220"/>
      <point x="700" y="220" type="curve"/>
      <point x="700" y="220"/>
      <point x="500" y="220"/>
      <point x="500" y="220" type="curve"/>
      <point x="500" y="220"/>
      <point x="500" y="420"/>
    </contour>
    <contour>
      <point x="880" y="800" type="curve"/>
      <point x="880" y="800"/>
      <point x="1080" y="800"/>
      <point x="1080" y="800" type="curve"/>
      <point x="1080" y="800"/>
      <point x="1080" y="600"/>
      <point x="1080" y="600" type="curve"/>
      <point x="1080" y="600"/>
      <point x="880" y="600"/>
      <point x="880" y="600" type="curve"/>
      <point x="880" y="600"/>
      <point x="880" y="800"/>
    </contour>
    <contour>
      <point x="122" y="800" type="curve"/>
      <point x="122" y="800"/>
      <point x="322" y="800"/>
      <point x="322" y="800" type="curve"/>
      <point x="322" y="800"/>
      <point x="322" y="600"/>
      <point x="322" y="600" type="curve"/>
      <point x="322" y="600"/>
      <point x="122" y="600"/>
      <point x="122" y="600" type="curve"/>
      <point x="122" y="600"/>
      <point x="122" y="800"/>
    </contour>
    <contour>
      <point x="1002" y="1200" type="curve"/>
      <point x="1002" y="1200"/>
      <point x="1100" y="1102"/>
      <point x="1100" y="1102" type="curve"/>
      <point x="1100" y="1102"/>
      <point x="698" y="700"/>
      <point x="698" y="700" type="curve"/>
      <point x="698" y="700"/>
      <point x="1100" y="298"/>
      <point x="1100" y="298" type="curve"/>
      <point x="1100" y="298"/>
      <point x="1002" y="200"/>
      <point x="1002" y="200" type="curve"/>
      <point x="1002" y="200"/>
      <point x="600" y="602"/>
      <point x="600" y="602" type="curve"/>
      <point x="600" y="602"/>
      <point x="198" y="200"/>
      <point x="198" y="200" type="curve"/>
      <point x="198" y="200"/>
      <point x="100" y="298"/>
      <point x="100" y="298" type="curve"/>
      <point x="100" y="298"/>
      <point x="502" y="700"/>
      <point x="502" y="700" type="curve"/>
      <point x="502" y="700"/>
      <point x="100" y="1102"/>
      <point x="100" y="1102" type="curve"/>
      <point x="100" y="1102"/>
      <point x="198" y="1200"/>
      <point x="198" y="1200" type="curve"/>
      <point x="198" y="1200"/>
      <point x="600" y="798"/>
      <point x="600" y="798" type="curve"/>
      <point x="600" y="798"/>
      <point x="1002" y="1200"/>
    </contour>
  </outline>
</glyph>
<glyph name="exclamdbl" format="1">
  <advance width="750"/>
  <unicode hex="203C"/>
  <outline>
    <contour>
      <point x="110" y="230" type="curve"/>
      <point x="110" y="230"/>
      <point x="340" y="230"/>
      <point x="340" y="230" type="curve"/>
      <point x="340" y="230"/>
      <point x="340" y="0"/>
      <point x="340" y="0" type="curve"/>
      <point x="340" y="0"/>
      <point x="110" y="0"/>
      <point x="110" y="0" type="curve"/>
      <point x="110" y="0"/>
      <point x="110" y="230"/>
    </contour>
    <contour>
      <point x="410" y="230" type="curve"/>
      <point x="410" y="230"/>
      <point x="640" y="230"/>
      <point x="640" y="230" type="curve"/>
      <point x="640" y="230"/>
      <point x="640" y="0"/>
      <point x="640" y="0" type="curve"/>
      <point x="640" y="0"/>
      <point x="410" y="0"/>
      <point x="410" y="0" type="curve"/>
      <point x="410" y="0"/>
      <point x="410" y="230"/>
    </contour>
    <contour>
      <point x="100" y="880" type="curve"/>
      <point x="100" y="880"/>
      <point x="100" y="1400"/>
      <point x="100" y="1400" type="curve"/>
      <point x="100" y="1400"/>
      <point x="350" y="1400"/>
      <point x="350" y="1400" type="curve"/>
      <point x="350" y="1400"/>
      <point x="350" y="880"/>
      <point x="350" y="880" type="curve"/>
      <point x="350" y="880"/>
      <point x="330" y="390"/>
      <point x="330" y="390" type="curve"/>
      <point x="330" y="390"/>
      <point x="120" y="390"/>
      <point x="120" y="390" type="curve"/>
      <point x="120" y="390"/>
      <point x="100" y="880"/>
    </contour>
    <contour>
      <point x="400" y="1400" type="curve"/>
      <point x="400" y="1400"/>
      <point x="650" y="1400"/>
      <point x="650" y="1400" type="curve"/>
      <point x="650" y="1400"/>
      <point x="650" y="880"/>
      <point x="650" y="880" type="curve"/>
      <point x="650" y="880"/>
      <point x="630" y="390"/>
      <point x="630" y="390" type="curve"/>
      <point x="630" y="390"/>
      <point x="420" y="390"/>
      <point x="420" y="390" type="curve"/>
      <point x="420" y="390"/>
      <point x="400" y="880"/>
      <point x="400" y="880" type="curve"/>
      <point x="400" y="880"/>
      <point x="400" y="1400"/>
    </contour>
  </outline>
</glyph>
<glyph name="uni2040" format="1">
  <advance width="1320"/>
  <unicode hex="2040"/>
  <outline>
    <contour>
      <point x="1157" y="1350" type="curve"/>
      <point x="1157" y="1350"/>
      <point x="1157" y="1418"/>
      <point x="1157" y="1418" type="curve" smooth="yes"/>
      <point x="1157" y="1487"/>
      <point x="1110" y="1605"/>
      <point x="979" y="1605" type="curve" smooth="yes"/>
      <point x="979" y="1605"/>
      <point x="341" y="1605"/>
      <point x="341" y="1605" type="curve" smooth="yes"/>
      <point x="210" y="1605"/>
      <point x="163" y="1487"/>
      <point x="163" y="1418" type="curve" smooth="yes"/>
      <point x="163" y="1418"/>
      <point x="163" y="1350"/>
      <point x="163" y="1350" type="curve"/>
      <point x="163" y="1350"/>
      <point x="10" y="1350"/>
      <point x="10" y="1350" type="curve"/>
      <point x="10" y="1350"/>
      <point x="10" y="1418"/>
      <point x="10" y="1418" type="curve" smooth="yes"/>
      <point x="10" y="1627"/>
      <point x="183" y="1800"/>
      <point x="392" y="1800" type="curve" smooth="yes"/>
      <point x="392" y="1800"/>
      <point x="928" y="1800"/>
      <point x="928" y="1800" type="curve" smooth="yes"/>
      <point x="1137" y="1800"/>
      <point x="1310" y="1627"/>
      <point x="1310" y="1418" type="curve" smooth="yes"/>
      <point x="1310" y="1418"/>
      <point x="1310" y="1350"/>
      <point x="1310" y="1350" type="curve"/>
      <point x="1310" y="1350"/>
      <point x="1157" y="1350"/>
    </contour>
  </outline>
</glyph>
<glyph name="uni2043" format="1">
  <advance width="470"/>
  <unicode hex="2043"/>
  <outline>
    <contour>
      <point x="100" y="810" type="curve"/>
      <point x="100" y="810"/>
      <point x="370" y="810"/>
      <point x="370" y="810" type="curve"/>
      <point x="370" y="810"/>
      <point x="370" y="590"/>
      <point x="370" y="590" type="curve"/>
      <point x="370" y="590"/>
      <point x="100" y="590"/>
      <point x="100" y="590" type="curve"/>
      <point x="100" y="590"/>
      <point x="100" y="810"/>
    </contour>
  </outline>
</glyph>
<glyph name="fraction" format="1">
  <advance width="900"/>
  <unicode hex="2044"/>
  <outline>
    <contour>
      <point x="50" y="0" type="curve"/>
      <point x="50" y="0"/>
      <point x="650" y="1400"/>
      <point x="650" y="1400" type="curve"/>
      <point x="650" y="1400"/>
      <point x="850" y="1400"/>
      <point x="850" y="1400" type="curve"/>
      <point x="850" y="1400"/>
      <point x="250" y="0"/>
      <point x="250" y="0" type="curve"/>
      <point x="250" y="0"/>
      <point x="50" y="0"/>
    </contour>
  </outline>
</glyph>
<glyph name="uni2045" format="1">
  <advance width="740"/>
  <unicode hex="2045"/>
  <outline>
    <contour>
      <point x="100" y="0" type="curve"/>
      <point x="100" y="0"/>
      <point x="100" y="1800"/>
      <point x="100" y="1800" type="curve"/>
      <point x="100" y="1800"/>
      <point x="640" y="1800"/>
      <point x="640" y="1800" type="curve"/>
      <point x="640" y="1800"/>
      <point x="640" y="1600"/>
      <point x="640" y="1600" type="curve"/>
      <point x="640" y="1600"/>
      <point x="330" y="1600"/>
      <point x="330" y="1600" type="curve"/>
      <point x="330" y="1600"/>
      <point x="330" y="1000"/>
      <point x="330" y="1000" type="curve"/>
      <point x="330" y="1000"/>
      <point x="640" y="1000"/>
      <point x="640" y="1000" type="curve"/>
      <point x="640" y="1000"/>
      <point x="640" y="800"/>
      <point x="640" y="800" type="curve"/>
      <point x="640" y="800"/>
      <point x="330" y="800"/>
      <point x="330" y="800" type="curve"/>
      <point x="330" y="800"/>
      <point x="330" y="200"/>
      <point x="330" y="200" type="curve"/>
      <point x="330" y="200"/>
      <point x="640" y="200"/>
      <point x="640" y="200" type="curve"/>
      <point x="640" y="200"/>
      <point x="640" y="0"/>
      <point x="640" y="0" type="curve"/>
      <point x="640" y="0"/>
      <point x="100" y="0"/>
    </contour>
  </outline>
</glyph>
<glyph name="uni2047" format="1">
  <advance width="1390"/>
  <unicode hex="2047"/>
  <outline>
    <contour>
      <point x="810" y="1127" type="curve" smooth="yes"/>
      <point x="810" y="1127"/>
      <point x="810" y="1069"/>
      <point x="810" y="1069" type="curve"/>
      <point x="810" y="1069"/>
      <point x="810" y="1048"/>
      <point x="810" y="1048" type="curve" smooth="yes"/>
      <point x="810" y="780"/>
      <point x="525" y="720"/>
      <point x="525" y="460" type="curve" smooth="yes"/>
      <point x="525" y="460"/>
      <point x="525" y="360"/>
      <point x="525" y="360" type="curve"/>
      <point x="525" y="360"/>
      <point x="300" y="360"/>
      <point x="300" y="360" type="curve"/>
      <point x="300" y="360"/>
      <point x="300" y="450"/>
      <point x="300" y="450" type="curve" smooth="yes"/>
      <point x="300" y="749"/>
      <point x="589" y="856"/>
      <point x="589" y="1048" type="curve" smooth="yes"/>
      <point x="589" y="1048"/>
      <point x="589" y="1127"/>
      <point x="589" y="1127" type="curve" smooth="yes"/>
      <point x="589" y="1162"/>
      <point x="562" y="1190"/>
      <point x="527" y="1190" type="curve" smooth="yes"/>
      <point x="527" y="1190"/>
      <point x="393" y="1190"/>
      <point x="393" y="1190" type="curve" smooth="yes"/>
      <point x="358" y="1190"/>
      <point x="330" y="1162"/>
      <point x="330" y="1127" type="curve" smooth="yes"/>
      <point x="330" y="1127"/>
      <point x="330" y="1000"/>
      <point x="330" y="1000" type="curve"/>
      <point x="330" y="1000"/>
      <point x="100" y="1000"/>
      <point x="100" y="1000" type="curve"/>
      <point x="100" y="1000"/>
      <point x="100" y="1240"/>
      <point x="100" y="1240" type="curve" smooth="yes"/>
      <point x="100" y="1328"/>
      <point x="172" y="1400"/>
      <point x="260" y="1400" type="curve" smooth="yes"/>
      <point x="260" y="1400"/>
      <point x="561" y="1400"/>
      <point x="561" y="1400" type="curve"/>
      <point x="561" y="1400"/>
      <point x="650" y="1400"/>
      <point x="650" y="1400" type="curve"/>
      <point x="650" y="1400"/>
      <point x="1130" y="1400"/>
      <point x="1130" y="1400" type="curve" smooth="yes"/>
      <point x="1218" y="1400"/>
      <point x="1290" y="1328"/>
      <point x="1290" y="1240" type="curve" smooth="yes"/>
      <point x="1290" y="1240"/>
      <point x="1290" y="1048"/>
      <point x="1290" y="1048" type="curve" smooth="yes"/>
      <point x="1290" y="780"/>
      <point x="1005" y="720"/>
      <point x="1005" y="460" type="curve" smooth="yes"/>
      <point x="1005" y="460"/>
      <point x="1005" y="360"/>
      <point x="1005" y="360" type="curve"/>
      <point x="1005" y="360"/>
      <point x="780" y="360"/>
      <point x="780" y="360" type="curve"/>
      <point x="780" y="360"/>
      <point x="780" y="450"/>
      <point x="780" y="450" type="curve" smooth="yes"/>
      <point x="780" y="749"/>
      <point x="1069" y="856"/>
      <point x="1069" y="1048" type="curve" smooth="yes"/>
      <point x="1069" y="1048"/>
      <point x="1069" y="1127"/>
      <point x="1069" y="1127" type="curve" smooth="yes"/>
      <point x="1069" y="1162"/>
      <point x="1042" y="1190"/>
      <point x="1007" y="1190" type="curve" smooth="yes"/>
      <point x="1007" y="1190"/>
      <point x="873" y="1190"/>
      <point x="873" y="1190" type="curve" smooth="yes"/>
      <point x="838" y="1190"/>
      <point x="810" y="1162"/>
    </contour>
    <contour>
      <point x="300" y="230" type="curve"/>
      <point x="300" y="230"/>
      <point x="530" y="230"/>
      <point x="530" y="230" type="curve"/>
      <point x="530" y="230"/>
      <point x="530" y="0"/>
      <point x="530" y="0" type="curve"/>
      <point x="530" y="0"/>
      <point x="300" y="0"/>
      <point x="300" y="0" type="curve"/>
      <point x="300" y="0"/>
      <point x="300" y="230"/>
    </contour>
    <contour>
      <point x="784" y="230" type="curve"/>
      <point x="784" y="230"/>
      <point x="1014" y="230"/>
      <point x="1014" y="230" type="curve"/>
      <point x="1014" y="230"/>
      <point x="1014" y="0"/>
      <point x="1014" y="0" type="curve"/>
      <point x="1014" y="0"/>
      <point x="784" y="0"/>
      <point x="784" y="0" type="curve"/>
      <point x="784" y="0"/>
      <point x="784" y="230"/>
    </contour>
  </outline>
</glyph>
<glyph name="uni2048" format="1">
  <advance width="1200"/>
  <unicode hex="2048"/>
  <outline>
    <contour>
      <point x="260" y="1400" type="curve" smooth="yes"/>
      <point x="260" y="1400"/>
      <point x="650" y="1400"/>
      <point x="650" y="1400" type="curve" smooth="yes"/>
      <point x="738" y="1400"/>
      <point x="810" y="1328"/>
      <point x="810" y="1240" type="curve" smooth="yes"/>
      <point x="810" y="1240"/>
      <point x="810" y="1048"/>
      <point x="810" y="1048" type="curve" smooth="yes"/>
      <point x="810" y="780"/>
      <point x="525" y="720"/>
      <point x="525" y="460" type="curve" smooth="yes"/>
      <point x="525" y="460"/>
      <point x="525" y="360"/>
      <point x="525" y="360" type="curve"/>
      <point x="525" y="360"/>
      <point x="300" y="360"/>
      <point x="300" y="360" type="curve"/>
      <point x="300" y="360"/>
      <point x="300" y="450"/>
      <point x="300" y="450" type="curve" smooth="yes"/>
      <point x="300" y="749"/>
      <point x="589" y="856"/>
      <point x="589" y="1048" type="curve" smooth="yes"/>
      <point x="589" y="1058"/>
      <point x="589" y="1127"/>
      <point x="589" y="1127" type="curve" smooth="yes"/>
      <point x="589" y="1162"/>
      <point x="562" y="1190"/>
      <point x="527" y="1190" type="curve" smooth="yes"/>
      <point x="527" y="1190"/>
      <point x="393" y="1190"/>
      <point x="393" y="1190" type="curve" smooth="yes"/>
      <point x="358" y="1190"/>
      <point x="330" y="1162"/>
      <point x="330" y="1127" type="curve" smooth="yes"/>
      <point x="330" y="1127"/>
      <point x="330" y="1000"/>
      <point x="330" y="1000" type="curve"/>
      <point x="330" y="1000"/>
      <point x="100" y="1000"/>
      <point x="100" y="1000" type="curve"/>
      <point x="100" y="1000"/>
      <point x="100" y="1240"/>
      <point x="100" y="1240" type="curve" smooth="yes"/>
      <point x="100" y="1328"/>
      <point x="172" y="1400"/>
    </contour>
    <contour>
      <point x="300" y="230" type="curve"/>
      <point x="300" y="230"/>
      <point x="530" y="230"/>
      <point x="530" y="230" type="curve"/>
      <point x="530" y="230"/>
      <point x="530" y="0"/>
      <point x="530" y="0" type="curve"/>
      <point x="530" y="0"/>
      <point x="300" y="0"/>
      <point x="300" y="0" type="curve"/>
      <point x="300" y="0"/>
      <point x="300" y="230"/>
    </contour>
    <contour>
      <point x="860" y="230" type="curve"/>
      <point x="860" y="230"/>
      <point x="1090" y="230"/>
      <point x="1090" y="230" type="curve"/>
      <point x="1090" y="230"/>
      <point x="1090" y="0"/>
      <point x="1090" y="0" type="curve"/>
      <point x="1090" y="0"/>
      <point x="860" y="0"/>
      <point x="860" y="0" type="curve"/>
      <point x="860" y="0"/>
      <point x="860" y="230"/>
    </contour>
    <contour>
      <point x="1080" y="390" type="curve"/>
      <point x="1080" y="390"/>
      <point x="870" y="390"/>
      <point x="870" y="390" type="curve"/>
      <point x="870" y="390"/>
      <point x="850" y="880"/>
      <point x="850" y="880" type="curve"/>
      <point x="850" y="880"/>
      <point x="850" y="1400"/>
      <point x="850" y="1400" type="curve"/>
      <point x="850" y="1400"/>
      <point x="1100" y="1400"/>
      <point x="1100" y="1400" type="curve"/>
      <point x="1100" y="1400"/>
      <point x="1100" y="880"/>
      <point x="1100" y="880" type="curve"/>
      <point x="1100" y="880"/>
      <point x="1080" y="390"/>
    </contour>
  </outline>
</glyph>
<glyph name="uni204A" format="1">
  <advance width="1061"/>
  <unicode hex="204A"/>
  <outline>
    <contour>
      <point x="100" y="1400" type="curve"/>
      <point x="100" y="1400"/>
      <point x="510" y="1400"/>
      <point x="510" y="1400" type="curve"/>
      <point x="510" y="1400"/>
      <point x="961" y="1348"/>
      <point x="961" y="1348" type="curve"/>
      <point x="961" y="1348"/>
      <point x="961" y="1252"/>
      <point x="961" y="1252" type="curve"/>
      <point x="961" y="1252"/>
      <point x="425" y="0"/>
      <point x="425" y="0" type="curve"/>
      <point x="425" y="0"/>
      <point x="225" y="0"/>
      <point x="225" y="0" type="curve"/>
      <point x="225" y="0"/>
      <point x="752" y="1228"/>
      <point x="752" y="1228" type="curve"/>
      <point x="752" y="1228"/>
      <point x="510" y="1200"/>
      <point x="510" y="1200" type="curve"/>
      <point x="510" y="1200"/>
      <point x="100" y="1200"/>
      <point x="100" y="1200" type="curve"/>
      <point x="100" y="1200"/>
      <point x="100" y="1400"/>
    </contour>
  </outline>
</glyph>
